<?xml version="1.0" encoding="utf-8"?>
<!-- Generator: Adobe Illustrator 23.1.0, SVG Export Plug-In . SVG Version: 6.00 Build 0)  -->
<svg version="1.1" id="Layer_1" xmlns="http://www.w3.org/2000/svg" xmlns:xlink="http://www.w3.org/1999/xlink" x="0px" y="0px"
	 viewBox="0 0 259 189" style="enable-background:new 0 0 259 189;" xml:space="preserve">
<style type="text/css">
	.st0{fill:#A79D2D;}
	.st1{fill:#D4C931;}
	.st2{fill:#C2B92F;}
	.st3{fill:#E5C172;}
	.st4{clip-path:url(#SVGID_2_);}
	.st5{fill:#E9EEF0;}
	.st6{fill:#996932;}
	.st7{fill:#A87438;}
	.st8{fill:#1F1F1F;}
	.st9{fill:#825520;}
	.st10{fill:#42260B;}
	.st11{fill:#3D2003;}
	.st12{fill:#21AFDB;}
	.st13{fill:#EBEBEB;}
	.st14{fill:#E8B58F;}
	.st15{fill:#1C4059;}
	.st16{fill:#12344A;}
	.st17{fill:#32A6A0;}
	.st18{fill:#48C2C1;}
	.st19{fill:#1F4964;}
	.st20{fill:#133B54;}
	.st21{fill:#4FC2BE;}
	.st22{fill:#46B3B0;}
	.st23{fill:#E0AA82;}
	.st24{fill:#4DC2BF;}
	.st25{fill:#1EAAF1;}
	.st26{fill:#78D4C3;}
	.st27{fill:#F4FAFC;}
	.st28{fill:#20ABE2;}
	.st29{fill:#D98F6C;}
	.st30{fill:#51D6BE;}
	.st31{fill:#EAA685;}
	.st32{fill:#F0B88F;}
	.st33{fill:#DF9876;}
	.st34{fill:#A34512;}
	.st35{fill:#7D350E;}
	.st36{fill:#B8E0CA;}
</style>
<path class="st0" d="M188.9,127.8l8.8,5l-5.8,3.4L188.9,127.8z"/>
<path class="st1" d="M244.7,78.7L112.9,2.9l-9.3,16.7L128.3,93l100.9,58.1L254,106L244.7,78.7z"/>
<path class="st0" d="M206.7,76.3V79l-25-14.3V49l1.9,1.1v13L206.7,76.3z"/>
<path class="st2" d="M206.7,63.6v12.7l-23.1-13.3v-13L206.7,63.6z"/>
<path class="st0" d="M241.5,99.1l-29.2-16.7V66.8l1.9,1.1v12.7l26,15.1L241.5,99.1z"/>
<path class="st2" d="M240.1,95.7l-26-15.1V67.9L234,79.3L240.1,95.7z"/>
<path class="st0" d="M145.6,41.1v2.7L116.4,27l7.4-11.1l0.5,0.3l-6.1,9L145.6,41.1z"/>
<path class="st2" d="M145.6,28.4v12.7l-27.4-15.9l6.1-9L145.6,28.4z"/>
<path class="st0" d="M176.1,58.6v2.9l-25-14.3V31.5l1.9,1.1v12.7L176.1,58.6z"/>
<path class="st2" d="M176.1,45.9v12.7L153,45.3V32.6L176.1,45.9z"/>
<path class="st3" d="M249.7,75.8L118,0l-5,2.9l131.8,75.8L249.7,75.8z"/>
<path class="st0" d="M219.4,137.3l-1.1,2.1l-81-46.7l-16.5-51.2l2.9,1.6l15.4,47.7L219.4,137.3z"/>
<path class="st2" d="M236.4,108.2l-17,29.2l-80.2-46.4l-15.4-47.7L236.4,108.2z"/>
<path class="st0" d="M249.7,75.8l-5,2.9L254,106l5-2.7L249.7,75.8z"/>
<path class="st3" d="M62.2,43.5l41.4-23.9l5,2.7L67.2,46.4L62.2,43.5z"/>
<path class="st0" d="M108.7,22.3L67.2,46.4l57.4,32.9L108.7,22.3z"/>
<path class="st1" d="M179,116.6L47.3,40.6L38,57.3l24.7,73.4L163.9,189l24.4-45.1L179,116.6z"/>
<path class="st0" d="M141.1,114v2.9l-25-14.3V86.9L118,88v12.7L141.1,114z"/>
<path class="st2" d="M141.1,101.3V114L118,100.7V88L141.1,101.3z"/>
<path class="st0" d="M176.1,137l-29.5-17v-15.6l2.1,1.1v13l25.8,14.8L176.1,137z"/>
<path class="st2" d="M174.5,133.3l-25.8-14.8v-13l19.7,11.4L174.5,133.3z"/>
<path class="st0" d="M80,78.7v2.9l-29.2-17l7.7-11.1l0.5,0.3l-6.4,9.3L80,78.7z"/>
<path class="st2" d="M80,66v12.7L52.6,63.1l6.4-9.3L80,66z"/>
<path class="st0" d="M110.5,96.5v2.7l-25-14.3V69.2l1.9,1.1v13L110.5,96.5z"/>
<path class="st2" d="M110.5,83.8v12.7L87.4,83.2v-13L110.5,83.8z"/>
<path class="st0" d="M184.1,113.7l-5,2.9l9.3,27.3l5-2.9L184.1,113.7z"/>
<path class="st3" d="M184.1,113.7L52.3,37.9l-5,2.7L179,116.6L184.1,113.7z"/>
<path class="st0" d="M153.8,175l-1.1,2.1l-81-46.7L55.3,79.3l3.2,1.9l15.1,47.7L153.8,175z"/>
<path class="st2" d="M170.8,145.8l-17,29.2l-80.2-46.1L58.5,81.1L170.8,145.8z"/>
<path class="st0" d="M259,103.4l-70.7,40.6L163.9,189l70.4-40.6L259,103.4z"/>
<path class="st3" d="M191.8,136.3l57.1-32.9l5,2.7l-60.6,35L191.8,136.3z"/>
<g>
	<defs>
		<rect id="SVGID_1_" y="39" width="50" height="150"/>
	</defs>
	<clipPath id="SVGID_2_">
		<use xlink:href="#SVGID_1_"  style="overflow:visible;"/>
	</clipPath>
	<g class="st4">
		<path class="st5" d="M49.2,183.3c-1.1,6.7-11.9,7.8-24.4,2.8c-12.5-5-21.4-14.4-20.3-21.1c1.1-6.7,11.9-7.8,24.4-2.8
			C41.4,167.2,50.3,176.5,49.2,183.3z"/>
		<path class="st6" d="M37,161.2h-2.2c-1.1,0-3.6,0.6-3.6,1.9v2.2c0.1,1,0,2.1-0.3,3.1c0,1.4-1.1,2.5-1.9,3.9
			c-0.8,1.2-1.5,2.5-1.9,3.9c-0.5,0.9-0.8,2-0.8,3.1c0,1.3,0.3,2.7,0.8,3.9c0.2,0.3,0.5,0.6,0.9,0.8c0.3,0.2,0.7,0.3,1.1,0.3
			c0.4,0.2,0.9,0.3,1.4,0.3h0.8c1.5-0.4,2.7-1.3,3.6-2.5c0.6-0.6,0.8-1.1,1.4-1.7c0.5-0.7,0.9-1.6,1.1-2.5l0.6-1.7h0.3
			c0.3,0,1.1-1.4,1.1-1.7c0.3-0.6,0.6-1.3,0.8-1.9c0.3-0.6,0.6-0.8,0.6-1.4c0.2-0.9,0.3-1.8,0.3-2.8c0-0.8-0.3-1.4-0.3-2.2
			s0.3-1.1,0.3-1.9s0.6-1.9-0.3-2.5c-0.3-0.3-1.1-0.3-1.7-0.6c-0.6-0.3-1.1-0.3-1.7-0.6C37.2,161.2,37,161.2,37,161.2z"/>
		<path class="st7" d="M28.1,179c3.1,3.3,6.9-0.8,7.8-3.9c0.4-1.5,0.6-3.1,0.6-4.7c0-1.1,0.3-2.2,0.3-3.3c0-0.3-0.1-0.6-0.2-0.9
			c-0.1-0.3-0.4-0.5-0.6-0.7c-0.3-0.2-0.7-0.3-1.1-0.3c-0.6,0-1.1-0.3-1.7,0c-0.7,0.1-1.4,0.4-1.9,0.8h-0.3v0.3
			c0.2,1.9-0.2,3.9-1.1,5.5c-1.1,1.7-3.1,4.2-2.8,6.1C27.5,178.1,27.8,178.7,28.1,179z"/>
		<path class="st8" d="M35,174c0-0.8-0.8-1.1-1.4-1.7c-0.6-0.6-0.6-0.3-0.6-0.6c0-0.3-0.6-0.6-0.6-0.8c0.4-0.3,0.9-0.3,1.4-0.3h0.3
			c0.6,0,1.1-0.3,1.1-0.6c0-0.2,0-0.3,0-0.4s-0.1-0.3-0.2-0.4c-0.3-0.3-0.6-0.6-0.8-0.6h-0.3c-0.1,0-0.3-0.1-0.4-0.2
			c-0.1-0.1-0.2-0.2-0.2-0.4v-0.3c0.4-0.3,0.9-0.3,1.4-0.3H35c0.3,0,0.6,0,0.6-0.3s0.3-0.6,0.3-0.8c0-0.3-0.6-0.6-0.8-0.8l-0.3-0.3
			c-0.2-0.1-0.3-0.3-0.4-0.5c-0.1-0.2-0.1-0.4-0.1-0.6c0-0.3,0.3-0.6,0.8-0.6v-0.3c-0.3,0.3-0.8,0.6-0.8,0.8c0,0.3,0,0.5,0.1,0.8
			c0.1,0.2,0.3,0.5,0.5,0.6l0.3,0.3c0.3,0.3,0.6,0.6,0.6,0.8c0,0.1,0,0.1-0.1,0.2c-0.1,0.1-0.1,0.1-0.2,0.1h-0.8
			c-0.6,0-1.4,0-1.7,0.6c-0.3,0.6-0.3,0.3,0,0.6c0,0.1,0.1,0.3,0.2,0.4c0.1,0.1,0.2,0.2,0.4,0.2h0.3c0.3,0.3,0.6,0.3,0.8,0.6
			c0.2,0.1,0.2,0.3,0.3,0.6c0,0.3-0.6,0.3-1.1,0.3h-0.3c-0.5-0.1-1,0-1.4,0.3l-0.3,0.3v0.3c0,0.2,0.1,0.4,0.2,0.6
			c0.1,0.2,0.2,0.4,0.4,0.5c0.3,0.3,0.6,0.3,0.6,0.6c0.5,0,0.9,0.2,1.3,0.4C34.5,173.2,34.8,173.6,35,174z"/>
		<path class="st8" d="M31.1,172.6c0.8,0,1.7,0,2.5-0.3c0.2,0,0.4-0.1,0.6-0.3s0.2-0.4,0.3-0.6c0-0.6-0.3-0.8-0.8-1.1h-0.3l-0.3-0.3
			c-0.3,0-0.3-0.3-0.6-0.6v-0.8c0.3-0.3,0.6,0,1.1,0h0.3c0.2,0,0.3,0,0.4,0c0.1,0,0.3-0.1,0.4-0.2c0.1-0.2,0.2-0.4,0.2-0.6
			c0-0.2-0.1-0.4-0.2-0.6c-0.3-0.3-0.6-0.3-0.8-0.6h-0.3c-0.3-0.3-0.6-0.3-0.6-0.6v-0.3h0.3c0.7,0,1.3-0.1,1.9-0.3
			c0.1,0,0.1,0,0.2-0.1c0.1-0.1,0.1-0.1,0.1-0.2v-0.3c-0.1-1.1-0.6-2.2-1.4-3.1l-0.3,0.3c0.7,0.7,1.1,1.7,1.1,2.8v0.3h-0.3
			c-0.5,0.2-1.1,0.3-1.7,0.3h-0.6c-0.3,0.3-0.3,0.3-0.3,0.6c0,0.3,0.3,0.6,0.8,0.8h0.3c0.2,0,0.4,0.1,0.6,0.3c0.1,0,0.1,0.1,0.1,0.2
			c0,0.1,0.1,0.2,0.1,0.2s0,0.2-0.1,0.2c0,0.1-0.1,0.1-0.1,0.2c-0.3,0.3-0.3,0.3-0.6,0.3H33c-0.6,0-0.8,0-1.1,0.3
			c-0.2,0.3-0.3,0.7-0.3,1.1c0,0.3,0.3,0.3,0.6,0.6h0.6c0.3,0.3,0.6,0.6,0.6,0.8c0,0.3-0.3,0.3-0.6,0.6c-1,0.2-2,0.3-3.1,0.3v0.3
			C30.2,172.4,30.6,172.5,31.1,172.6z"/>
		<path class="st9" d="M8.3,167.6c-0.3,2.2,1.1,2.8,3.1,2.8c1.4,0.1,2.8-0.1,4.2-0.6c0.8-0.3,3.3-0.8,3.9-1.7
			c0.3-0.4,0.6-0.7,0.8-1.1l1.1-0.6v0.8c0.9-0.2,1.7-0.5,2.5-0.8c1.1-0.3,2.1-1,2.8-1.9c0.1-1,0.1-2,0-3.1c0.1-1.4,0.1-2.8,0-4.2
			c0.1-0.5,0-1-0.2-1.5s-0.5-0.9-0.9-1.3c-0.3-0.3-0.8-0.3-1.1-0.6c-0.9-0.2-1.8-0.3-2.8-0.3h-2.8c-0.8,0-1.7,0.8-2.2,1.4
			c-0.4,0.8-0.6,1.6-0.6,2.5c0,0.8,0,2.2-0.6,2.8c0,0.8-1.1,1.1-1.9,1.7c-0.7,0.4-1.5,0.8-2.2,1.1c-0.8,0.5-1.5,1.1-2,1.9
			C8.8,165.8,8.5,166.7,8.3,167.6z"/>
		<path class="st10" d="M26.1,179.2c-0.1,1.1,0.2,2.2,0.8,3.1c0.2,0.3,0.5,0.6,0.9,0.8c0.3,0.2,0.7,0.3,1.1,0.3
			c0.4,0.2,0.9,0.3,1.4,0.3h0.8c1.5-0.4,2.7-1.3,3.6-2.5c0.6-0.6,0.8-1.1,1.4-1.7c0.5-0.7,0.9-1.6,1.1-2.5l0.6-1.7h0.3
			c0.3,0,1.1-1.4,1.1-1.7c0.3-0.6,0.6-1.3,0.8-1.9c0.3-0.6,0.6-0.8,0.6-1.4c0.1-0.5,0.2-0.9,0.3-1.4c0.1,0.8,0,1.5-0.3,2.2
			c0,0.6-0.6,0.8-0.6,1.4c0,0.6-0.6,1.4-0.8,1.9c-0.3,0.6-0.8,1.7-1.1,1.7h-0.3l-0.6,1.7c-0.3,0.9-0.6,1.7-1.1,2.5
			c-0.4,0.6-0.8,1.2-1.4,1.7c-1,1.1-2.2,1.9-3.6,2.5h-0.8c-0.5,0.1-1,0-1.4-0.3c-0.6-0.3-1.7-0.6-1.9-1.1
			C26.4,181.9,26.1,180.6,26.1,179.2z"/>
		<path class="st11" d="M11.4,169.4c1.4,0.1,2.8-0.1,4.2-0.6c0.8-0.3,3.3-0.8,3.9-1.7c0.3-0.4,0.6-0.7,0.8-1.1l1.1-0.6v0.8
			c0.9-0.2,1.7-0.5,2.5-0.8c1.1-0.3,2.1-1,2.8-1.9v0.8c-0.7,1-1.7,1.6-2.8,1.9c-0.8,0.4-1.6,0.6-2.5,0.8v-0.8l-1.1,0.6
			c-0.3,0.3-0.6,0.7-0.8,1.1c-0.6,0.8-2.8,1.4-3.9,1.7c-1.3,0.4-2.8,0.6-4.2,0.6c-1.9,0-3.1-0.6-3.1-2.8h0
			C8.6,169,9.7,169.4,11.4,169.4z"/>
		<path class="st8" d="M14.5,163.1l-0.3-1.1v-0.3h0.3c0.6,0,1.1-0.1,1.7-0.3c0.3-0.1,0.5-0.3,0.6-0.6c0.1-0.2,0.2-0.5,0.2-0.8
			c0-0.3,0-0.3-0.3-0.6c-0.3-0.3-0.3-0.3-0.3-0.6c0-0.3,0.3-0.3,0.6-0.3c0.2,0,0.3,0,0.4,0c0.1,0,0.3-0.1,0.4-0.2
			c0.3-0.3,0.3-0.6,0.3-1.1s-0.3-0.6-0.6-0.8l-0.3-0.3c0,0,0-0.1,0-0.1c0,0,0-0.1,0.1-0.1c0,0,0.1,0,0.1-0.1c0,0,0.1,0,0.1,0
			l0.3-0.3h-0.3c0,0.1,0,0.1-0.1,0.2c-0.1,0.1-0.1,0.1-0.2,0.1c-0.2,0.1-0.2,0.3-0.3,0.6c0,0.3,0,0.3,0.3,0.6
			c0.3,0.3,0.3,0.6,0.6,0.8v0.8c-0.1,0.1-0.2,0.2-0.4,0.2c-0.1,0-0.3,0.1-0.4,0c-0.3-0.6-0.6-0.6-0.8-0.3c0,0.2,0,0.3,0,0.4
			s0.1,0.3,0.2,0.4l0.3,0.3c0,0.2-0.1,0.4-0.2,0.6c-0.1,0.2-0.2,0.4-0.4,0.5c-0.4,0.3-0.9,0.3-1.4,0.3h-0.3c-0.3,0-0.3,0.3,0,0.8
			V163.1z"/>
		<path class="st8" d="M15.3,162.3c0.3,0,0.6-0.3,0.8-0.3c0.3,0,0.3-0.3,0.3-0.6c0-0.2-0.1-0.4-0.3-0.6c0-0.3-0.3-0.6,0-0.6
			c0.3,0,0.3-0.3,0.6-0.3h0.8c0.3,0,0.6-0.3,0.8-0.6c0.1,0,0.1-0.1,0.2-0.2c0-0.1,0.1-0.2,0.1-0.2c0-0.1,0-0.2-0.1-0.2
			c0-0.1-0.1-0.1-0.2-0.2c0-0.1-0.1-0.3-0.2-0.4c-0.1-0.1-0.2-0.2-0.4-0.2l-0.3-0.3c-0.1-0.1-0.2-0.2-0.2-0.4c0-0.1-0.1-0.3,0-0.4
			c0-0.3,0.3-0.3,0.6-0.6h0.8c0.3,0,0.6-0.1,0.9-0.2c0.3-0.1,0.5-0.4,0.7-0.6l-0.3-0.3c-0.2,0.3-0.4,0.5-0.7,0.7
			c-0.3,0.1-0.6,0.2-1,0.2h-0.8c-0.3,0-0.6,0.3-0.8,0.6c0,0.4,0.1,0.8,0.3,1.1l0.3,0.3c0.3,0.3,0.3,0.3,0.3,0.6v0.8
			c0,0.3-0.3,0.3-0.6,0.6h-0.6c-0.3,0-0.6,0.3-0.8,0.3v0.8c0,0.3,0.3,0.3,0.3,0.6c0,0.3,0,0.3-0.3,0.6
			C15.9,162,15.6,162.3,15.3,162.3c-0.6-0.3-0.8-0.6-1.4-0.8l-0.3,0.3C14.1,162.1,14.7,162.3,15.3,162.3z"/>
		<path class="st12" d="M44.7,73.8c0.2,1.2,0.6,2.3,1.1,3.3c0,0.1,0,0.1,0.1,0.2s0.1,0.1,0.2,0.1c0.1,0,0.1,0,0.2-0.1
			c0.1-0.1,0.1-0.1,0.1-0.2c0.2-0.8,0.3-1.7,0.3-2.5c0-0.8-0.3-2.2-1.4-2.5h-0.6V73.8z"/>
		<path class="st13" d="M23.6,156.2C23.6,155.9,23.3,155.9,23.6,156.2L23.6,156.2z"/>
		<path class="st14" d="M2.8,104.9c0.7-0.6,1.4-1.2,2.2-1.7c0-0.3,0-0.3,0.3-0.6c0.6-0.8,1-1.6,1.4-2.5c0.8-1.7,1.4-3.3,2.2-5
			c1.1-2.5,3.1-9.2,3.1-9.2c4.7-1.4,5,4.7,4.2,6.1c-0.8,1.4-2.2,2.8-3.1,4.4c-0.8,1.1-1.4,2.5-2.2,3.9c-0.3,0.3-0.3,0.8-0.6,1.1
			c-0.3,0.3-0.3,0.6-0.3,0.8c-0.3,0.8-0.6,1.4-0.8,2.2c-0.3,0.8,0,1.7-0.3,2.5c0,0.3,0,0.6-0.2,0.8c-0.2,0.3-0.4,0.4-0.7,0.5
			c-0.5,1.2-1.2,2.3-1.9,3.3c-0.6,0.8-0.3,0.8-2.2,0.8c-1.9,0-1.4-1.1-1.4-1.1l-0.6-0.3c-0.1,0-0.1-0.1-0.2-0.1
			c-0.1-0.1-0.1-0.1-0.1-0.2c0-0.1,0-0.2,0-0.2c0-0.1,0-0.2,0.1-0.2l1.4-3.6c0-0.2-0.1-0.4-0.3-0.6c-0.8,0.3-2.2,0.8-2.8,0.6
			C-0.2,106,2,105.6,2.8,104.9z"/>
		<path class="st15" d="M19.7,108.5c0.2-0.4,0.3-0.8,0.3-1.3c-0.1-0.5-0.2-0.9-0.6-1.2c0.3-0.3,0.3-0.6,0.3-1.1
			c0.4,0.1,0.8,0.3,1.1,0.6c1.8,1.3,3.2,3.1,3.9,5.3c0.3,0.3,0.3,0.8,0.6,1.1c1.1,2.8,0.3,6.1,0.3,9.2c-0.3,3.8,0,7.6,0.8,11.4
			c1.3,5.1,1.8,10.3,1.4,15.5c-0.3,4.2,0,11.7,0,11.7c-0.6,0.8-1.4,1.4-2.4,1.8c-0.9,0.4-1.9,0.5-2.9,0.4c-1.4,0.1-2.7-0.3-3.9-1.1
			c-0.6-0.2-1.1-0.7-1.4-1.2c-0.3-0.6-0.4-1.2-0.3-1.8c0.3-3.9,0-7.8,0-11.7c-0.6-3.3-0.8-6.7-1.4-9.7c-0.6-3.4-1-6.8-1.1-10.3
			c-0.3-2.8-1.7-12.5-0.8-16.4C15.6,109.9,18.6,110.4,19.7,108.5z"/>
		<path class="st16" d="M24.7,150.7c0.4-5.2,0-10.5-1.4-15.5c-0.7-3.7-1-7.6-0.8-11.4c0-2.8,0.8-6.4-0.3-9.2c0-0.6-0.3-0.8-0.3-1.4
			c-0.7-1.5-1.5-2.9-2.5-4.2l0.6-0.6c0.2-0.4,0.3-0.8,0.3-1.3c-0.1-0.5-0.2-0.9-0.6-1.2c0.3-0.3,0.3-0.6,0.3-1.1
			c0.4,0.1,0.8,0.3,1.1,0.6c1.8,1.3,3.2,3.2,3.9,5.3c0.3,0.3,0.3,0.8,0.6,1.1c1.1,2.8,0.3,6.1,0.3,9.2c-0.3,3.8,0,7.6,0.8,11.4
			c1.3,5.1,1.8,10.3,1.4,15.5c-0.3,4.2,0,11.7,0,11.7c-0.7,1-1.8,1.7-3.1,1.9C24.5,157.9,24.4,154.3,24.7,150.7z"/>
		<path class="st17" d="M20.8,62.4c-0.9-0.2-1.9-0.2-2.8-0.1c-0.9,0.2-1.8,0.6-2.5,1.2c-1.9,2.2-1.9,3.6-1.9,8c0,4.4,0.2,9,0.2,9
			l-8.1,20.5c1.6,0.5,3,1.6,3.9,3.1c0.3,0.6,5.3-9.2,5.8-9.7C21.1,88.9,25.3,63.3,20.8,62.4z"/>
		<path class="st18" d="M13.9,67.7c0.2-1.4,0.9-2.8,2-3.7c0.7-0.6,1.6-1.1,2.5-1.3c0.9-0.2,1.9-0.1,2.8,0.2c0.8,0,1.1,1.1,1.4,2.5
			c-1.4,0.1-2.8,0.1-4.2,0c-0.7,0-1.4,0.2-2,0.6c-0.6,0.3-1.2,0.8-1.6,1.4C14.2,67.2,13.9,67.4,13.9,67.7z"/>
		<path class="st19" d="M28.3,146.2c-0.3-2.5-1.4-5.3-1.7-7.8c-0.6-3.3-1.1-8.6-1.4-11.9c0-2-0.2-3.9-0.6-5.8v-0.6
			c0-0.1,0-0.1-0.1-0.2c-0.1-0.1-0.1-0.1-0.2-0.1l-1.1-1.1c-0.9-0.8-1.6-1.9-1.9-3.1c-0.2-1.9-0.1-3.8,0.6-5.5c0-0.3,0-0.3-0.3-0.6
			c-0.3-0.3-0.6-0.6-0.8-0.6c-0.6-0.6-1.4-0.8-1.9-1.4l-2.8-1.9c-0.6-0.2-1.3-0.3-1.9-0.3c0-2.7,0.5-5.5,1.4-8c0,0-0.6,1.4,8.1,6.1
			c1.9,1.2,4.1,2.1,6.4,2.5c2.5,0.6,5.6-0.6,7.8,1.1c1,0.8,1.8,1.8,2.3,3c0.5,1.2,0.8,2.4,0.8,3.7c0.4,3.4,0.5,6.8,0.3,10.3
			c-0.6,6.6-0.8,13.3-0.6,20c0.6,6.4,0.7,12.8,0.3,19.1c-0.3,1.9,0.3,5.5-1.4,7.2c-1.1,1.1-2.6,1.7-4.2,1.7c-1.5,0.5-3,0.4-4.4-0.3
			c-1.4-1.1-1.1-3.9-1.4-5.5c-0.2-2.7-0.3-5.4-0.3-8C29.2,154.2,28.9,150.2,28.3,146.2z"/>
		<path class="st20" d="M37.5,165.4c0.3-6.4,0.2-12.8-0.3-19.1c-0.4-6.7-0.2-13.3,0.6-20v-5.5c0-1.2-0.2-2.4-0.6-3.6
			c-1.1,0.4-2.2,0.7-3.3,0.8c-1.3,0.3-2.6,0.3-3.9,0c-2.8-0.3-5.3-1.4-8.1-1.9c-2.6-0.3-5.1-1.3-7.2-2.8c-0.3-0.3-0.6-0.3-0.6-0.6
			c-0.6,0-0.6-0.3-0.6-0.6c-0.4-5.1,0.1-10.3,1.7-15.3c0,0-0.6,1.4,8.1,6.1c1.9,1.2,4.1,2.1,6.4,2.5c2.5,0.6,5.6-0.6,7.8,1.1
			c1,0.8,1.8,1.8,2.3,3c0.5,1.2,0.8,2.4,0.8,3.7c0.4,3.4,0.5,6.8,0.3,10.3c-0.6,6.6-0.8,13.3-0.6,20c0.6,6.4,0.7,12.8,0.3,19.1
			c-0.3,1.9,0.3,5.5-1.4,7.2c-0.7,0.6-1.6,1.1-2.5,1.4C37.4,169.4,37.7,167.3,37.5,165.4z"/>
		<path class="st21" d="M14.2,86.9c0.3,3.5,0.3,7,0,10.5c0,1.4-0.3,3.1-0.3,4.4c-0.2,1.3-0.3,2.6-0.3,3.9c0.3,1.1,0.6,1.9,0.8,3.1
			c0,0.3,0.3,0.8,0.3,1.1c0.4,0.9,1.1,1.7,1.9,2.2c1,0.5,2,0.9,3.1,1.1c5.9,2.2,12.4,2.2,18.3,0c0,0-1.7-15-0.6-16.9
			c1.1-1.9,7.2-10,7.5-14.4s1.1-8.6-3.6-12.2c-2.2-2-4.5-3.7-6.9-5.3c-1.7-1-3.5-2-5.3-2.8c-1.8-0.6-3.7-0.6-5.6,0
			c-2.7,0.4-5.1,1.6-7,3.6C13.9,67.7,13.4,75.1,14.2,86.9z"/>
		<path class="st22" d="M17,64c-0.7,0.7-1.4,1.4-1.9,2.2C14.4,67,13.9,68,13.6,69c-0.7,2.6-0.7,5.4-0.3,8c0.3,3.9,0,8,0,12.2v10.5
			c0,2.1-0.3,4.1-0.8,6.1c-0.1,0.9-0.1,1.9,0,2.8c0.1,1.1,0.6,2,1.4,2.8c1,0.6,2,1.2,3.1,1.7c0.3,0,2.5,0.6,2.5,0.8
			c-0.5-8.5-0.4-17,0.3-25.5c0.2-3.1,0.7-6.2,1.4-9.2c0.6-1.9,0.8-3.9,1.4-5.8c0.3-0.8,0.8-1.9,0.6-2.5c-0.3-0.6-0.6-0.6-0.8-0.6
			c-0.6-0.8-1-1.8-1.1-2.8c0-0.4-0.1-0.8-0.3-1.1c0-0.2,0-0.3,0-0.4s-0.1-0.3-0.2-0.4c-0.1-0.3-0.3-0.5-0.6-0.6
			c-0.2-0.1-0.5-0.2-0.8-0.2C18.9,64,17.5,63.3,17,64z"/>
		<path class="st17" d="M25,64.9c-2.6-0.7-5.3-1.2-8.1-1.4c1.4-1.6,3.2-2.8,5.3-3.3c2.2-0.3,4.4,0,6.4,0.8c1.8,0.8,3.6,1.7,5.3,2.8
			c3.1,1.6,6.1,3.5,8.9,5.5c4.2,3.6,3.3,7.5,3.6,12.2c0,0.6-1.9,0.8-2.2,1.4c-0.9,2.6-2.1,5.1-3.6,7.5c-0.4,0.7-0.9,1.3-1.4,1.9
			c-0.3,0.3-0.3,1.1-0.3,1.7v3.6c0,1.4,0.3,3.1,0.3,4.4c0,0.8,0.3,1.4,0.3,2.2s-0.8,2.2-0.6,3.3c0.3,1.1,0.8,1.9,0.6,2.8
			c-0.3,0.8,0,1.7-0.6,1.9c-0.6,0.3-0.8,0.3-1.4,0.6c-0.4,0.2-0.9,0.3-1.4,0.3c0,0-0.3-6.9-0.3-7.2v-7.8c-0.3-3.3-0.6-6.7-0.6-10.3
			c-0.1-1.5-0.1-3,0-4.4c0-1.6,0.2-3.2,0.6-4.7c0.1-2.2,0.5-4.4,1.4-6.4c0.3-0.7,0.8-1.2,1.4-1.7c0.8-0.8,0.8-1.1,0-1.9
			c-0.7-0.7-1.5-1.3-2.5-1.7c-1.1-0.6-2.2-1-3.3-1.4c-0.3,0-0.6-0.3-0.8-0.3C29.6,65.6,27.3,65.4,25,64.9z"/>
		<path class="st14" d="M38.1,125.1c0.3-0.3,0.6-0.8,1.1-1.1c0-0.1,0-0.1,0.1-0.2c0.1-0.1,0.1-0.1,0.2-0.1c0.6-0.8,1.4-1.1,1.7-1.9
			c0.3-0.8,0.5-1.5,0.5-2.4c0.3-3.6-0.6-10.5,0.3-14.4c0.8-3.9,7.2-1.1,7.2-1.1c0,3.6-0.7,7.2-1.9,10.5c-1.9,6.4-2.5,7.2-2.5,9.7
			c0,0.8,0.3,1.4-0.3,2.2c-0.3,0.3-0.3,1.1-0.8,1.7c-0.3,1-0.6,1.9-1.1,2.8c-0.3,0.8,0,0.8-2.2,1.7s-1.7-0.6-1.7-0.6H38
			c-0.1,0-0.3-0.1-0.4-0.2c-0.1-0.1-0.2-0.2-0.2-0.4l0.8-3.9c0-0.3,0-0.3-0.3-0.6c-0.8,0.6-2.2,1.7-2.8,1.4
			C35.3,127.4,37.5,126,38.1,125.1z"/>
		<path class="st23" d="M49.2,103.8c0,3.6-0.7,7.2-1.9,10.5c-1.9,6.4-2.5,7.2-2.5,9.7v1.9c-0.3-1.2-0.5-2.4-0.6-3.6
			c0.5-3,1.1-6,1.9-8.9c0.7-3.4,0.9-6.8,0.6-10.3C47.5,103.2,48.4,103.4,49.2,103.8z"/>
		<path class="st24" d="M38.9,70.2c0,0,5.8-2.5,7.2,5.5c1.4,8,1.4,11.1,2.5,17.2c1.1,6.1,1.1,7.5,1.4,9.2c-0.4,4.3-1.1,8.6-2.2,12.8
			c-1.1,4.2-2.2,7.2-2.2,7.2c-0.2-0.5-0.5-1-0.9-1.4c-0.4-0.3-1-0.5-1.6-0.6c-1.9,0-2.2,0.6-2.2,0.6l0.3-19.4c0,0-6.7-18.6-5.8-23
			C36.1,73.8,36.7,71,38.9,70.2z"/>
		<path class="st17" d="M43.1,72.4c0.6,0.3,1.1,0.6,0.8,1.1c0,0.2-0.1,0.4-0.3,0.6c-0.2,0.2-0.4,0.2-0.6,0.3
			c-1.2,0.3-2.3,0.8-3.3,1.4c-0.8,0.9-1.5,1.9-1.9,3.1c-0.3,1.1-0.5,2.2-0.6,3.3c-0.1,1-0.1,2,0,3.1c0.4,2.5,1,4.9,1.9,7.2
			c0.8,2.8,1.7,5.8,2.5,8.6c0,0-0.3,13.9-0.6,13.9v-13.6c-0.8-2.8-1.9-5.5-2.8-8.3c-0.8-2.3-1.4-4.6-1.9-6.9l-0.8-3.3
			c-0.1-1.2-0.1-2.4,0-3.6c0-1.7,0-4.4,1.4-5.5c0.9-0.6,1.9-1.1,2.9-1.2C40.9,72.1,42,72.1,43.1,72.4z"/>
		<path class="st17" d="M46.1,117.1c1-5.1,1.7-10.3,1.9-15.5c0-1.7-0.8-3.9-1.9-10.3s-1.7-7.5-3.1-15.5c-0.6-3.9-2.2-5.3-3.9-5.8
			c0.8-0.3,5.8-1.9,6.9,5.5c1.4,8.3,1.4,11.1,2.5,17.2c1.1,6.1,1.1,7.5,1.4,9.2c-0.4,4.3-1.1,8.6-2.2,12.8c-1.1,4.2-2.2,7.2-2.2,7.2
			c-0.2-0.4-0.5-0.8-0.8-1.1C45.4,119.6,45.9,118.4,46.1,117.1z"/>
		<path class="st25" d="M19.2,66c0.3-0.8,0.3-1.4,0.8-1.9l1.9-1.9l1.1-1.1c-2.7,0.3-5.1,1.6-6.9,3.6c-2.7,3.5-4,7.8-3.6,12.2
			c0.1,2.5,0.4,5,0.8,7.5v13.9c-0.5,3.7-0.7,7.4-0.6,11.1c0.8,2.5,4.7,5,13.6,6.7c3.2,0.6,6.5,0.6,9.7-0.3c1.6-0.4,3.1-1.1,4.4-1.9
			c0-2-0.2-4.1-0.6-6.1c-0.6-3.7-0.9-7.4-0.8-11.1V96l-0.3-1.5l-0.3-1.7c-0.2-0.5-0.4-0.9-0.6-1.4c-0.3-0.6-0.3-1.4-0.6-2.2
			c0-0.3-0.3-0.8-0.3-1.1c-0.9-3.7-0.7-7.5,0.6-11.1c0.1-0.6,0.4-1.2,0.8-1.7c0.9-1,2.1-1.7,3.5-2.1c1.3-0.4,2.7-0.4,4-0.1
			c-3.1-4-7.2-7.2-11.9-9.2c0,0.8,2.8,2.8,3.1,3.6c0.3,0.8-3.1,4.4-3.1,4.4c-0.9,0.8-1.8,1.6-2.8,2.2c-1,0.5-2,1-3.1,1.4
			c-0.3,0.3-0.8,0.3-1.1,0.6c-1.2,0.3-2.4,0.4-3.6,0.2c-1.2-0.2-2.3-0.6-3.4-1.3c-0.7-0.5-1.2-1.2-1.4-2c-0.3-0.8-0.4-1.6-0.2-2.4
			c-0.1-1,0-2.1,0.3-3.1C18.8,67,18.9,66.5,19.2,66z"/>
		<path class="st26" d="M46.7,121.8l1.1-4.4c-1.6,0.3-3.2,0.2-4.7-0.3c-0.9-0.4-1.7-1.1-2.2-1.9l-0.3,5.3c0.9,0.6,1.9,1.1,2.9,1.3
			C44.5,122,45.6,122,46.7,121.8z M10,104.6l2.2-3.3c-1.2-0.2-2.3-0.6-3.3-1.1c-0.5-0.3-1-0.7-1.4-1.2c-0.4-0.5-0.7-1-0.8-1.6
			l-1.9,4.2C4.7,101.8,5.9,104.3,10,104.6z"/>
		<path class="st27" d="M18.9,65.5c0-0.3,0.3-0.3,0.3-0.6c0-0.3,0.6-1.4,1.1-1.7c0.6-0.3,1.4-0.6,1.4,0c0,0.6-0.3,0.6-0.3,0.8
			c0,0.3-0.8,0.8-1.1,1.4C20,66.1,20,66.8,20,67.4c-0.3,1.3-0.3,2.6,0,3.9c0.3,1.1,1.1,1.7,2.2,2.2c0.6,0.3,1.4,0.6,1.9,0.8
			c1.7,0.3,3.4,0.2,5-0.3c1.1-0.3,2.1-0.8,3.1-1.4c1-0.6,2-1.3,2.8-2.2c0.9-0.9,1.5-2.1,1.7-3.3c0-0.4-0.1-0.7-0.2-1.1
			c-0.1-0.3-0.4-0.6-0.6-0.9l-0.3-0.3v-0.3c0-0.3-0.3-0.6-0.3-0.8c0-0.3,1.1,0.3,1.1,0.6c0.6,0.3,1.7,0.8,1.7,1.7
			c0.2,1.3,0,2.7-0.5,3.9c-0.5,1.2-1.4,2.3-2.6,3c-0.4,0.5-0.9,0.8-1.4,1.1c-0.6,0.5-1.2,0.8-1.9,1.1c-1.6,1-3.5,1.5-5.4,1.6
			c-1.9,0-3.8-0.4-5.5-1.3c-0.6-0.3-1.1-0.8-1.4-1.4c-0.5-1.2-0.9-2.4-1.1-3.6C18,68.8,18.2,67.1,18.9,65.5z"/>
		<path class="st25" d="M38.9,73.8l-1.1,1.1c-0.6,1.1-1,2.2-1.4,3.3c-0.4,1.8-0.7,3.7-0.8,5.5v5.5c0.3,0,0.6-0.3,0.8-0.3
			c0.3,0,0.8-0.3,1.4-0.6v0.4c0-0.6-0.3-0.8-0.3-1.4c0-0.6-0.3-1.7-0.6-2.5c-0.3-1.8-0.2-3.6,0.3-5.3c0.2-0.9,0.4-1.7,0.8-2.5
			c0-0.3,0.3-0.6,0.3-0.8c0-0.3,0.3-0.3,0.3-0.6c0-0.3,0.8-1.1,1.1-1.7l1.1-1.1c0.6-0.3,0.8-0.3,1.4-0.6c1.4-0.2,2.8-0.1,4.2,0.3
			v-0.3c0-0.1-0.1-0.3-0.2-0.4S46,72,45.8,72c-1-0.3-2.1-0.5-3.2-0.3c-1.1,0.1-2.1,0.5-3,1.1C39.5,73.2,39.2,73.5,38.9,73.8z
			 M35.3,96.8c-0.1,3.6,0.1,7.2,0.6,10.8c0.2,1.7,0.3,3.5,0.3,5.3c1.6-0.4,3.1-1.1,4.4-1.9c0-1.3-0.2-2.6-0.6-3.9
			c-0.5-3.9-0.8-7.8-0.8-11.7v-0.3c-1,0.5-2,0.8-3.1,1.1C35.8,96.6,35.6,96.8,35.3,96.8z"/>
		<path class="st28" d="M36.1,94.1c0.9-0.2,1.7-0.5,2.5-0.8v-0.6c-0.2-0.4-0.4-0.9-0.6-1.4c-0.6,0.3-1.3,0.5-1.9,0.6
			c-0.3,0-0.6,0.3-0.8,0.3v2.4c0.2,0,0.3,0,0.5-0.1C35.9,94.3,36,94.2,36.1,94.1z"/>
		<path class="st29" d="M33.9,64.9c0.3,0.8,0.3,1.1-0.3,1.7l-1.1,1.1c-0.6,0.6-1.1,0.8-1.7,1.4c-0.5,0.5-1.1,0.8-1.7,1.1
			c0.7-1.7,0.9-3.5,0.6-5.3c0-1.1-0.3-2.5-0.3-3.6v-0.1c0.2,0,0.3,0,0.4,0c0.1,0,0.3,0.1,0.4,0.2c0.8,0.2,1.6,0.7,2.2,1.3
			C33.2,63.4,33.6,64.1,33.9,64.9z"/>
		<path class="st30" d="M26.4,72.3c-1.7,0-3.4-0.5-4.7-1.7c-1.1-1.1-0.6-3.6-0.3-5c0.6-2.5,3.9-1.7,3.9-1.7H27
			c1.1,0,2.5-0.3,3.6-0.3h1.1c0.6,0,0.8-0.6,1.1-0.8c0.3-0.3,0.8,0,1.4,0c0.4,0.2,0.8,0.4,1.1,0.8c0.3,0.3,0.5,0.7,0.6,1.2
			c0.6,1.7-0.8,3.3-2.2,4.4c-1.4,1.5-3.3,2.4-5.3,2.8C27.7,72.2,27.1,72.3,26.4,72.3z"/>
		<path class="st31" d="M32.8,59.7v0.6c0,1,0,2.1,0.3,3.1c0,0.3,0.3,1.1,0,1.4c-0.3,0.3-0.6,0.6-0.8,0.6c-1.3,1-2.7,1.9-4.2,2.5
			c-3.9,1.4-5,0.6-5,0.6l-0.6-8l0.8-0.3c0.8-0.3,1.4-0.6,2.2-0.8c1.2-0.5,2.5-0.9,3.9-1.1h1.9c0.2,0,0.3,0,0.4,0
			c0.1,0,0.3,0.1,0.4,0.2c0.2,0.1,0.3,0.3,0.4,0.5c0.1,0.2,0.1,0.4,0.2,0.6C32.5,59.1,32.5,59.4,32.8,59.7z"/>
		<path class="st31" d="M30.3,61.3c-0.9-0.3-1.8-0.5-2.8-0.6c-0.9,0-1.9,0-2.8,0.3c-0.6,0.3-0.3,1.1-0.8,1.4
			c-0.6,0.3-1.1,0.3-1.7,0.6c-0.6,0.3-0.3,1.7,0,2.2v3.6c0.3,1.1,1.4,1.1,2.2,1.4c1.1,0.2,2.2,0.3,3.3,0.3c0.7-0.2,1.4-0.4,1.9-0.8
			c1.5-0.9,2.8-2,3.9-3.3c0.3-0.3,0-0.3,0-0.8c0-1-0.3-2-0.8-2.8C32,62.2,31.2,61.7,30.3,61.3z"/>
		<path class="st29" d="M32.5,58c0.6,0.2,1.1,0.6,1.4,1.1c0.3,0.6-0.3,1.7-0.3,2.2c0,0.9,0.1,1.9,0.3,2.8c0,0.6,0.3,1.1,0.3,1.9
			c0,0.4-0.2,0.8-0.4,1.1c-0.2,0.3-0.4,0.6-0.8,0.9c-0.8,0.6-1.4,1.1-2.2,1.7c-0.8,0.6-1.7,0.6-2.2,1.1c0.6-0.3,1.1-0.8,1.4-1.4
			c0.2-0.4,0.3-0.9,0.3-1.4c0-0.6,0.3-1.4-0.3-1.7c-0.3-0.2-0.7-0.3-1.1-0.3c-0.3,0-0.3,0.3-0.6,0.3c-1.8,0.3-3.7,0.5-5.6,0.6
			c-0.3,0-0.6,0-0.6-0.3c0-0.3,0-0.3,0.3-0.6c0.3-0.3,0.8-0.3,1.1-0.6c1.1-0.7,2.2-1.4,3.3-1.9c0.6-0.3,1.4-0.6,1.9-0.8
			c0.6-0.3,0.6-0.6,0.6-0.8v-1.4c0-0.6,0.3-0.8,0.3-1.4l0.3-1.4C30.9,57.7,31.7,57.8,32.5,58z"/>
		<path class="st32" d="M17,50.1v-0.3c0-0.6,0.1-1.2,0.4-1.8c0.2-0.6,0.6-1.1,1-1.5c0.5-0.8,1.1-1.4,1.9-1.9
			c0.8-0.5,1.6-0.8,2.5-0.9c1.8,0,3.6,0.3,5.2,1c1.6,0.7,3.1,1.8,4.3,3.1c0.3,0.3,0.3,0.6,0.6,0.6s0.3,0.6,0.3,0.8
			c1.7,3.9,6.4,4.7-1.7,13.3l-0.3,0.3c-0.1,0-0.1,0-0.2,0.1c-0.1,0.1-0.1,0.1-0.1,0.2l-0.3,0.3c-0.4,0.3-0.9,0.6-1.4,0.8
			c-1.3,1.1-2.8,1.8-4.4,2.2C22,67,19.5,66.2,19.2,64c-0.6-4.2-1.7-8-2.2-11.9V50.1z"/>
		<path class="st33" d="M18.6,46.6c0.8,0.6,1.1,0.3,1.1-0.6H20c1.3-0.5,2.7-0.8,4.2-0.8c1.1,0,2.2,0,3.3,0.3
			c1.7,0.3,3.4,1.1,4.7,2.2c0.3,0.3,0.3,0.6,0.6,0.6c0.3,0,0.3,0.6,0.3,0.8c1.7,3.9,6.4,4.7-1.7,13.3l-0.3,0.3c-0.1,0-0.1,0-0.2,0.1
			c-0.1,0.1-0.1,0.1-0.1,0.2l-0.3,0.3c-0.4,0.3-0.9,0.6-1.4,0.8c0.2-1.1,0.3-2.2,0.3-3.3v-1.4c0-0.6-0.3-0.8-0.6-1.4
			c-0.2-0.1-0.3-0.3-0.4-0.5c-0.1-0.2-0.1-0.4-0.2-0.6v-0.8c-0.3-1.1,0-2.5-0.3-3.6c-0.3-0.6-0.3-1.4-0.8-1.9
			c-0.3-0.4-0.7-0.7-1.1-1c-0.4-0.2-0.9-0.4-1.4-0.4h-3.1c-0.8,0-1.7-0.3-2.2-0.3c0,0-1.9,0-1.9-0.3C17.2,48.8,16.7,45.2,18.6,46.6z
			"/>
		<path class="st34" d="M18.6,44.5c1.1,0,1.1-0.8,2.2-1.9c1.8-1.7,4-2.9,6.4-3.5c1.4-0.3,2.8-0.2,4.2,0.3c1.4,0.4,2.6,1.2,3.6,2.2
			l0.3,0.3l0.3,0.3l0.3,0.3c0.3,0.3,0.6,0.7,0.8,1.1c0,0.1,0,0.1,0.1,0.2c0.1,0.1,0.1,0.1,0.2,0.1c0.6,0.8,0.9,1.8,0.8,2.8v2.2
			c-0.1,0.9-0.2,1.7-0.6,2.5l-0.8,2.5c0,0.3,0,0.3-0.3,0.6c0,1.1-0.2,2.3-0.6,3.3c-0.3,0.6-0.3,1.4-0.6,1.7l-1.1,1.1
			c0,0-0.8,0.6-1.4,1.1v-0.8c0.2-1.5,0.6-2.9,1.4-4.2c0.3-0.6,0.6-0.8,0.8-1.4v-0.8c-0.1-0.5-0.2-0.9-0.3-1.4
			c-0.6-0.8-1.9-0.6-2.5,0.3c-0.3,0.6-0.5,1.3-0.6,1.9c0,0.6-0.3,1.1-0.3,1.7v0.6c-0.6,0-0.8,0.3-1.4,0.3v-0.8
			c-0.3-1.7-0.6-3.1-0.8-4.7v-0.6c-0.6-2.8-3.6-3.9-8.6-3.9L16.4,48C16.1,47.5,15.3,44.5,18.6,44.5z"/>
		<path class="st35" d="M28.6,52.2v0.3c0.3,1.7,0.6,3.3,0.8,4.7V58c0.6,0,0.8-0.3,1.4-0.3v-0.8c-0.1-0.5,0-1,0.3-1.4
			c0.3-0.6,0.3-1.4,0.6-1.9c0.1-0.2,0.3-0.4,0.5-0.5c0.2-0.1,0.4-0.2,0.7-0.2c0.2,0,0.5,0,0.7,0.1c0.2,0.1,0.4,0.2,0.6,0.4
			c0.3,0.3,0.3,0.6,0.3,1.1v1.4c0,0.6-0.3,0.8-0.6,1.4c-0.9,1.2-1.4,2.7-1.4,4.2v0.6c0.5-0.3,1-0.7,1.4-1.1l1.1-1.1
			c0.3-0.6,0.3-1.1,0.6-1.7c0.3-1.1,0.6-2.2,0.8-3.1c0-0.3,0-0.3,0.3-0.6l0.8-2.5c0.3-0.8,0.3-1.7,0.6-2.5v-2.1
			c-0.3-0.8-0.6-1.9-0.8-2.8c0-0.1,0-0.1-0.1-0.2c-0.1-0.1-0.1-0.1-0.2-0.1c-0.8-0.8-1.1-1.4-1.1-1.7l-0.3-0.3l-0.3-0.3
			c0.3,0.3,0.3,0.6,0.6,0.6c0.4,1,0.4,2.2,0.2,3.2c-0.2,1.1-0.8,2.1-1.6,2.9c-0.7,0.5-1.4,1-2.2,1.4c-1.2,0.5-2.3,1.2-3.3,1.9
			C28.8,52,28.8,52.1,28.6,52.2c0,0,0,0.1,0,0.1V52.2z"/>
		<path class="st36" d="M36.1,112.9v2.5c1.6-0.4,3.1-1.1,4.4-1.9v-2.4c-1.4,0.8-2.9,1.5-4.4,1.9V112.9z"/>
		<path class="st27" d="M12.8,109c0.8,2.5,4.7,5,13.6,6.7c3.3,0.6,6.7,0.5,10-0.3v-2.5c-3.2,1-6.5,1-9.7,0.3
			c-8.9-1.7-12.8-4.2-13.6-6.7c-0.1-0.5-0.2-1.1-0.3-1.7C12.5,106.3,12.5,107.7,12.8,109z"/>
		<path class="st36" d="M35.3,96.8c0.3,0,0.6-0.3,0.8-0.3c1-0.3,2.1-0.7,3.1-1.1l-0.6-2.2c-0.8,0.4-1.6,0.6-2.5,0.8
			c-0.3,0-0.6,0.3-0.8,0.3V96.8z"/>
		<path class="st27" d="M13.4,91.3c1.4,2.2,5.6,4.2,13,5.5c3,0.5,6,0.4,8.9-0.3v-2.5c-2.9,0.7-5.9,0.8-8.9,0.3
			C18.9,93,15,91,13.4,88.8V91.3z"/>
		<path class="st36" d="M35.3,92.1c0.3,0,0.6-0.3,0.8-0.3c0.6-0.3,1.3-0.5,1.9-0.6v-0.6c-0.1-0.5-0.2-0.9-0.3-1.4v-0.3
			c-0.3,0.3-0.8,0.3-1.4,0.6c-0.6,0.3-0.6,0.3-0.8,0.3C35.3,90.6,35.2,91.4,35.3,92.1z"/>
		<path class="st27" d="M13.4,86.9c1.7,2.2,5.6,4.2,13,5.5c3,0.5,6.2,0.4,9.2-0.3v-2.5c-3,0.7-6.1,0.8-9.2,0.3
			c-7.2-1.4-11.4-3.3-13-5.5V86.9z"/>
	</g>
</g>
</svg>
