<?xml version="1.0" encoding="utf-8"?>
<!-- Generator: Adobe Illustrator 23.1.0, SVG Export Plug-In . SVG Version: 6.00 Build 0)  -->
<svg version="1.1" id="Layer_1" xmlns="http://www.w3.org/2000/svg" xmlns:xlink="http://www.w3.org/1999/xlink" x="0px" y="0px"
	 viewBox="0 0 179 150" style="enable-background:new 0 0 179 150;" xml:space="preserve">
<style type="text/css">
	.st0{fill:#A79D2D;}
	.st1{fill:#D4C931;}
	.st2{fill:#C2B92F;}
	.st3{fill:#E5C172;}
	.st4{clip-path:url(#SVGID_2_);}
	.st5{fill:#E9EEF0;}
	.st6{fill:#996932;}
	.st7{fill:#A87438;}
	.st8{fill:#1F1F1F;}
	.st9{fill:#825520;}
	.st10{fill:#42260B;}
	.st11{fill:#3D2003;}
	.st12{fill:#21AFDB;}
	.st13{fill:#EBEBEB;}
	.st14{fill:#E8B58F;}
	.st15{fill:#1C4059;}
	.st16{fill:#12344A;}
	.st17{fill:#32A6A0;}
	.st18{fill:#48C2C1;}
	.st19{fill:#1F4964;}
	.st20{fill:#133B54;}
	.st21{fill:#4FC2BE;}
	.st22{fill:#46B3B0;}
	.st23{fill:#E0AA82;}
	.st24{fill:#4DC2BF;}
	.st25{fill:#1EAAF1;}
	.st26{fill:#78D4C3;}
	.st27{fill:#F4FAFC;}
	.st28{fill:#20ABE2;}
	.st29{fill:#D98F6C;}
	.st30{fill:#51D6BE;}
	.st31{fill:#EAA685;}
	.st32{fill:#F0B88F;}
	.st33{fill:#DF9876;}
	.st34{fill:#A34512;}
	.st35{fill:#7D350E;}
	.st36{fill:#B8E0CA;}
</style>
<path class="st0" d="M134.3,111.1l5.6,3.2l-3.7,2.2L134.3,111.1z"/>
<path class="st1" d="M169.8,80L85.8,31.9l-5.9,10.6l15.8,46.6l64.4,36.9l15.8-28.6L169.8,80z"/>
<path class="st0" d="M145.6,78.5v1.7l-15.9-9.1v-9.9l1.2,0.7v8.2L145.6,78.5z"/>
<path class="st2" d="M145.6,70.4v8.1l-14.7-8.4v-8.2L145.6,70.4z"/>
<path class="st0" d="M167.8,92.9l-18.6-10.6v-9.9l1.2,0.7v8.1l16.6,9.6L167.8,92.9z"/>
<path class="st2" d="M167,90.8l-16.6-9.6v-8.1l12.7,7.2L167,90.8z"/>
<path class="st0" d="M106.6,56.1v1.7L88,47.2l4.7-7.1l0.3,0.2L89.2,46L106.6,56.1z"/>
<path class="st2" d="M106.6,48v8.1L89.2,46l3.9-5.7L106.6,48z"/>
<path class="st0" d="M126.1,67.2V69L110.2,60V50l1.2,0.7v8.1L126.1,67.2z"/>
<path class="st2" d="M126.1,59.1v8.1l-14.7-8.4v-8.1L126.1,59.1z"/>
<path class="st3" d="M173.1,78.1L89,30l-3.2,1.9L169.8,80L173.1,78.1z"/>
<path class="st0" d="M153.7,117.2l-0.7,1.3l-51.7-29.6L90.9,56.4l1.9,1l9.8,30.3L153.7,117.2z"/>
<path class="st2" d="M164.6,98.7l-10.8,18.5l-51.2-29.5l-9.8-30.3L164.6,98.7z"/>
<path class="st0" d="M173.1,78.1l-3.2,1.9l5.9,17.3l3.2-1.7L173.1,78.1z"/>
<path class="st3" d="M53.4,57.6l26.4-15.1l3.2,1.7L56.6,59.5L53.4,57.6z"/>
<path class="st0" d="M83.1,44.1L56.6,59.5l36.6,20.9L83.1,44.1z"/>
<path class="st1" d="M128,104.1L43.9,55.8L38,66.4L53.8,113l64.6,37l15.6-28.6L128,104.1z"/>
<path class="st0" d="M103.8,102.4v1.9l-15.9-9.1v-9.9l1.2,0.7V94L103.8,102.4z"/>
<path class="st2" d="M103.8,94.3v8.1L89,94v-8.1L103.8,94.3z"/>
<path class="st0" d="M126.1,117l-18.8-10.8v-9.9l1.4,0.7v8.2l16.4,9.4L126.1,117z"/>
<path class="st2" d="M125.1,114.7l-16.4-9.4V97l12.5,7.2L125.1,114.7z"/>
<path class="st0" d="M64.8,80v1.9L46.1,71.1L51,64l0.3,0.2l-4.1,5.9L64.8,80z"/>
<path class="st2" d="M64.8,71.9V80l-17.5-9.9l4.1-5.9L64.8,71.9z"/>
<path class="st0" d="M84.3,91.3v1.7l-15.9-9.1v-9.9l1.2,0.7v8.2L84.3,91.3z"/>
<path class="st2" d="M84.3,83.2v8.1l-14.7-8.4v-8.2L84.3,83.2z"/>
<path class="st0" d="M131.2,102.2l-3.2,1.9l5.9,17.3l3.2-1.9L131.2,102.2z"/>
<path class="st3" d="M131.2,102.2L47.2,54.1l-3.2,1.7l84.1,48.3L131.2,102.2z"/>
<path class="st0" d="M111.9,141.1l-0.7,1.3l-51.7-29.6L49,80.3l2,1.2l9.7,30.3L111.9,141.1z"/>
<path class="st2" d="M122.7,122.6l-10.8,18.5l-51.2-29.3L51,81.5L122.7,122.6z"/>
<path class="st0" d="M179,95.6l-45.1,25.7L118.3,150l44.9-25.8L179,95.6z"/>
<path class="st3" d="M136.1,116.5l36.4-20.9l3.2,1.7l-38.6,22.2L136.1,116.5z"/>
<g>
	<defs>
		<rect id="SVGID_1_" width="50" height="150"/>
	</defs>
	<clipPath id="SVGID_2_">
		<use xlink:href="#SVGID_1_"  style="overflow:visible;"/>
	</clipPath>
	<g class="st4">
		<path class="st5" d="M49.2,144.3c-1.1,6.7-11.9,7.8-24.4,2.8c-12.5-5-21.4-14.4-20.3-21.1c1.1-6.7,11.9-7.8,24.4-2.8
			C41.4,128.2,50.3,137.5,49.2,144.3z"/>
		<path class="st6" d="M37,122.2h-2.2c-1.1,0-3.6,0.6-3.6,1.9v2.2c0.1,1,0,2.1-0.3,3.1c0,1.4-1.1,2.5-1.9,3.9
			c-0.8,1.2-1.5,2.5-1.9,3.9c-0.5,0.9-0.8,2-0.8,3.1c0,1.3,0.3,2.7,0.8,3.9c0.2,0.3,0.5,0.6,0.9,0.8c0.3,0.2,0.7,0.3,1.1,0.3
			c0.4,0.2,0.9,0.3,1.4,0.3h0.8c1.5-0.4,2.7-1.3,3.6-2.5c0.6-0.6,0.8-1.1,1.4-1.7c0.5-0.8,0.9-1.6,1.1-2.5l0.6-1.7h0.3
			c0.3,0,1.1-1.4,1.1-1.7c0.3-0.6,0.6-1.3,0.8-1.9c0.3-0.6,0.6-0.8,0.6-1.4c0.2-0.9,0.3-1.8,0.3-2.8c0-0.8-0.3-1.4-0.3-2.2
			s0.3-1.1,0.3-1.9c0-0.8,0.6-1.9-0.3-2.5c-0.3-0.3-1.1-0.3-1.7-0.6c-0.6-0.3-1.1-0.3-1.7-0.6C37.2,122.2,37,122.2,37,122.2z"/>
		<path class="st7" d="M28.1,140c3.1,3.3,6.9-0.8,7.8-3.9c0.4-1.5,0.6-3.1,0.6-4.7c0-1.1,0.3-2.2,0.3-3.3c0-0.3-0.1-0.6-0.2-0.9
			c-0.1-0.3-0.4-0.5-0.6-0.7c-0.3-0.2-0.7-0.3-1.1-0.3c-0.6,0-1.1-0.3-1.7,0c-0.7,0.1-1.4,0.4-1.9,0.8h-0.3v0.3
			c0.2,1.9-0.2,3.9-1.1,5.5c-1.1,1.7-3.1,4.2-2.8,6.1C27.5,139.1,27.8,139.7,28.1,140z"/>
		<path class="st8" d="M35,135c0-0.8-0.8-1.1-1.4-1.7c-0.6-0.6-0.6-0.3-0.6-0.6c0-0.3-0.6-0.6-0.6-0.8c0.4-0.3,0.9-0.3,1.4-0.3h0.3
			c0.6,0,1.1-0.3,1.1-0.6c0-0.2,0-0.3,0-0.4s-0.1-0.3-0.2-0.4c-0.3-0.3-0.6-0.6-0.8-0.6h-0.3c-0.1,0-0.3-0.1-0.4-0.2
			c-0.1-0.1-0.2-0.2-0.2-0.4v-0.3c0.4-0.3,0.9-0.3,1.4-0.3H35c0.3,0,0.6,0,0.6-0.3c0-0.3,0.3-0.6,0.3-0.8c0-0.3-0.6-0.6-0.8-0.8
			l-0.3-0.3c-0.2-0.1-0.3-0.3-0.4-0.5c-0.1-0.2-0.1-0.4-0.1-0.6c0-0.3,0.3-0.6,0.8-0.6v-0.3c-0.3,0.3-0.8,0.6-0.8,0.8
			c0,0.3,0,0.5,0.1,0.8c0.1,0.2,0.3,0.5,0.5,0.6l0.3,0.3c0.3,0.3,0.6,0.6,0.6,0.8c0,0.1,0,0.1-0.1,0.2c-0.1,0.1-0.1,0.1-0.2,0.1
			h-0.8c-0.6,0-1.4,0-1.7,0.6c-0.3,0.6-0.3,0.3,0,0.6c0,0.1,0.1,0.3,0.2,0.4c0.1,0.1,0.2,0.2,0.4,0.2h0.3c0.3,0.3,0.6,0.3,0.8,0.6
			c0.2,0.1,0.2,0.3,0.3,0.6c0,0.3-0.6,0.3-1.1,0.3h-0.3c-0.5-0.1-1,0-1.4,0.3l-0.3,0.3v0.3c0,0.2,0.1,0.4,0.2,0.6
			c0.1,0.2,0.2,0.4,0.4,0.5c0.3,0.3,0.6,0.3,0.6,0.6c0.5,0,0.9,0.2,1.3,0.4C34.5,134.2,34.8,134.6,35,135z"/>
		<path class="st8" d="M31.1,133.6c0.8,0,1.7,0,2.5-0.3c0.2,0,0.4-0.1,0.6-0.3c0.2-0.2,0.2-0.4,0.3-0.6c0-0.6-0.3-0.8-0.8-1.1h-0.3
			l-0.3-0.3c-0.3,0-0.3-0.3-0.6-0.6v-0.8c0.3-0.3,0.6,0,1.1,0h0.3c0.2,0,0.3,0,0.4,0c0.1,0,0.3-0.1,0.4-0.2c0.1-0.2,0.2-0.4,0.2-0.6
			c0-0.2-0.1-0.4-0.2-0.6c-0.3-0.3-0.6-0.3-0.8-0.6h-0.3c-0.3-0.3-0.6-0.3-0.6-0.6v-0.3h0.3c0.7,0,1.3-0.1,1.9-0.3
			c0.1,0,0.1,0,0.2-0.1c0.1-0.1,0.1-0.1,0.1-0.2v-0.3c-0.1-1.1-0.6-2.2-1.4-3.1l-0.3,0.3c0.7,0.7,1.1,1.7,1.1,2.8v0.3h-0.3
			c-0.5,0.2-1.1,0.3-1.7,0.3h-0.6c-0.3,0.3-0.3,0.3-0.3,0.6c0,0.3,0.3,0.6,0.8,0.8h0.3c0.2,0,0.4,0.1,0.6,0.3c0.1,0,0.1,0.1,0.2,0.2
			c0,0.1,0.1,0.2,0.1,0.2s0,0.2-0.1,0.2c0,0.1-0.1,0.1-0.2,0.2c-0.3,0.3-0.3,0.3-0.6,0.3H33c-0.6,0-0.8,0-1.1,0.3
			c-0.2,0.3-0.3,0.7-0.3,1.1c0,0.3,0.3,0.3,0.6,0.6h0.6c0.3,0.3,0.6,0.6,0.6,0.8c0,0.3-0.3,0.3-0.6,0.6c-1,0.2-2,0.3-3.1,0.3v0.3
			C30.2,133.4,30.6,133.5,31.1,133.6z"/>
		<path class="st9" d="M8.3,128.6c-0.3,2.2,1.1,2.8,3.1,2.8c1.4,0.1,2.8-0.1,4.2-0.6c0.8-0.3,3.3-0.8,3.9-1.7
			c0.3-0.4,0.6-0.7,0.8-1.1l1.1-0.6v0.8c0.9-0.2,1.7-0.5,2.5-0.8c1.1-0.3,2.1-1,2.8-1.9c0.1-1,0.1-2,0-3.1c0.1-1.4,0.1-2.8,0-4.2
			c0.1-0.5,0-1-0.2-1.5c-0.2-0.5-0.5-0.9-0.9-1.3c-0.3-0.3-0.8-0.3-1.1-0.6c-0.9-0.2-1.8-0.3-2.8-0.3h-2.8c-0.8,0-1.7,0.8-2.2,1.4
			c-0.4,0.8-0.6,1.6-0.6,2.5c0,0.8,0,2.2-0.6,2.8c0,0.8-1.1,1.1-1.9,1.7c-0.7,0.4-1.5,0.8-2.2,1.1c-0.8,0.5-1.5,1.1-2,1.9
			C8.8,126.8,8.5,127.7,8.3,128.6z"/>
		<path class="st10" d="M26.1,140.2c-0.1,1.1,0.2,2.2,0.8,3.1c0.2,0.3,0.5,0.6,0.9,0.8c0.3,0.2,0.7,0.3,1.1,0.3
			c0.4,0.2,0.9,0.3,1.4,0.3h0.8c1.5-0.4,2.7-1.3,3.6-2.5c0.6-0.6,0.8-1.1,1.4-1.7c0.5-0.7,0.9-1.6,1.1-2.5l0.6-1.7h0.3
			c0.3,0,1.1-1.4,1.1-1.7c0.3-0.6,0.6-1.3,0.8-1.9c0.3-0.6,0.6-0.8,0.6-1.4c0.1-0.5,0.2-0.9,0.3-1.4c0.1,0.8,0,1.5-0.3,2.2
			c0,0.6-0.6,0.8-0.6,1.4c0,0.6-0.6,1.4-0.8,1.9c-0.3,0.6-0.8,1.7-1.1,1.7h-0.3l-0.6,1.7c-0.3,0.9-0.6,1.7-1.1,2.5
			c-0.4,0.6-0.8,1.2-1.4,1.7c-1,1.1-2.2,1.9-3.6,2.5h-0.8c-0.5,0.1-1,0-1.4-0.3c-0.6-0.3-1.7-0.6-1.9-1.1
			C26.4,142.9,26.1,141.6,26.1,140.2z"/>
		<path class="st11" d="M11.4,130.4c1.4,0.1,2.8-0.1,4.2-0.6c0.8-0.3,3.3-0.8,3.9-1.7c0.3-0.4,0.6-0.7,0.8-1.1l1.1-0.6v0.8
			c0.9-0.2,1.7-0.5,2.5-0.8c1.1-0.3,2.1-1,2.8-1.9v0.8c-0.7,1-1.7,1.6-2.8,1.9c-0.8,0.4-1.6,0.6-2.5,0.8v-0.8l-1.1,0.6
			c-0.3,0.3-0.6,0.7-0.8,1.1c-0.6,0.8-2.8,1.4-3.9,1.7c-1.3,0.4-2.8,0.6-4.2,0.6c-1.9,0-3.1-0.6-3.1-2.8h0
			C8.6,130,9.7,130.4,11.4,130.4z"/>
		<path class="st8" d="M14.5,124.1l-0.3-1.1v-0.3h0.3c0.6,0,1.1-0.1,1.7-0.3c0.3-0.1,0.5-0.3,0.6-0.6c0.1-0.2,0.2-0.5,0.2-0.8
			c0-0.3,0-0.3-0.3-0.6c-0.3-0.3-0.3-0.3-0.3-0.6c0-0.3,0.3-0.3,0.6-0.3c0.2,0,0.3,0,0.4,0c0.1,0,0.3-0.1,0.4-0.2
			c0.3-0.3,0.3-0.6,0.3-1.1s-0.3-0.6-0.6-0.8l-0.3-0.3c0,0,0-0.1,0-0.1c0,0,0-0.1,0.1-0.1c0,0,0.1,0,0.1-0.1c0,0,0.1,0,0.1,0
			l0.3-0.3h-0.3c0,0.1,0,0.1-0.1,0.2c-0.1,0.1-0.1,0.1-0.2,0.1c-0.2,0.1-0.2,0.3-0.3,0.6c0,0.3,0,0.3,0.3,0.6
			c0.3,0.3,0.3,0.6,0.6,0.8v0.8c-0.1,0.1-0.2,0.2-0.4,0.2c-0.1,0-0.3,0.1-0.4,0c-0.3-0.6-0.6-0.6-0.8-0.3c0,0.2,0,0.3,0,0.4
			s0.1,0.3,0.2,0.4l0.3,0.3c0,0.2-0.1,0.4-0.2,0.6c-0.1,0.2-0.2,0.4-0.4,0.5c-0.4,0.3-0.9,0.3-1.4,0.3h-0.3c-0.3,0-0.3,0.3,0,0.8
			V124.1z"/>
		<path class="st8" d="M15.3,123.3c0.3,0,0.6-0.3,0.8-0.3c0.3,0,0.3-0.3,0.3-0.6c0-0.2-0.1-0.4-0.3-0.6c0-0.3-0.3-0.6,0-0.6
			c0.3,0,0.3-0.3,0.6-0.3h0.8c0.3,0,0.6-0.3,0.8-0.6c0.1,0,0.1-0.1,0.2-0.2c0-0.1,0.1-0.2,0.1-0.2s0-0.2-0.1-0.2
			c0-0.1-0.1-0.1-0.2-0.2c0-0.1-0.1-0.3-0.2-0.4c-0.1-0.1-0.2-0.2-0.4-0.2l-0.3-0.3c-0.1-0.1-0.2-0.2-0.2-0.4c0-0.1-0.1-0.3,0-0.4
			c0-0.3,0.3-0.3,0.6-0.6h0.8c0.3,0,0.6-0.1,0.9-0.2c0.3-0.1,0.5-0.4,0.7-0.6l-0.3-0.3c-0.2,0.3-0.4,0.5-0.7,0.7
			c-0.3,0.1-0.6,0.2-1,0.2h-0.8c-0.3,0-0.6,0.3-0.8,0.6c0,0.4,0.1,0.8,0.3,1.1l0.3,0.3c0.3,0.3,0.3,0.3,0.3,0.6v0.8
			c0,0.3-0.3,0.3-0.6,0.6h-0.6c-0.3,0-0.6,0.3-0.8,0.3v0.8c0,0.3,0.3,0.3,0.3,0.6c0,0.3,0,0.3-0.3,0.6
			C15.9,123,15.6,123.3,15.3,123.3c-0.6-0.3-0.8-0.6-1.4-0.8l-0.3,0.3C14.1,123.1,14.7,123.3,15.3,123.3z"/>
		<path class="st12" d="M44.7,34.8c0.2,1.2,0.6,2.3,1.1,3.3c0,0.1,0,0.1,0.1,0.2c0.1,0.1,0.1,0.1,0.2,0.1c0.1,0,0.1,0,0.2-0.1
			c0.1-0.1,0.1-0.1,0.1-0.2c0.2-0.8,0.3-1.7,0.3-2.5c0-0.8-0.3-2.2-1.4-2.5h-0.6V34.8z"/>
		<path class="st13" d="M23.6,117.2C23.6,116.9,23.3,116.9,23.6,117.2L23.6,117.2z"/>
		<path class="st14" d="M2.8,65.9c0.7-0.6,1.4-1.2,2.2-1.7c0-0.3,0-0.3,0.3-0.6c0.6-0.8,1-1.6,1.4-2.5c0.8-1.7,1.4-3.3,2.2-5
			c1.1-2.5,3.1-9.2,3.1-9.2c4.7-1.4,5,4.7,4.2,6.1c-0.8,1.4-2.2,2.8-3.1,4.4c-0.8,1.1-1.4,2.5-2.2,3.9c-0.3,0.3-0.3,0.8-0.6,1.1
			C10,62.8,10,63.1,10,63.4c-0.3,0.8-0.6,1.4-0.8,2.2c-0.3,0.8,0,1.7-0.3,2.5c0,0.3,0,0.6-0.2,0.8c-0.2,0.3-0.4,0.4-0.7,0.5
			c-0.5,1.2-1.2,2.3-1.9,3.3c-0.6,0.8-0.3,0.8-2.2,0.8c-1.9,0-1.4-1.1-1.4-1.1l-0.6-0.3c-0.1,0-0.1-0.1-0.2-0.1
			c-0.1-0.1-0.1-0.1-0.1-0.2c0-0.1,0-0.2,0-0.2c0-0.1,0-0.2,0.1-0.2l1.4-3.6c0-0.2-0.1-0.4-0.3-0.6c-0.8,0.3-2.2,0.8-2.8,0.6
			C-0.2,67,2,66.6,2.8,65.9z"/>
		<path class="st15" d="M19.7,69.5c0.2-0.4,0.3-0.8,0.3-1.3c-0.1-0.5-0.2-0.9-0.6-1.2c0.3-0.3,0.3-0.6,0.3-1.1
			c0.4,0.1,0.8,0.3,1.1,0.6c1.8,1.3,3.2,3.1,3.9,5.3c0.3,0.3,0.3,0.8,0.6,1.1c1.1,2.8,0.3,6.1,0.3,9.2c-0.3,3.8,0,7.6,0.8,11.4
			c1.3,5.1,1.8,10.3,1.4,15.5c-0.3,4.2,0,11.7,0,11.7c-0.6,0.8-1.4,1.4-2.4,1.8c-0.9,0.4-1.9,0.5-2.9,0.5c-1.4,0.1-2.7-0.3-3.9-1.1
			c-0.6-0.2-1.1-0.7-1.4-1.2s-0.4-1.2-0.3-1.8c0.3-3.9,0-7.8,0-11.7c-0.6-3.3-0.8-6.7-1.4-9.7c-0.6-3.4-1-6.8-1.1-10.3
			c-0.3-2.8-1.7-12.5-0.8-16.4C15.6,70.9,18.6,71.4,19.7,69.5z"/>
		<path class="st16" d="M24.7,111.7c0.4-5.2,0-10.5-1.4-15.5c-0.7-3.7-1-7.6-0.8-11.4c0-2.8,0.8-6.4-0.3-9.2c0-0.6-0.3-0.8-0.3-1.4
			c-0.7-1.5-1.5-2.9-2.5-4.2l0.6-0.6c0.2-0.4,0.3-0.8,0.3-1.3c-0.1-0.5-0.2-0.9-0.6-1.2c0.3-0.3,0.3-0.6,0.3-1.1
			c0.4,0.1,0.8,0.3,1.1,0.6c1.8,1.3,3.2,3.2,3.9,5.3c0.3,0.3,0.3,0.8,0.6,1.1c1.1,2.8,0.3,6.1,0.3,9.2c-0.3,3.8,0,7.6,0.8,11.4
			c1.3,5.1,1.8,10.3,1.4,15.5c-0.3,4.2,0,11.7,0,11.7c-0.7,1-1.8,1.7-3.1,1.9C24.5,118.9,24.4,115.3,24.7,111.7z"/>
		<path class="st17" d="M20.8,23.4c-0.9-0.2-1.9-0.2-2.8-0.1c-0.9,0.2-1.8,0.6-2.5,1.2c-1.9,2.2-1.9,3.6-1.9,8c0,4.4,0.2,9,0.2,9
			L5.8,62.1c1.6,0.5,3,1.6,3.9,3.1c0.3,0.6,5.3-9.2,5.8-9.7C21.1,49.9,25.3,24.3,20.8,23.4z"/>
		<path class="st18" d="M13.9,28.7c0.2-1.4,0.9-2.8,2-3.7c0.7-0.6,1.6-1.1,2.5-1.3c0.9-0.2,1.9-0.1,2.8,0.2c0.8,0,1.1,1.1,1.4,2.5
			c-1.4,0.1-2.8,0.1-4.2,0c-0.7,0-1.4,0.2-2,0.6c-0.6,0.3-1.2,0.8-1.6,1.4C14.2,28.2,13.9,28.4,13.9,28.7z"/>
		<path class="st19" d="M28.3,107.2c-0.3-2.5-1.4-5.3-1.7-7.8c-0.6-3.3-1.1-8.6-1.4-11.9c0-2-0.2-3.9-0.6-5.8v-0.6
			c0-0.1,0-0.1-0.1-0.2c-0.1-0.1-0.1-0.1-0.2-0.1l-1.1-1.1c-0.9-0.8-1.6-1.9-1.9-3.1c-0.2-1.9-0.1-3.8,0.6-5.5c0-0.3,0-0.3-0.3-0.6
			c-0.3-0.3-0.6-0.6-0.8-0.6c-0.6-0.6-1.4-0.8-1.9-1.4l-2.8-1.9c-0.6-0.2-1.3-0.3-1.9-0.3c0-2.7,0.5-5.5,1.4-8c0,0-0.6,1.4,8.1,6.1
			c1.9,1.2,4.1,2.1,6.4,2.5c2.5,0.6,5.6-0.6,7.8,1.1c1,0.8,1.8,1.8,2.3,3c0.5,1.2,0.8,2.4,0.8,3.7c0.4,3.4,0.5,6.8,0.3,10.3
			c-0.6,6.6-0.8,13.3-0.6,20c0.6,6.4,0.7,12.8,0.3,19.1c-0.3,1.9,0.3,5.5-1.4,7.2c-1.1,1.1-2.6,1.7-4.2,1.7c-1.5,0.5-3,0.4-4.4-0.3
			c-1.4-1.1-1.1-3.9-1.4-5.5c-0.2-2.7-0.3-5.4-0.3-8C29.2,115.2,28.9,111.2,28.3,107.2z"/>
		<path class="st20" d="M37.5,126.4c0.3-6.4,0.2-12.8-0.3-19.1c-0.4-6.7-0.2-13.3,0.6-20v-5.5c0-1.2-0.2-2.4-0.6-3.6
			c-1.1,0.4-2.2,0.7-3.3,0.8c-1.3,0.3-2.6,0.3-3.9,0c-2.8-0.3-5.3-1.4-8.1-1.9c-2.6-0.3-5.1-1.3-7.2-2.8c-0.3-0.3-0.6-0.3-0.6-0.6
			c-0.6,0-0.6-0.3-0.6-0.6c-0.4-5.1,0.1-10.3,1.7-15.3c0,0-0.6,1.4,8.1,6.1c1.9,1.2,4.1,2.1,6.4,2.5c2.5,0.6,5.6-0.6,7.8,1.1
			c1,0.8,1.8,1.8,2.3,3c0.5,1.2,0.8,2.4,0.8,3.7c0.4,3.4,0.5,6.8,0.3,10.3c-0.6,6.6-0.8,13.3-0.6,20c0.6,6.4,0.7,12.8,0.3,19.1
			c-0.3,1.9,0.3,5.5-1.4,7.2c-0.7,0.6-1.6,1.1-2.5,1.4C37.4,130.4,37.7,128.3,37.5,126.4z"/>
		<path class="st21" d="M14.2,47.9c0.3,3.5,0.3,7,0,10.5c0,1.4-0.3,3.1-0.3,4.4c-0.2,1.3-0.3,2.6-0.3,3.9c0.3,1.1,0.6,1.9,0.8,3.1
			c0,0.3,0.3,0.8,0.3,1.1c0.4,0.9,1.1,1.7,1.9,2.2c1,0.5,2,0.9,3.1,1.1c5.9,2.2,12.4,2.2,18.3,0c0,0-1.7-15-0.6-16.9
			c1.1-1.9,7.2-10,7.5-14.4s1.1-8.6-3.6-12.2c-2.2-2-4.5-3.7-6.9-5.3c-1.7-1-3.5-2-5.3-2.8c-1.8-0.6-3.7-0.6-5.6,0
			c-2.7,0.4-5.1,1.6-7,3.6C13.9,28.7,13.4,36.1,14.2,47.9z"/>
		<path class="st22" d="M17,25c-0.7,0.7-1.4,1.4-1.9,2.2C14.4,28,13.9,29,13.6,30c-0.7,2.6-0.7,5.4-0.3,8c0.3,3.9,0,8,0,12.2v10.5
			c0,2.1-0.3,4.1-0.8,6.1c-0.1,0.9-0.1,1.9,0,2.8c0.1,1.1,0.6,2,1.4,2.8c1,0.6,2,1.2,3.1,1.7c0.3,0,2.5,0.6,2.5,0.8
			c-0.5-8.5-0.4-17,0.3-25.5c0.2-3.1,0.7-6.2,1.4-9.2c0.6-1.9,0.8-3.9,1.4-5.8c0.3-0.8,0.8-1.9,0.6-2.5c-0.3-0.6-0.6-0.6-0.8-0.6
			c-0.6-0.8-1-1.8-1.1-2.8c0-0.4-0.1-0.8-0.3-1.1c0-0.2,0-0.3,0-0.4c0-0.1-0.1-0.3-0.2-0.4c-0.1-0.3-0.3-0.5-0.6-0.6
			c-0.2-0.1-0.5-0.2-0.8-0.2C18.9,25,17.5,24.3,17,25z"/>
		<path class="st17" d="M25,25.9c-2.6-0.7-5.3-1.2-8.1-1.4c1.4-1.6,3.2-2.8,5.3-3.3c2.2-0.3,4.4,0,6.4,0.8c1.8,0.8,3.6,1.7,5.3,2.8
			c3.1,1.6,6.1,3.5,8.9,5.5c4.2,3.6,3.3,7.5,3.6,12.2c0,0.6-1.9,0.8-2.2,1.4c-0.9,2.6-2.1,5.1-3.6,7.5c-0.4,0.7-0.9,1.3-1.4,1.9
			c-0.3,0.3-0.3,1.1-0.3,1.7v3.6c0,1.4,0.3,3.1,0.3,4.4c0,0.8,0.3,1.4,0.3,2.2s-0.8,2.2-0.6,3.3c0.3,1.1,0.8,1.9,0.6,2.8
			c-0.3,0.8,0,1.7-0.6,1.9c-0.6,0.3-0.8,0.3-1.4,0.6c-0.4,0.2-0.9,0.3-1.4,0.3c0,0-0.3-6.9-0.3-7.2v-7.8c-0.3-3.3-0.6-6.7-0.6-10.3
			c-0.1-1.5-0.1-3,0-4.4c0-1.6,0.2-3.2,0.6-4.7c0.1-2.2,0.5-4.4,1.4-6.4c0.3-0.7,0.8-1.2,1.4-1.7c0.8-0.8,0.8-1.1,0-1.9
			c-0.7-0.7-1.5-1.3-2.5-1.7c-1.1-0.6-2.2-1-3.3-1.4c-0.3,0-0.6-0.3-0.8-0.3C29.6,26.6,27.3,26.4,25,25.9z"/>
		<path class="st14" d="M38.1,86.1c0.3-0.3,0.6-0.8,1.1-1.1c0-0.1,0-0.1,0.1-0.2c0.1-0.1,0.1-0.1,0.2-0.1c0.6-0.8,1.4-1.1,1.7-1.9
			c0.3-0.8,0.5-1.6,0.5-2.4c0.3-3.6-0.6-10.5,0.3-14.4c0.8-3.9,7.2-1.1,7.2-1.1c0,3.6-0.7,7.2-1.9,10.5c-1.9,6.4-2.5,7.2-2.5,9.7
			c0,0.8,0.3,1.4-0.3,2.2c-0.3,0.3-0.3,1.1-0.8,1.7c-0.3,1-0.6,1.9-1.1,2.8c-0.3,0.8,0,0.8-2.2,1.7c-2.2,0.8-1.7-0.6-1.7-0.6H38
			c-0.1,0-0.3-0.1-0.4-0.2c-0.1-0.1-0.2-0.2-0.2-0.4l0.8-3.9c0-0.3,0-0.3-0.3-0.6c-0.8,0.6-2.2,1.7-2.8,1.4
			C35.3,88.4,37.5,87,38.1,86.1z"/>
		<path class="st23" d="M49.2,64.8c0,3.6-0.7,7.2-1.9,10.5c-1.9,6.4-2.5,7.2-2.5,9.7V87c-0.3-1.2-0.5-2.4-0.6-3.6
			c0.5-3,1.1-6,1.9-8.9c0.7-3.4,0.9-6.8,0.6-10.3C47.5,64.2,48.4,64.4,49.2,64.8z"/>
		<path class="st24" d="M38.9,31.2c0,0,5.8-2.5,7.2,5.5s1.4,11.1,2.5,17.2s1.1,7.5,1.4,9.2c-0.4,4.3-1.1,8.6-2.2,12.8
			c-1.1,4.2-2.2,7.2-2.2,7.2c-0.2-0.5-0.5-1-0.9-1.4c-0.4-0.3-1-0.5-1.6-0.6c-1.9,0-2.2,0.6-2.2,0.6l0.3-19.4c0,0-6.7-18.6-5.8-23
			C36.1,34.8,36.7,32,38.9,31.2z"/>
		<path class="st17" d="M43.1,33.4c0.6,0.3,1.1,0.6,0.8,1.1c0,0.2-0.1,0.4-0.3,0.6c-0.2,0.2-0.4,0.2-0.6,0.3
			c-1.2,0.3-2.3,0.8-3.3,1.4c-0.8,0.9-1.5,1.9-1.9,3.1c-0.3,1.1-0.5,2.2-0.6,3.3c-0.1,1-0.1,2,0,3.1c0.4,2.5,1,4.9,1.9,7.2
			c0.8,2.8,1.7,5.8,2.5,8.6c0,0-0.3,13.9-0.6,13.9V62.3c-0.8-2.8-1.9-5.5-2.8-8.3c-0.8-2.3-1.4-4.6-1.9-6.9l-0.8-3.3
			c-0.1-1.2-0.1-2.4,0-3.6c0-1.7,0-4.4,1.4-5.5c0.9-0.6,1.9-1.1,2.9-1.2C40.9,33.1,42,33.1,43.1,33.4z"/>
		<path class="st17" d="M46.1,78.1c1-5.1,1.7-10.3,1.9-15.5c0-1.7-0.8-3.9-1.9-10.3s-1.7-7.5-3.1-15.5c-0.6-3.9-2.2-5.3-3.9-5.8
			c0.8-0.3,5.8-1.9,6.9,5.5c1.4,8.3,1.4,11.1,2.5,17.2s1.1,7.5,1.4,9.2c-0.4,4.3-1.1,8.6-2.2,12.8c-1.1,4.2-2.2,7.2-2.2,7.2
			c-0.2-0.4-0.5-0.8-0.8-1.1C45.4,80.6,45.9,79.4,46.1,78.1z"/>
		<path class="st25" d="M19.2,27c0.3-0.8,0.3-1.4,0.8-1.9l1.9-1.9l1.1-1.1c-2.7,0.3-5.1,1.6-6.9,3.6c-2.7,3.5-4,7.8-3.6,12.2
			c0.1,2.5,0.4,5,0.8,7.5v13.9c-0.5,3.7-0.7,7.4-0.6,11.1c0.8,2.5,4.7,5,13.6,6.7c3.2,0.6,6.5,0.6,9.7-0.3c1.6-0.4,3.1-1.1,4.4-1.9
			c0-2-0.2-4.1-0.6-6.1c-0.6-3.7-0.9-7.4-0.8-11.1V57l-0.3-1.5l-0.3-1.7c-0.2-0.5-0.4-0.9-0.6-1.4c-0.3-0.6-0.3-1.4-0.6-2.2
			c0-0.3-0.3-0.8-0.3-1.1c-0.9-3.7-0.7-7.5,0.6-11.1c0.1-0.6,0.4-1.2,0.8-1.7c0.9-1,2.1-1.7,3.5-2.1c1.3-0.4,2.7-0.4,4-0.1
			c-3.1-4-7.2-7.2-11.9-9.2c0,0.8,2.8,2.8,3.1,3.6c0.3,0.8-3.1,4.4-3.1,4.4c-0.9,0.8-1.8,1.6-2.8,2.2c-1,0.5-2,1-3.1,1.4
			c-0.3,0.3-0.8,0.3-1.1,0.6c-1.2,0.3-2.4,0.4-3.6,0.2c-1.2-0.2-2.3-0.6-3.4-1.3c-0.7-0.5-1.2-1.2-1.4-2c-0.3-0.8-0.4-1.6-0.2-2.4
			c-0.1-1,0-2.1,0.3-3.1C18.8,28,18.9,27.5,19.2,27z"/>
		<path class="st26" d="M46.7,82.8l1.1-4.4c-1.6,0.3-3.2,0.2-4.7-0.3c-0.9-0.4-1.7-1.1-2.2-1.9l-0.3,5.3c0.9,0.6,1.9,1.1,2.9,1.3
			C44.5,83,45.6,83,46.7,82.8z M10,65.6l2.2-3.3c-1.2-0.2-2.3-0.6-3.3-1.1c-0.5-0.3-1-0.7-1.4-1.2c-0.4-0.5-0.7-1-0.8-1.6l-1.9,4.2
			C4.7,62.8,5.9,65.3,10,65.6z"/>
		<path class="st27" d="M18.9,26.5c0-0.3,0.3-0.3,0.3-0.6c0-0.3,0.6-1.4,1.1-1.7c0.6-0.3,1.4-0.6,1.4,0c0,0.6-0.3,0.6-0.3,0.8
			c0,0.3-0.8,0.8-1.1,1.4C20,27.1,20,27.8,20,28.4c-0.3,1.3-0.3,2.6,0,3.9c0.3,1.1,1.1,1.7,2.2,2.2c0.6,0.3,1.4,0.6,1.9,0.8
			c1.7,0.3,3.4,0.2,5-0.3c1.1-0.3,2.1-0.8,3.1-1.4c1-0.6,2-1.3,2.8-2.2c0.9-0.9,1.5-2.1,1.7-3.3c0-0.4-0.1-0.7-0.2-1.1
			c-0.1-0.3-0.4-0.6-0.6-0.9l-0.3-0.3v-0.3c0-0.3-0.3-0.6-0.3-0.8c0-0.3,1.1,0.3,1.1,0.6c0.6,0.3,1.7,0.8,1.7,1.7
			c0.2,1.3,0,2.7-0.5,3.9c-0.5,1.2-1.4,2.3-2.6,3c-0.4,0.5-0.9,0.8-1.4,1.1c-0.6,0.5-1.2,0.8-1.9,1.1c-1.6,1-3.5,1.5-5.4,1.6
			c-1.9,0-3.8-0.4-5.5-1.3c-0.6-0.3-1.1-0.8-1.4-1.4c-0.5-1.2-0.9-2.4-1.1-3.6C18,29.8,18.2,28.1,18.9,26.5z"/>
		<path class="st25" d="M38.9,34.8l-1.1,1.1c-0.6,1.1-1,2.2-1.4,3.3c-0.4,1.8-0.7,3.7-0.8,5.5v5.5c0.3,0,0.6-0.3,0.8-0.3
			c0.3,0,0.8-0.3,1.4-0.6v0.4c0-0.6-0.3-0.8-0.3-1.4c0-0.6-0.3-1.7-0.6-2.5c-0.3-1.8-0.2-3.6,0.3-5.3c0.2-0.9,0.4-1.7,0.8-2.5
			c0-0.3,0.3-0.6,0.3-0.8s0.3-0.3,0.3-0.6c0-0.3,0.8-1.1,1.1-1.7l1.1-1.1c0.6-0.3,0.8-0.3,1.4-0.6c1.4-0.2,2.8-0.1,4.2,0.3v-0.3
			c0-0.1-0.1-0.3-0.2-0.4C46.1,33.1,46,33,45.8,33c-1-0.3-2.1-0.5-3.2-0.3c-1.1,0.1-2.1,0.5-3,1.1C39.5,34.2,39.2,34.5,38.9,34.8z
			 M35.3,57.8c-0.1,3.6,0.1,7.2,0.6,10.8c0.2,1.7,0.3,3.5,0.3,5.3c1.6-0.4,3.1-1.1,4.4-1.9c0-1.3-0.2-2.6-0.6-3.9
			c-0.5-3.9-0.8-7.8-0.8-11.7v-0.3c-1,0.5-2,0.8-3.1,1.1C35.8,57.6,35.6,57.8,35.3,57.8z"/>
		<path class="st28" d="M36.1,55.1c0.9-0.2,1.7-0.5,2.5-0.8v-0.6c-0.2-0.5-0.4-0.9-0.6-1.4c-0.6,0.3-1.3,0.5-1.9,0.6
			c-0.3,0-0.6,0.3-0.8,0.3v2.4c0.2,0,0.3,0,0.5-0.1C35.9,55.3,36,55.2,36.1,55.1z"/>
		<path class="st29" d="M33.9,25.9c0.3,0.8,0.3,1.1-0.3,1.7l-1.1,1.1c-0.6,0.6-1.1,0.8-1.7,1.4c-0.5,0.5-1.1,0.8-1.7,1.1
			c0.7-1.7,0.9-3.5,0.6-5.3c0-1.1-0.3-2.5-0.3-3.6v-0.1c0.2,0,0.3,0,0.4,0c0.1,0,0.3,0.1,0.4,0.2c0.8,0.2,1.6,0.7,2.2,1.3
			C33.2,24.4,33.6,25.1,33.9,25.9z"/>
		<path class="st30" d="M26.4,33.3c-1.7,0-3.4-0.5-4.7-1.7c-1.1-1.1-0.6-3.6-0.3-5c0.6-2.5,3.9-1.7,3.9-1.7H27
			c1.1,0,2.5-0.3,3.6-0.3h1.1c0.6,0,0.8-0.6,1.1-0.8c0.3-0.3,0.8,0,1.4,0c0.4,0.2,0.8,0.4,1.1,0.8c0.3,0.3,0.5,0.7,0.6,1.2
			c0.6,1.7-0.8,3.3-2.2,4.4c-1.4,1.5-3.3,2.4-5.3,2.8C27.7,33.2,27.1,33.3,26.4,33.3z"/>
		<path class="st31" d="M32.8,20.7v0.6c0,1,0,2.1,0.3,3.1c0,0.3,0.3,1.1,0,1.4c-0.3,0.3-0.6,0.6-0.8,0.6c-1.3,1-2.7,1.9-4.2,2.5
			c-3.9,1.4-5,0.6-5,0.6l-0.6-8l0.8-0.3c0.8-0.3,1.4-0.6,2.2-0.8c1.2-0.5,2.5-0.9,3.9-1.1h1.9c0.2,0,0.3,0,0.4,0
			c0.1,0,0.3,0.1,0.4,0.2c0.2,0.1,0.3,0.3,0.4,0.5c0.1,0.2,0.1,0.4,0.2,0.6C32.5,20.1,32.5,20.4,32.8,20.7z"/>
		<path class="st31" d="M30.3,22.3c-0.9-0.3-1.8-0.5-2.8-0.6c-0.9,0-1.9,0-2.8,0.3c-0.6,0.3-0.3,1.1-0.8,1.4
			c-0.6,0.3-1.1,0.3-1.7,0.6c-0.6,0.3-0.3,1.7,0,2.2v3.6c0.3,1.1,1.4,1.1,2.2,1.4c1.1,0.2,2.2,0.3,3.3,0.3c0.7-0.2,1.4-0.4,1.9-0.8
			c1.5-0.9,2.8-2,3.9-3.3c0.3-0.3,0-0.3,0-0.8c0-1-0.3-2-0.8-2.8C32,23.2,31.2,22.7,30.3,22.3z"/>
		<path class="st29" d="M32.5,19c0.6,0.2,1.1,0.6,1.4,1.1c0.3,0.6-0.3,1.7-0.3,2.2c0,0.9,0.1,1.9,0.3,2.8c0,0.6,0.3,1.1,0.3,1.9
			c0,0.4-0.2,0.8-0.4,1.1c-0.2,0.3-0.4,0.6-0.8,0.9c-0.8,0.6-1.4,1.1-2.2,1.7c-0.8,0.6-1.7,0.6-2.2,1.1c0.6-0.3,1.1-0.8,1.4-1.4
			c0.2-0.4,0.3-0.9,0.3-1.4c0-0.6,0.3-1.4-0.3-1.7c-0.3-0.2-0.7-0.3-1.1-0.3c-0.3,0-0.3,0.3-0.6,0.3c-1.8,0.3-3.7,0.5-5.6,0.6
			c-0.3,0-0.6,0-0.6-0.3c0-0.3,0-0.3,0.3-0.6c0.3-0.3,0.8-0.3,1.1-0.6c1.1-0.7,2.2-1.4,3.3-1.9c0.6-0.3,1.4-0.6,1.9-0.8
			c0.6-0.3,0.6-0.6,0.6-0.8v-1.4c0-0.6,0.3-0.8,0.3-1.4l0.3-1.4C30.9,18.7,31.7,18.8,32.5,19z"/>
		<path class="st32" d="M17,11.1v-0.3c0-0.6,0.1-1.2,0.4-1.8c0.2-0.6,0.6-1.1,1-1.5c0.5-0.8,1.1-1.4,1.9-1.9
			c0.8-0.5,1.6-0.8,2.5-0.9c1.8,0,3.6,0.3,5.2,1c1.6,0.7,3.1,1.8,4.3,3.1c0.3,0.3,0.3,0.6,0.6,0.6s0.3,0.6,0.3,0.8
			c1.7,3.9,6.4,4.7-1.7,13.3l-0.3,0.3c-0.1,0-0.1,0-0.2,0.1c-0.1,0.1-0.1,0.1-0.1,0.2l-0.3,0.3c-0.4,0.3-0.9,0.6-1.4,0.8
			c-1.3,1.1-2.8,1.8-4.4,2.2C22,28,19.5,27.2,19.2,25c-0.6-4.2-1.7-8-2.2-11.9V11.1z"/>
		<path class="st33" d="M18.6,7.6c0.8,0.6,1.1,0.3,1.1-0.6H20c1.3-0.5,2.7-0.8,4.2-0.8c1.1,0,2.2,0,3.3,0.3c1.7,0.3,3.4,1.1,4.7,2.2
			c0.3,0.3,0.3,0.6,0.6,0.6c0.3,0,0.3,0.6,0.3,0.8c1.7,3.9,6.4,4.7-1.7,13.3l-0.3,0.3c-0.1,0-0.1,0-0.2,0.1
			c-0.1,0.1-0.1,0.1-0.1,0.2l-0.3,0.3c-0.4,0.3-0.9,0.6-1.4,0.8c0.2-1.1,0.3-2.2,0.3-3.3v-1.4c0-0.6-0.3-0.8-0.6-1.4
			c-0.2-0.1-0.3-0.3-0.4-0.5c-0.1-0.2-0.1-0.4-0.2-0.6v-0.8c-0.3-1.1,0-2.5-0.3-3.6c-0.3-0.6-0.3-1.4-0.8-1.9
			c-0.3-0.4-0.7-0.7-1.1-1c-0.4-0.2-0.9-0.4-1.4-0.4h-3.1c-0.8,0-1.7-0.3-2.2-0.3c0,0-1.9,0-1.9-0.3C17.2,9.8,16.7,6.2,18.6,7.6z"/>
		<path class="st34" d="M18.6,5.5c1.1,0,1.1-0.8,2.2-1.9c1.8-1.7,4-2.9,6.4-3.5c1.4-0.3,2.8-0.2,4.2,0.3C32.8,0.9,34,1.6,35,2.6
			l0.3,0.3l0.3,0.3l0.3,0.3c0.3,0.3,0.6,0.7,0.8,1.1c0,0.1,0,0.1,0.1,0.2c0.1,0.1,0.1,0.1,0.2,0.1c0.6,0.8,0.9,1.8,0.8,2.8v2.2
			c-0.1,0.9-0.2,1.7-0.6,2.5l-0.8,2.5c0,0.3,0,0.3-0.3,0.6c0,1.1-0.2,2.3-0.6,3.3c-0.3,0.6-0.3,1.4-0.6,1.7l-1.1,1.1
			c0,0-0.8,0.6-1.4,1.1v-0.8c0.2-1.5,0.6-2.9,1.4-4.2c0.3-0.6,0.6-0.8,0.8-1.4v-0.8c-0.1-0.5-0.2-0.9-0.3-1.4
			c-0.6-0.8-1.9-0.6-2.5,0.3c-0.3,0.6-0.5,1.3-0.6,1.9c0,0.6-0.3,1.1-0.3,1.7v0.6c-0.6,0-0.8,0.3-1.4,0.3v-0.8
			c-0.3-1.7-0.6-3.1-0.8-4.7v-0.6c-0.6-2.8-3.6-3.9-8.6-3.9L16.4,9C16.1,8.5,15.3,5.5,18.6,5.5z"/>
		<path class="st35" d="M28.6,13.2v0.3c0.3,1.7,0.6,3.3,0.8,4.7V19c0.6,0,0.8-0.3,1.4-0.3v-0.8c-0.1-0.5,0-1,0.3-1.4
			c0.3-0.6,0.3-1.4,0.6-1.9c0.1-0.2,0.3-0.4,0.5-0.5c0.2-0.1,0.4-0.2,0.7-0.2c0.2,0,0.5,0,0.7,0.1s0.4,0.2,0.6,0.4
			c0.3,0.3,0.3,0.6,0.3,1.1v1.4c0,0.6-0.3,0.8-0.6,1.4c-0.9,1.2-1.4,2.7-1.4,4.2v0.6c0.5-0.3,1-0.7,1.4-1.1l1.1-1.1
			c0.3-0.6,0.3-1.1,0.6-1.7c0.3-1.1,0.6-2.2,0.8-3.1c0-0.3,0-0.3,0.3-0.6l0.8-2.5c0.3-0.8,0.3-1.7,0.6-2.5V8.3
			c-0.3-0.8-0.6-1.9-0.8-2.8c0-0.1,0-0.1-0.1-0.2C37.1,5.3,37,5.3,37,5.3c-0.8-0.8-1.1-1.4-1.1-1.7l-0.3-0.3l-0.3-0.3
			c0.3,0.3,0.3,0.6,0.6,0.6c0.4,1,0.4,2.2,0.2,3.2c-0.2,1.1-0.8,2.1-1.6,2.9c-0.7,0.5-1.4,1-2.2,1.4c-1.2,0.5-2.3,1.2-3.3,1.9
			C28.8,13,28.8,13.1,28.6,13.2c0,0,0,0.1,0,0.1V13.2z"/>
		<path class="st36" d="M36.1,73.9v2.5c1.6-0.4,3.1-1.1,4.4-1.9v-2.4c-1.4,0.8-2.9,1.5-4.4,1.9V73.9z"/>
		<path class="st27" d="M12.8,70c0.8,2.5,4.7,5,13.6,6.7c3.3,0.6,6.7,0.5,10-0.3v-2.5c-3.2,1-6.5,1-9.7,0.3
			c-8.9-1.7-12.8-4.2-13.6-6.7c-0.1-0.5-0.2-1.1-0.3-1.7C12.5,67.3,12.5,68.7,12.8,70z"/>
		<path class="st36" d="M35.3,57.8c0.3,0,0.6-0.3,0.8-0.3c1-0.3,2.1-0.7,3.1-1.1l-0.6-2.2c-0.8,0.4-1.6,0.6-2.5,0.8
			c-0.3,0-0.6,0.3-0.8,0.3V57.8z"/>
		<path class="st27" d="M13.4,52.3c1.4,2.2,5.6,4.2,13,5.5c3,0.5,6,0.4,8.9-0.3v-2.5c-2.9,0.7-5.9,0.8-8.9,0.3
			C18.9,54,15,52,13.4,49.8V52.3z"/>
		<path class="st36" d="M35.3,53.1c0.3,0,0.6-0.3,0.8-0.3c0.6-0.3,1.3-0.5,1.9-0.6v-0.6c-0.1-0.5-0.2-0.9-0.3-1.4v-0.3
			c-0.3,0.3-0.8,0.3-1.4,0.6c-0.6,0.3-0.6,0.3-0.8,0.3C35.3,51.6,35.2,52.4,35.3,53.1z"/>
		<path class="st27" d="M13.4,47.9c1.7,2.2,5.6,4.2,13,5.5c3,0.5,6.2,0.4,9.2-0.3v-2.5c-3,0.7-6.1,0.8-9.2,0.3
			c-7.2-1.4-11.4-3.3-13-5.5V47.9z"/>
	</g>
</g>
</svg>
