<?xml version="1.0" encoding="utf-8"?>
<!-- Generator: Adobe Illustrator 23.1.0, SVG Export Plug-In . SVG Version: 6.00 Build 0)  -->
<svg version="1.1" id="Layer_1" xmlns="http://www.w3.org/2000/svg" xmlns:xlink="http://www.w3.org/1999/xlink" x="0px" y="0px"
	 viewBox="0 0 243 175" style="enable-background:new 0 0 243 175;" xml:space="preserve">
<style type="text/css">
	.st0{clip-path:url(#SVGID_2_);}
	.st1{fill:#A79D2D;}
	.st2{fill:#D4C931;}
	.st3{fill:#C2B92F;}
	.st4{fill:#E5C172;}
	.st5{clip-path:url(#SVGID_4_);}
	.st6{fill:#E9EEF0;}
	.st7{fill:#996932;}
	.st8{fill:#A87438;}
	.st9{fill:#1F1F1F;}
	.st10{fill:#825520;}
	.st11{fill:#42260B;}
	.st12{fill:#3D2003;}
	.st13{fill:#21AFDB;}
	.st14{fill:#EBEBEB;}
	.st15{fill:#E8B58F;}
	.st16{fill:#1C4059;}
	.st17{fill:#12344A;}
	.st18{fill:#32A6A0;}
	.st19{fill:#48C2C1;}
	.st20{fill:#1F4964;}
	.st21{fill:#133B54;}
	.st22{fill:#4FC2BE;}
	.st23{fill:#46B3B0;}
	.st24{fill:#E0AA82;}
	.st25{fill:#4DC2BF;}
	.st26{fill:#1EAAF1;}
	.st27{fill:#78D4C3;}
	.st28{fill:#F4FAFC;}
	.st29{fill:#20ABE2;}
	.st30{fill:#D98F6C;}
	.st31{fill:#51D6BE;}
	.st32{fill:#EAA685;}
	.st33{fill:#F0B88F;}
	.st34{fill:#DF9876;}
	.st35{fill:#A34512;}
	.st36{fill:#7D350E;}
	.st37{fill:#B8E0CA;}
</style>
<g>
	<defs>
		<rect id="SVGID_1_" x="38" width="205" height="175"/>
	</defs>
	<clipPath id="SVGID_2_">
		<use xlink:href="#SVGID_1_"  style="overflow:visible;"/>
	</clipPath>
	<g class="st0">
		<path class="st1" d="M178,118.3l8.1,4.7l-5.4,3.2L178,118.3z"/>
		<path class="st2" d="M229.7,72.9L107.5,2.7l-8.6,15.5l22.9,68l93.6,53.8l22.9-41.7L229.7,72.9z"/>
		<path class="st1" d="M194.5,70.7v2.5l-23.2-13.3V45.4l1.7,1v12L194.5,70.7z"/>
		<path class="st3" d="M194.5,58.9v11.8L173,58.4v-12L194.5,58.9z"/>
		<path class="st1" d="M226.7,91.8l-27.1-15.5V61.9l1.7,1v11.8l24.1,14L226.7,91.8z"/>
		<path class="st3" d="M225.5,88.6l-24.1-14V62.8l18.5,10.6L225.5,88.6z"/>
		<path class="st1" d="M137.8,38v2.5L110.7,25l6.9-10.3l0.5,0.2l-5.7,8.3L137.8,38z"/>
		<path class="st3" d="M137.8,26.3V38l-25.4-14.7l5.7-8.3L137.8,26.3z"/>
		<path class="st1" d="M166.1,54.2v2.7L143,43.7V29.2l1.7,1V42L166.1,54.2z"/>
		<path class="st3" d="M166.1,42.5v11.8L144.7,42V30.2L166.1,42.5z"/>
		<path class="st4" d="M234.4,70.2L112.2,0l-4.7,2.7l122.2,70.2L234.4,70.2z"/>
		<path class="st1" d="M206.3,127.1l-1,2l-75.2-43.2l-15.3-47.4l2.7,1.5l14.3,44.2L206.3,127.1z"/>
		<path class="st3" d="M222.1,100.1l-15.8,27l-74.4-43L117.6,40L222.1,100.1z"/>
		<path class="st1" d="M234.4,70.2l-4.7,2.7l8.6,25.3l4.7-2.5L234.4,70.2z"/>
		<path class="st4" d="M60.4,40.3l38.4-22.1l4.7,2.5L65.1,43L60.4,40.3z"/>
		<path class="st1" d="M103.5,20.6L65.1,43l53.2,30.4L103.5,20.6z"/>
		<path class="st2" d="M168.8,108L46.6,37.6L38,53l22.9,68l93.9,54l22.7-41.7L168.8,108z"/>
		<path class="st1" d="M133.6,105.5v2.7L110.4,95V80.5l1.7,1v11.8L133.6,105.5z"/>
		<path class="st3" d="M133.6,93.8v11.8l-21.4-12.3V81.5L133.6,93.8z"/>
		<path class="st1" d="M166.1,126.9l-27.4-15.7V96.7l2,1v12l23.9,13.7L166.1,126.9z"/>
		<path class="st3" d="M164.6,123.5l-23.9-13.7v-12l18.2,10.6L164.6,123.5z"/>
		<path class="st1" d="M76.9,72.9v2.7L49.8,59.9L57,49.6l0.5,0.2l-5.9,8.6L76.9,72.9z"/>
		<path class="st3" d="M76.9,61.1v11.8L51.6,58.4l5.9-8.6L76.9,61.1z"/>
		<path class="st1" d="M105.3,89.3v2.5L82.1,78.5V64.1l1.7,1v12L105.3,89.3z"/>
		<path class="st3" d="M105.3,77.6v11.8L83.8,77.1V65L105.3,77.6z"/>
		<path class="st1" d="M173.5,105.3l-4.7,2.7l8.6,25.3l4.7-2.7L173.5,105.3z"/>
		<path class="st4" d="M173.5,105.3L51.3,35.1l-4.7,2.5L168.8,108L173.5,105.3z"/>
		<path class="st1" d="M145.4,162l-1,2l-75.1-43.2L54,73.4l3,1.7l14,44.2L145.4,162z"/>
		<path class="st3" d="M161.2,135l-15.8,27L71,119.3L57,75.1L161.2,135z"/>
		<path class="st1" d="M243,95.7l-65.5,37.6L154.8,175l65.3-37.6L243,95.7z"/>
		<path class="st4" d="M180.7,126.2l53-30.4l4.7,2.5l-56.2,32.4L180.7,126.2z"/>
	</g>
</g>
<g>
	<defs>
		<rect id="SVGID_3_" y="25" width="50" height="150"/>
	</defs>
	<clipPath id="SVGID_4_">
		<use xlink:href="#SVGID_3_"  style="overflow:visible;"/>
	</clipPath>
	<g class="st5">
		<path class="st6" d="M49.2,169.3c-1.1,6.7-11.9,7.8-24.4,2.8c-12.5-5-21.4-14.4-20.3-21.1c1.1-6.7,11.9-7.8,24.4-2.8
			C41.4,153.2,50.3,162.5,49.2,169.3z"/>
		<path class="st7" d="M37,147.2h-2.2c-1.1,0-3.6,0.6-3.6,1.9v2.2c0.1,1,0,2.1-0.3,3.1c0,1.4-1.1,2.5-1.9,3.9
			c-0.8,1.2-1.5,2.5-1.9,3.9c-0.5,0.9-0.8,2-0.8,3.1c0,1.3,0.3,2.7,0.8,3.9c0.2,0.3,0.5,0.6,0.9,0.8c0.3,0.2,0.7,0.3,1.1,0.3
			c0.4,0.2,0.9,0.3,1.4,0.3h0.8c1.5-0.4,2.7-1.3,3.6-2.5c0.6-0.6,0.8-1.1,1.4-1.7c0.5-0.7,0.9-1.6,1.1-2.5l0.6-1.7h0.3
			c0.3,0,1.1-1.4,1.1-1.7c0.3-0.6,0.6-1.3,0.8-1.9c0.3-0.6,0.6-0.8,0.6-1.4c0.2-0.9,0.3-1.8,0.3-2.8c0-0.8-0.3-1.4-0.3-2.2
			s0.3-1.1,0.3-1.9s0.6-1.9-0.3-2.5c-0.3-0.3-1.1-0.3-1.7-0.6c-0.6-0.3-1.1-0.3-1.7-0.6C37.2,147.2,37,147.2,37,147.2z"/>
		<path class="st8" d="M28.1,165c3.1,3.3,6.9-0.8,7.8-3.9c0.4-1.5,0.6-3.1,0.6-4.7c0-1.1,0.3-2.2,0.3-3.3c0-0.3-0.1-0.6-0.2-0.9
			c-0.1-0.3-0.4-0.5-0.6-0.7c-0.3-0.2-0.7-0.3-1.1-0.3c-0.6,0-1.1-0.3-1.7,0c-0.7,0.1-1.4,0.4-1.9,0.8h-0.3v0.3
			c0.2,1.9-0.2,3.9-1.1,5.5c-1.1,1.7-3.1,4.2-2.8,6.1C27.5,164.1,27.8,164.7,28.1,165z"/>
		<path class="st9" d="M35,160c0-0.8-0.8-1.1-1.4-1.7c-0.6-0.6-0.6-0.3-0.6-0.6c0-0.3-0.6-0.6-0.6-0.8c0.4-0.3,0.9-0.3,1.4-0.3h0.3
			c0.6,0,1.1-0.3,1.1-0.6c0-0.2,0-0.3,0-0.4s-0.1-0.3-0.2-0.4c-0.3-0.3-0.6-0.6-0.8-0.6h-0.3c-0.1,0-0.3-0.1-0.4-0.2
			c-0.1-0.1-0.2-0.2-0.2-0.4v-0.3c0.4-0.3,0.9-0.3,1.4-0.3H35c0.3,0,0.6,0,0.6-0.3s0.3-0.6,0.3-0.8c0-0.3-0.6-0.6-0.8-0.8l-0.3-0.3
			c-0.2-0.1-0.3-0.3-0.4-0.5c-0.1-0.2-0.1-0.4-0.1-0.6c0-0.3,0.3-0.6,0.8-0.6v-0.3c-0.3,0.3-0.8,0.6-0.8,0.8c0,0.3,0,0.5,0.1,0.8
			c0.1,0.2,0.3,0.5,0.5,0.6l0.3,0.3c0.3,0.3,0.6,0.6,0.6,0.8c0,0.1,0,0.1-0.1,0.2c-0.1,0.1-0.1,0.1-0.2,0.1h-0.8
			c-0.6,0-1.4,0-1.7,0.6c-0.3,0.6-0.3,0.3,0,0.6c0,0.1,0.1,0.3,0.2,0.4c0.1,0.1,0.2,0.2,0.4,0.2h0.3c0.3,0.3,0.6,0.3,0.8,0.6
			c0.2,0.1,0.2,0.3,0.3,0.6c0,0.3-0.6,0.3-1.1,0.3h-0.3c-0.5-0.1-1,0-1.4,0.3l-0.3,0.3v0.3c0,0.2,0.1,0.4,0.2,0.6
			c0.1,0.2,0.2,0.4,0.4,0.5c0.3,0.3,0.6,0.3,0.6,0.6c0.5,0,0.9,0.2,1.3,0.4C34.5,159.2,34.8,159.6,35,160z"/>
		<path class="st9" d="M31.1,158.6c0.8,0,1.7,0,2.5-0.3c0.2,0,0.4-0.1,0.6-0.3s0.2-0.4,0.3-0.6c0-0.6-0.3-0.8-0.8-1.1h-0.3l-0.3-0.3
			c-0.3,0-0.3-0.3-0.6-0.6v-0.8c0.3-0.3,0.6,0,1.1,0h0.3c0.2,0,0.3,0,0.4,0c0.1,0,0.3-0.1,0.4-0.2c0.1-0.2,0.2-0.4,0.2-0.6
			c0-0.2-0.1-0.4-0.2-0.6c-0.3-0.3-0.6-0.3-0.8-0.6h-0.3c-0.3-0.3-0.6-0.3-0.6-0.6v-0.3h0.3c0.7,0,1.3-0.1,1.9-0.3
			c0.1,0,0.1,0,0.2-0.1c0.1-0.1,0.1-0.1,0.1-0.2v-0.3c-0.1-1.1-0.6-2.2-1.4-3.1l-0.3,0.3c0.7,0.7,1.1,1.7,1.1,2.8v0.3h-0.3
			c-0.5,0.2-1.1,0.3-1.7,0.3h-0.6c-0.3,0.3-0.3,0.3-0.3,0.6c0,0.3,0.3,0.6,0.8,0.8h0.3c0.2,0,0.4,0.1,0.6,0.3c0.1,0,0.1,0.1,0.1,0.2
			c0,0.1,0.1,0.2,0.1,0.2s0,0.2-0.1,0.2c0,0.1-0.1,0.1-0.1,0.2c-0.3,0.3-0.3,0.3-0.6,0.3H33c-0.6,0-0.8,0-1.1,0.3
			c-0.2,0.3-0.3,0.7-0.3,1.1c0,0.3,0.3,0.3,0.6,0.6h0.6c0.3,0.3,0.6,0.6,0.6,0.8c0,0.3-0.3,0.3-0.6,0.6c-1,0.2-2,0.3-3.1,0.3v0.3
			C30.2,158.4,30.6,158.5,31.1,158.6z"/>
		<path class="st10" d="M8.3,153.6c-0.3,2.2,1.1,2.8,3.1,2.8c1.4,0.1,2.8-0.1,4.2-0.6c0.8-0.3,3.3-0.8,3.9-1.7
			c0.3-0.4,0.6-0.7,0.8-1.1l1.1-0.6v0.8c0.9-0.2,1.7-0.5,2.5-0.8c1.1-0.3,2.1-1,2.8-1.9c0.1-1,0.1-2,0-3.1c0.1-1.4,0.1-2.8,0-4.2
			c0.1-0.5,0-1-0.2-1.5s-0.5-0.9-0.9-1.3c-0.3-0.3-0.8-0.3-1.1-0.6c-0.9-0.2-1.8-0.3-2.8-0.3h-2.8c-0.8,0-1.7,0.8-2.2,1.4
			c-0.4,0.8-0.6,1.6-0.6,2.5c0,0.8,0,2.2-0.6,2.8c0,0.8-1.1,1.1-1.9,1.7c-0.7,0.4-1.5,0.8-2.2,1.1c-0.8,0.5-1.5,1.1-2,1.9
			C8.8,151.8,8.5,152.7,8.3,153.6z"/>
		<path class="st11" d="M26.1,165.2c-0.1,1.1,0.2,2.2,0.8,3.1c0.2,0.3,0.5,0.6,0.9,0.8c0.3,0.2,0.7,0.3,1.1,0.3
			c0.4,0.2,0.9,0.3,1.4,0.3h0.8c1.5-0.4,2.7-1.3,3.6-2.5c0.6-0.6,0.8-1.1,1.4-1.7c0.5-0.7,0.9-1.6,1.1-2.5l0.6-1.7h0.3
			c0.3,0,1.1-1.4,1.1-1.7c0.3-0.6,0.6-1.3,0.8-1.9c0.3-0.6,0.6-0.8,0.6-1.4c0.1-0.5,0.2-0.9,0.3-1.4c0.1,0.8,0,1.5-0.3,2.2
			c0,0.6-0.6,0.8-0.6,1.4c0,0.6-0.6,1.4-0.8,1.9c-0.3,0.6-0.8,1.7-1.1,1.7h-0.3l-0.6,1.7c-0.3,0.9-0.6,1.7-1.1,2.5
			c-0.4,0.6-0.8,1.2-1.4,1.7c-1,1.1-2.2,1.9-3.6,2.5h-0.8c-0.5,0.1-1,0-1.4-0.3c-0.6-0.3-1.7-0.6-1.9-1.1
			C26.4,167.9,26.1,166.6,26.1,165.2z"/>
		<path class="st12" d="M11.4,155.4c1.4,0.1,2.8-0.1,4.2-0.6c0.8-0.3,3.3-0.8,3.9-1.7c0.3-0.4,0.6-0.7,0.8-1.1l1.1-0.6v0.8
			c0.9-0.2,1.7-0.5,2.5-0.8c1.1-0.3,2.1-1,2.8-1.9v0.8c-0.7,1-1.7,1.6-2.8,1.9c-0.8,0.4-1.6,0.6-2.5,0.8v-0.8l-1.1,0.6
			c-0.3,0.3-0.6,0.7-0.8,1.1c-0.6,0.8-2.8,1.4-3.9,1.7c-1.3,0.4-2.8,0.6-4.2,0.6c-1.9,0-3.1-0.6-3.1-2.8h0
			C8.6,155,9.7,155.4,11.4,155.4z"/>
		<path class="st9" d="M14.5,149.1l-0.3-1.1v-0.3h0.3c0.6,0,1.1-0.1,1.7-0.3c0.3-0.1,0.5-0.3,0.6-0.6c0.1-0.2,0.2-0.5,0.2-0.8
			c0-0.3,0-0.3-0.3-0.6c-0.3-0.3-0.3-0.3-0.3-0.6c0-0.3,0.3-0.3,0.6-0.3c0.2,0,0.3,0,0.4,0c0.1,0,0.3-0.1,0.4-0.2
			c0.3-0.3,0.3-0.6,0.3-1.1s-0.3-0.6-0.6-0.8l-0.3-0.3c0,0,0-0.1,0-0.1c0,0,0-0.1,0.1-0.1c0,0,0.1,0,0.1-0.1c0,0,0.1,0,0.1,0
			l0.3-0.3h-0.3c0,0.1,0,0.1-0.1,0.2c-0.1,0.1-0.1,0.1-0.2,0.1c-0.2,0.1-0.2,0.3-0.3,0.6c0,0.3,0,0.3,0.3,0.6
			c0.3,0.3,0.3,0.6,0.6,0.8v0.8c-0.1,0.1-0.2,0.2-0.4,0.2c-0.1,0-0.3,0.1-0.4,0c-0.3-0.6-0.6-0.6-0.8-0.3c0,0.2,0,0.3,0,0.4
			s0.1,0.3,0.2,0.4l0.3,0.3c0,0.2-0.1,0.4-0.2,0.6c-0.1,0.2-0.2,0.4-0.4,0.5c-0.4,0.3-0.9,0.3-1.4,0.3h-0.3c-0.3,0-0.3,0.3,0,0.8
			V149.1z"/>
		<path class="st9" d="M15.3,148.3c0.3,0,0.6-0.3,0.8-0.3c0.3,0,0.3-0.3,0.3-0.6c0-0.2-0.1-0.4-0.3-0.6c0-0.3-0.3-0.6,0-0.6
			c0.3,0,0.3-0.3,0.6-0.3h0.8c0.3,0,0.6-0.3,0.8-0.6c0.1,0,0.1-0.1,0.2-0.2c0-0.1,0.1-0.2,0.1-0.2c0-0.1,0-0.2-0.1-0.2
			c0-0.1-0.1-0.1-0.2-0.2c0-0.1-0.1-0.3-0.2-0.4c-0.1-0.1-0.2-0.2-0.4-0.2l-0.3-0.3c-0.1-0.1-0.2-0.2-0.2-0.4c0-0.1-0.1-0.3,0-0.4
			c0-0.3,0.3-0.3,0.6-0.6h0.8c0.3,0,0.6-0.1,0.9-0.2c0.3-0.1,0.5-0.4,0.7-0.6l-0.3-0.3c-0.2,0.3-0.4,0.5-0.7,0.7
			c-0.3,0.1-0.6,0.2-1,0.2h-0.8c-0.3,0-0.6,0.3-0.8,0.6c0,0.4,0.1,0.8,0.3,1.1l0.3,0.3c0.3,0.3,0.3,0.3,0.3,0.6v0.8
			c0,0.3-0.3,0.3-0.6,0.6h-0.6c-0.3,0-0.6,0.3-0.8,0.3v0.8c0,0.3,0.3,0.3,0.3,0.6c0,0.3,0,0.3-0.3,0.6
			C15.9,148,15.6,148.3,15.3,148.3c-0.6-0.3-0.8-0.6-1.4-0.8l-0.3,0.3C14.1,148.1,14.7,148.3,15.3,148.3z"/>
		<path class="st13" d="M44.7,59.8c0.2,1.2,0.6,2.3,1.1,3.3c0,0.1,0,0.1,0.1,0.2c0.1,0.1,0.1,0.1,0.2,0.1c0.1,0,0.1,0,0.2-0.1
			c0.1-0.1,0.1-0.1,0.1-0.2c0.2-0.8,0.3-1.7,0.3-2.5c0-0.8-0.3-2.2-1.4-2.5h-0.6V59.8z"/>
		<path class="st14" d="M23.6,142.2C23.6,141.9,23.3,141.9,23.6,142.2L23.6,142.2z"/>
		<path class="st15" d="M2.8,90.9c0.7-0.6,1.4-1.2,2.2-1.7c0-0.3,0-0.3,0.3-0.6c0.6-0.8,1-1.6,1.4-2.5c0.8-1.7,1.4-3.3,2.2-5
			c1.1-2.5,3.1-9.2,3.1-9.2c4.7-1.4,5,4.7,4.2,6.1c-0.8,1.4-2.2,2.8-3.1,4.4c-0.8,1.1-1.4,2.5-2.2,3.9c-0.3,0.3-0.3,0.8-0.6,1.1
			C10,87.8,10,88.1,10,88.4c-0.3,0.8-0.6,1.4-0.8,2.2c-0.3,0.8,0,1.7-0.3,2.5c0,0.3,0,0.6-0.2,0.8c-0.2,0.3-0.4,0.4-0.7,0.5
			c-0.5,1.2-1.2,2.3-1.9,3.3c-0.6,0.8-0.3,0.8-2.2,0.8c-1.9,0-1.4-1.1-1.4-1.1l-0.6-0.3c-0.1,0-0.1-0.1-0.2-0.1
			c-0.1-0.1-0.1-0.1-0.1-0.2c0-0.1,0-0.2,0-0.2c0-0.1,0-0.2,0.1-0.2l1.4-3.6c0-0.2-0.1-0.4-0.3-0.6c-0.8,0.3-2.2,0.8-2.8,0.6
			C-0.2,92,2,91.6,2.8,90.9z"/>
		<path class="st16" d="M19.7,94.5c0.2-0.4,0.3-0.8,0.3-1.3c-0.1-0.5-0.2-0.9-0.6-1.2c0.3-0.3,0.3-0.6,0.3-1.1
			c0.4,0.1,0.8,0.3,1.1,0.6c1.8,1.3,3.2,3.1,3.9,5.3c0.3,0.3,0.3,0.8,0.6,1.1c1.1,2.8,0.3,6.1,0.3,9.2c-0.3,3.8,0,7.6,0.8,11.4
			c1.3,5.1,1.8,10.3,1.4,15.5c-0.3,4.2,0,11.7,0,11.7c-0.6,0.8-1.4,1.4-2.4,1.8c-0.9,0.4-1.9,0.5-2.9,0.4c-1.4,0.1-2.7-0.3-3.9-1.1
			c-0.6-0.2-1.1-0.7-1.4-1.2c-0.3-0.6-0.4-1.2-0.3-1.8c0.3-3.9,0-7.8,0-11.7c-0.6-3.3-0.8-6.7-1.4-9.7c-0.6-3.4-1-6.8-1.1-10.3
			c-0.3-2.8-1.7-12.5-0.8-16.4C15.6,95.9,18.6,96.4,19.7,94.5z"/>
		<path class="st17" d="M24.7,136.7c0.4-5.2,0-10.5-1.4-15.5c-0.7-3.7-1-7.6-0.8-11.4c0-2.8,0.8-6.4-0.3-9.2c0-0.6-0.3-0.8-0.3-1.4
			c-0.7-1.5-1.5-2.9-2.5-4.2l0.6-0.6c0.2-0.4,0.3-0.8,0.3-1.3c-0.1-0.5-0.2-0.9-0.6-1.2c0.3-0.3,0.3-0.6,0.3-1.1
			c0.4,0.1,0.8,0.3,1.1,0.6c1.8,1.3,3.2,3.2,3.9,5.3c0.3,0.3,0.3,0.8,0.6,1.1c1.1,2.8,0.3,6.1,0.3,9.2c-0.3,3.8,0,7.6,0.8,11.4
			c1.3,5.1,1.8,10.3,1.4,15.5c-0.3,4.2,0,11.7,0,11.7c-0.7,1-1.8,1.7-3.1,1.9C24.5,143.9,24.4,140.3,24.7,136.7z"/>
		<path class="st18" d="M20.8,48.4c-0.9-0.2-1.9-0.2-2.8-0.1c-0.9,0.2-1.8,0.6-2.5,1.2c-1.9,2.2-1.9,3.6-1.9,8s0.2,9,0.2,9L5.8,87.1
			c1.6,0.5,3,1.6,3.9,3.1c0.3,0.6,5.3-9.2,5.8-9.7C21.1,74.9,25.3,49.3,20.8,48.4z"/>
		<path class="st19" d="M13.9,53.7c0.2-1.4,0.9-2.8,2-3.7c0.7-0.6,1.6-1.1,2.5-1.3c0.9-0.2,1.9-0.1,2.8,0.2c0.8,0,1.1,1.1,1.4,2.5
			c-1.4,0.1-2.8,0.1-4.2,0c-0.7,0-1.4,0.2-2,0.6c-0.6,0.3-1.2,0.8-1.6,1.4C14.2,53.2,13.9,53.4,13.9,53.7z"/>
		<path class="st20" d="M28.3,132.2c-0.3-2.5-1.4-5.3-1.7-7.8c-0.6-3.3-1.1-8.6-1.4-11.9c0-2-0.2-3.9-0.6-5.8v-0.6
			c0-0.1,0-0.1-0.1-0.2c-0.1-0.1-0.1-0.1-0.2-0.1l-1.1-1.1c-0.9-0.8-1.6-1.9-1.9-3.1c-0.2-1.9-0.1-3.8,0.6-5.5c0-0.3,0-0.3-0.3-0.6
			c-0.3-0.3-0.6-0.6-0.8-0.6c-0.6-0.6-1.4-0.8-1.9-1.4l-2.8-1.9c-0.6-0.2-1.3-0.3-1.9-0.3c0-2.7,0.5-5.5,1.4-8c0,0-0.6,1.4,8.1,6.1
			c1.9,1.2,4.1,2.1,6.4,2.5c2.5,0.6,5.6-0.6,7.8,1.1c1,0.8,1.8,1.8,2.3,3c0.5,1.2,0.8,2.4,0.8,3.7c0.4,3.4,0.5,6.8,0.3,10.3
			c-0.6,6.6-0.8,13.3-0.6,20c0.6,6.4,0.7,12.8,0.3,19.1c-0.3,1.9,0.3,5.5-1.4,7.2c-1.1,1.1-2.6,1.7-4.2,1.7c-1.5,0.5-3,0.4-4.4-0.3
			c-1.4-1.1-1.1-3.9-1.4-5.5c-0.2-2.7-0.3-5.4-0.3-8C29.2,140.2,28.9,136.2,28.3,132.2z"/>
		<path class="st21" d="M37.5,151.4c0.3-6.4,0.2-12.8-0.3-19.1c-0.4-6.7-0.2-13.3,0.6-20v-5.5c0-1.2-0.2-2.4-0.6-3.6
			c-1.1,0.4-2.2,0.7-3.3,0.8c-1.3,0.3-2.6,0.3-3.9,0c-2.8-0.3-5.3-1.4-8.1-1.9c-2.6-0.3-5.1-1.3-7.2-2.8c-0.3-0.3-0.6-0.3-0.6-0.6
			c-0.6,0-0.6-0.3-0.6-0.6c-0.4-5.1,0.1-10.3,1.7-15.3c0,0-0.6,1.4,8.1,6.1c1.9,1.2,4.1,2.1,6.4,2.5c2.5,0.6,5.6-0.6,7.8,1.1
			c1,0.8,1.8,1.8,2.3,3c0.5,1.2,0.8,2.4,0.8,3.7c0.4,3.4,0.5,6.8,0.3,10.3c-0.6,6.6-0.8,13.3-0.6,20c0.6,6.4,0.7,12.8,0.3,19.1
			c-0.3,1.9,0.3,5.5-1.4,7.2c-0.7,0.6-1.6,1.1-2.5,1.4C37.4,155.4,37.7,153.3,37.5,151.4z"/>
		<path class="st22" d="M14.2,72.9c0.3,3.5,0.3,7,0,10.5c0,1.4-0.3,3.1-0.3,4.4c-0.2,1.3-0.3,2.6-0.3,3.9c0.3,1.1,0.6,1.9,0.8,3.1
			c0,0.3,0.3,0.8,0.3,1.1c0.4,0.9,1.1,1.7,1.9,2.2c1,0.5,2,0.9,3.1,1.1c5.9,2.2,12.4,2.2,18.3,0c0,0-1.7-15-0.6-16.9
			c1.1-1.9,7.2-10,7.5-14.4s1.1-8.6-3.6-12.2c-2.2-2-4.5-3.7-6.9-5.3c-1.7-1-3.5-2-5.3-2.8c-1.8-0.6-3.7-0.6-5.6,0
			c-2.7,0.4-5.1,1.6-7,3.6C13.9,53.7,13.4,61.1,14.2,72.9z"/>
		<path class="st23" d="M17,50c-0.7,0.7-1.4,1.4-1.9,2.2C14.4,53,13.9,54,13.6,55c-0.7,2.6-0.7,5.4-0.3,8c0.3,3.9,0,8,0,12.2v10.5
			c0,2.1-0.3,4.1-0.8,6.1c-0.1,0.9-0.1,1.9,0,2.8c0.1,1.1,0.6,2,1.4,2.8c1,0.6,2,1.2,3.1,1.7c0.3,0,2.5,0.6,2.5,0.8
			c-0.5-8.5-0.4-17,0.3-25.5c0.2-3.1,0.7-6.2,1.4-9.2c0.6-1.9,0.8-3.9,1.4-5.8c0.3-0.8,0.8-1.9,0.6-2.5c-0.3-0.6-0.6-0.6-0.8-0.6
			c-0.6-0.8-1-1.8-1.1-2.8c0-0.4-0.1-0.8-0.3-1.1c0-0.2,0-0.3,0-0.4c0-0.1-0.1-0.3-0.2-0.4c-0.1-0.3-0.3-0.5-0.6-0.6
			c-0.2-0.1-0.5-0.2-0.8-0.2C18.9,50,17.5,49.3,17,50z"/>
		<path class="st18" d="M25,50.9c-2.6-0.7-5.3-1.2-8.1-1.4c1.4-1.6,3.2-2.8,5.3-3.3c2.2-0.3,4.4,0,6.4,0.8c1.8,0.8,3.6,1.7,5.3,2.8
			c3.1,1.6,6.1,3.5,8.9,5.5c4.2,3.6,3.3,7.5,3.6,12.2c0,0.6-1.9,0.8-2.2,1.4c-0.9,2.6-2.1,5.1-3.6,7.5c-0.4,0.7-0.9,1.3-1.4,1.9
			c-0.3,0.3-0.3,1.1-0.3,1.7v3.6c0,1.4,0.3,3.1,0.3,4.4c0,0.8,0.3,1.4,0.3,2.2s-0.8,2.2-0.6,3.3c0.3,1.1,0.8,1.9,0.6,2.8
			c-0.3,0.8,0,1.7-0.6,1.9c-0.6,0.3-0.8,0.3-1.4,0.6c-0.4,0.2-0.9,0.3-1.4,0.3c0,0-0.3-6.9-0.3-7.2v-7.8c-0.3-3.3-0.6-6.7-0.6-10.3
			c-0.1-1.5-0.1-3,0-4.4c0-1.6,0.2-3.2,0.6-4.7c0.1-2.2,0.5-4.4,1.4-6.4c0.3-0.7,0.8-1.2,1.4-1.7c0.8-0.8,0.8-1.1,0-1.9
			c-0.7-0.7-1.5-1.3-2.5-1.7c-1.1-0.6-2.2-1-3.3-1.4c-0.3,0-0.6-0.3-0.8-0.3C29.6,51.6,27.3,51.4,25,50.9z"/>
		<path class="st15" d="M38.1,111.1c0.3-0.3,0.6-0.8,1.1-1.1c0-0.1,0-0.1,0.1-0.2c0.1-0.1,0.1-0.1,0.2-0.1c0.6-0.8,1.4-1.1,1.7-1.9
			c0.3-0.8,0.5-1.5,0.5-2.4c0.3-3.6-0.6-10.5,0.3-14.4c0.8-3.9,7.2-1.1,7.2-1.1c0,3.6-0.7,7.2-1.9,10.5c-1.9,6.4-2.5,7.2-2.5,9.7
			c0,0.8,0.3,1.4-0.3,2.2c-0.3,0.3-0.3,1.1-0.8,1.7c-0.3,1-0.6,1.9-1.1,2.8c-0.3,0.8,0,0.8-2.2,1.7s-1.7-0.6-1.7-0.6H38
			c-0.1,0-0.3-0.1-0.4-0.2c-0.1-0.1-0.2-0.2-0.2-0.4l0.8-3.9c0-0.3,0-0.3-0.3-0.6c-0.8,0.6-2.2,1.7-2.8,1.4
			C35.3,113.4,37.5,112,38.1,111.1z"/>
		<path class="st24" d="M49.2,89.8c0,3.6-0.7,7.2-1.9,10.5c-1.9,6.4-2.5,7.2-2.5,9.7v1.9c-0.3-1.2-0.5-2.4-0.6-3.6
			c0.5-3,1.1-6,1.9-8.9c0.7-3.4,0.9-6.8,0.6-10.3C47.5,89.2,48.4,89.4,49.2,89.8z"/>
		<path class="st25" d="M38.9,56.2c0,0,5.8-2.5,7.2,5.5c1.4,8,1.4,11.1,2.5,17.2c1.1,6.1,1.1,7.5,1.4,9.2c-0.4,4.3-1.1,8.6-2.2,12.8
			c-1.1,4.2-2.2,7.2-2.2,7.2c-0.2-0.5-0.5-1-0.9-1.4c-0.4-0.3-1-0.5-1.6-0.6c-1.9,0-2.2,0.6-2.2,0.6l0.3-19.4c0,0-6.7-18.6-5.8-23
			C36.1,59.8,36.7,57,38.9,56.2z"/>
		<path class="st18" d="M43.1,58.4c0.6,0.3,1.1,0.6,0.8,1.1c0,0.2-0.1,0.4-0.3,0.6c-0.2,0.2-0.4,0.2-0.6,0.3
			c-1.2,0.3-2.3,0.8-3.3,1.4c-0.8,0.9-1.5,1.9-1.9,3.1c-0.3,1.1-0.5,2.2-0.6,3.3c-0.1,1-0.1,2,0,3.1c0.4,2.5,1,4.9,1.9,7.2
			c0.8,2.8,1.7,5.8,2.5,8.6c0,0-0.3,13.9-0.6,13.9V87.3c-0.8-2.8-1.9-5.5-2.8-8.3c-0.8-2.3-1.4-4.6-1.9-6.9l-0.8-3.3
			c-0.1-1.2-0.1-2.4,0-3.6c0-1.7,0-4.4,1.4-5.5c0.9-0.6,1.9-1.1,2.9-1.2C40.9,58.1,42,58.1,43.1,58.4z"/>
		<path class="st18" d="M46.1,103.1c1-5.1,1.7-10.3,1.9-15.5c0-1.7-0.8-3.9-1.9-10.3s-1.7-7.5-3.1-15.5c-0.6-3.9-2.2-5.3-3.9-5.8
			c0.8-0.3,5.8-1.9,6.9,5.5c1.4,8.3,1.4,11.1,2.5,17.2c1.1,6.1,1.1,7.5,1.4,9.2c-0.4,4.3-1.1,8.6-2.2,12.8c-1.1,4.2-2.2,7.2-2.2,7.2
			c-0.2-0.4-0.5-0.8-0.8-1.1C45.4,105.6,45.9,104.4,46.1,103.1z"/>
		<path class="st26" d="M19.2,52c0.3-0.8,0.3-1.4,0.8-1.9l1.9-1.9l1.1-1.1c-2.7,0.3-5.1,1.6-6.9,3.6c-2.7,3.5-4,7.8-3.6,12.2
			c0.1,2.5,0.4,5,0.8,7.5v13.9c-0.5,3.7-0.7,7.4-0.6,11.1c0.8,2.5,4.7,5,13.6,6.7c3.2,0.6,6.5,0.6,9.7-0.3c1.6-0.4,3.1-1.1,4.4-1.9
			c0-2-0.2-4.1-0.6-6.1c-0.6-3.7-0.9-7.4-0.8-11.1V82l-0.3-1.5l-0.3-1.7c-0.2-0.5-0.4-0.9-0.6-1.4c-0.3-0.6-0.3-1.4-0.6-2.2
			c0-0.3-0.3-0.8-0.3-1.1c-0.9-3.7-0.7-7.5,0.6-11.1c0.1-0.6,0.4-1.2,0.8-1.7c0.9-1,2.1-1.7,3.5-2.1c1.3-0.4,2.7-0.4,4-0.1
			c-3.1-4-7.2-7.2-11.9-9.2c0,0.8,2.8,2.8,3.1,3.6c0.3,0.8-3.1,4.4-3.1,4.4c-0.9,0.8-1.8,1.6-2.8,2.2c-1,0.5-2,1-3.1,1.4
			c-0.3,0.3-0.8,0.3-1.1,0.6c-1.2,0.3-2.4,0.4-3.6,0.2c-1.2-0.2-2.3-0.6-3.4-1.3c-0.7-0.5-1.2-1.2-1.4-2c-0.3-0.8-0.4-1.6-0.2-2.5
			c-0.1-1,0-2.1,0.3-3.1C18.8,53,18.9,52.5,19.2,52z"/>
		<path class="st27" d="M46.7,107.8l1.1-4.4c-1.6,0.3-3.2,0.2-4.7-0.3c-0.9-0.4-1.7-1.1-2.2-1.9l-0.3,5.3c0.9,0.6,1.9,1.1,2.9,1.3
			C44.5,108,45.6,108,46.7,107.8z M10,90.6l2.2-3.3c-1.2-0.2-2.3-0.6-3.3-1.1c-0.5-0.3-1-0.7-1.4-1.2c-0.4-0.5-0.7-1-0.8-1.6
			l-1.9,4.2C4.7,87.8,5.9,90.3,10,90.6z"/>
		<path class="st28" d="M18.9,51.5c0-0.3,0.3-0.3,0.3-0.6c0-0.3,0.6-1.4,1.1-1.7c0.6-0.3,1.4-0.6,1.4,0c0,0.6-0.3,0.6-0.3,0.8
			c0,0.3-0.8,0.8-1.1,1.4C20,52.1,20,52.8,20,53.4c-0.3,1.3-0.3,2.6,0,3.9c0.3,1.1,1.1,1.7,2.2,2.2c0.6,0.3,1.4,0.6,1.9,0.8
			c1.7,0.3,3.4,0.2,5-0.3c1.1-0.3,2.1-0.8,3.1-1.4c1-0.6,2-1.3,2.8-2.2c0.9-0.9,1.5-2.1,1.7-3.3c0-0.4-0.1-0.7-0.2-1.1
			c-0.1-0.3-0.4-0.6-0.6-0.9l-0.3-0.3v-0.3c0-0.3-0.3-0.6-0.3-0.8c0-0.3,1.1,0.3,1.1,0.6c0.6,0.3,1.7,0.8,1.7,1.7
			c0.2,1.3,0,2.7-0.5,3.9c-0.5,1.2-1.4,2.3-2.6,3c-0.4,0.5-0.9,0.8-1.4,1.1c-0.6,0.5-1.2,0.8-1.9,1.1c-1.6,1-3.5,1.5-5.4,1.6
			c-1.9,0-3.8-0.4-5.5-1.3c-0.6-0.3-1.1-0.8-1.4-1.4c-0.5-1.2-0.9-2.4-1.1-3.6C18,54.8,18.2,53.1,18.9,51.5z"/>
		<path class="st26" d="M38.9,59.8l-1.1,1.1c-0.6,1.1-1,2.2-1.4,3.3c-0.4,1.8-0.7,3.7-0.8,5.5v5.5c0.3,0,0.6-0.3,0.8-0.3
			c0.3,0,0.8-0.3,1.4-0.6v0.4c0-0.6-0.3-0.8-0.3-1.4c0-0.6-0.3-1.7-0.6-2.5c-0.3-1.8-0.2-3.6,0.3-5.3c0.2-0.9,0.4-1.7,0.8-2.5
			c0-0.3,0.3-0.6,0.3-0.8c0-0.3,0.3-0.3,0.3-0.6c0-0.3,0.8-1.1,1.1-1.7l1.1-1.1c0.6-0.3,0.8-0.3,1.4-0.6c1.4-0.2,2.8-0.1,4.2,0.3
			v-0.3c0-0.1-0.1-0.3-0.2-0.4C46.1,58.1,46,58,45.8,58c-1-0.3-2.1-0.5-3.2-0.3c-1.1,0.1-2.1,0.5-3,1.1
			C39.5,59.2,39.2,59.5,38.9,59.8z M35.3,82.8c-0.1,3.6,0.1,7.2,0.6,10.8c0.2,1.7,0.3,3.5,0.3,5.3c1.6-0.4,3.1-1.1,4.4-1.9
			c0-1.3-0.2-2.6-0.6-3.9c-0.5-3.9-0.8-7.8-0.8-11.7v-0.3c-1,0.5-2,0.8-3.1,1.1C35.8,82.6,35.6,82.8,35.3,82.8z"/>
		<path class="st29" d="M36.1,80.1c0.9-0.2,1.7-0.5,2.5-0.8v-0.6c-0.2-0.4-0.4-0.9-0.6-1.4c-0.6,0.3-1.3,0.5-1.9,0.6
			c-0.3,0-0.6,0.3-0.8,0.3v2.4c0.2,0,0.3,0,0.5-0.1C35.9,80.3,36,80.2,36.1,80.1z"/>
		<path class="st30" d="M33.9,50.9c0.3,0.8,0.3,1.1-0.3,1.7l-1.1,1.1c-0.6,0.6-1.1,0.8-1.7,1.4c-0.5,0.5-1.1,0.8-1.7,1.1
			c0.7-1.7,0.9-3.5,0.6-5.3c0-1.1-0.3-2.5-0.3-3.6v-0.1c0.2,0,0.3,0,0.4,0c0.1,0,0.3,0.1,0.4,0.2c0.8,0.2,1.6,0.7,2.2,1.3
			C33.2,49.4,33.6,50.1,33.9,50.9z"/>
		<path class="st31" d="M26.4,58.3c-1.7,0-3.4-0.5-4.7-1.7c-1.1-1.1-0.6-3.6-0.3-5c0.6-2.5,3.9-1.7,3.9-1.7H27
			c1.1,0,2.5-0.3,3.6-0.3h1.1c0.6,0,0.8-0.6,1.1-0.8c0.3-0.3,0.8,0,1.4,0c0.4,0.2,0.8,0.4,1.1,0.8c0.3,0.3,0.5,0.7,0.6,1.2
			c0.6,1.7-0.8,3.3-2.2,4.4c-1.4,1.5-3.3,2.4-5.3,2.8C27.7,58.2,27.1,58.3,26.4,58.3z"/>
		<path class="st32" d="M32.8,45.7v0.6c0,1,0,2.1,0.3,3.1c0,0.3,0.3,1.1,0,1.4c-0.3,0.3-0.6,0.6-0.8,0.6c-1.3,1-2.7,1.9-4.2,2.5
			c-3.9,1.4-5,0.6-5,0.6l-0.6-8l0.8-0.3c0.8-0.3,1.4-0.6,2.2-0.8c1.2-0.5,2.5-0.9,3.9-1.1h1.9c0.2,0,0.3,0,0.4,0
			c0.1,0,0.3,0.1,0.4,0.2c0.2,0.1,0.3,0.3,0.4,0.5c0.1,0.2,0.1,0.4,0.2,0.6C32.5,45.1,32.5,45.4,32.8,45.7z"/>
		<path class="st32" d="M30.3,47.3c-0.9-0.3-1.8-0.5-2.8-0.6c-0.9,0-1.9,0-2.8,0.3c-0.6,0.3-0.3,1.1-0.8,1.4
			c-0.6,0.3-1.1,0.3-1.7,0.6c-0.6,0.3-0.3,1.7,0,2.2v3.6c0.3,1.1,1.4,1.1,2.2,1.4c1.1,0.2,2.2,0.3,3.3,0.3c0.7-0.2,1.4-0.4,1.9-0.8
			c1.5-0.9,2.8-2,3.9-3.3c0.3-0.3,0-0.3,0-0.8c0-1-0.3-2-0.8-2.8C32,48.2,31.2,47.7,30.3,47.3z"/>
		<path class="st30" d="M32.5,44c0.6,0.2,1.1,0.6,1.4,1.1c0.3,0.6-0.3,1.7-0.3,2.2c0,0.9,0.1,1.9,0.3,2.8c0,0.6,0.3,1.1,0.3,1.9
			c0,0.4-0.2,0.8-0.4,1.1c-0.2,0.3-0.4,0.6-0.8,0.9c-0.8,0.6-1.4,1.1-2.2,1.7c-0.8,0.6-1.7,0.6-2.2,1.1c0.6-0.3,1.1-0.8,1.4-1.4
			c0.2-0.4,0.3-0.9,0.3-1.4c0-0.6,0.3-1.4-0.3-1.7c-0.3-0.2-0.7-0.3-1.1-0.3c-0.3,0-0.3,0.3-0.6,0.3c-1.8,0.3-3.7,0.5-5.6,0.6
			c-0.3,0-0.6,0-0.6-0.3s0-0.3,0.3-0.6c0.3-0.3,0.8-0.3,1.1-0.6c1.1-0.7,2.2-1.4,3.3-1.9c0.6-0.3,1.4-0.6,1.9-0.8
			c0.6-0.3,0.6-0.6,0.6-0.8v-1.4c0-0.6,0.3-0.8,0.3-1.4l0.3-1.4C30.9,43.7,31.7,43.8,32.5,44z"/>
		<path class="st33" d="M17,36.1v-0.3c0-0.6,0.1-1.2,0.4-1.8c0.2-0.6,0.6-1.1,1-1.5c0.5-0.8,1.1-1.4,1.9-1.9
			c0.8-0.5,1.6-0.8,2.5-0.9c1.8,0,3.6,0.3,5.2,1c1.6,0.7,3.1,1.8,4.3,3.1c0.3,0.3,0.3,0.6,0.6,0.6s0.3,0.6,0.3,0.8
			c1.7,3.9,6.4,4.7-1.7,13.3l-0.3,0.3c-0.1,0-0.1,0-0.2,0.1c-0.1,0.1-0.1,0.1-0.1,0.2l-0.3,0.3c-0.4,0.3-0.9,0.6-1.4,0.8
			c-1.3,1.1-2.8,1.8-4.4,2.2C22,53,19.5,52.2,19.2,50c-0.6-4.2-1.7-8-2.2-11.9V36.1z"/>
		<path class="st34" d="M18.6,32.6c0.8,0.6,1.1,0.3,1.1-0.6H20c1.3-0.5,2.7-0.8,4.2-0.8c1.1,0,2.2,0,3.3,0.3
			c1.7,0.3,3.4,1.1,4.7,2.2c0.3,0.3,0.3,0.6,0.6,0.6c0.3,0,0.3,0.6,0.3,0.8c1.7,3.9,6.4,4.7-1.7,13.3l-0.3,0.3c-0.1,0-0.1,0-0.2,0.1
			c-0.1,0.1-0.1,0.1-0.1,0.2l-0.3,0.3c-0.4,0.3-0.9,0.6-1.4,0.8c0.2-1.1,0.3-2.2,0.3-3.3v-1.4c0-0.6-0.3-0.8-0.6-1.4
			c-0.2-0.1-0.3-0.3-0.4-0.5c-0.1-0.2-0.1-0.4-0.2-0.6v-0.8c-0.3-1.1,0-2.5-0.3-3.6c-0.3-0.6-0.3-1.4-0.8-1.9
			c-0.3-0.4-0.7-0.7-1.1-1c-0.4-0.2-0.9-0.4-1.4-0.4h-3.1c-0.8,0-1.7-0.3-2.2-0.3c0,0-1.9,0-1.9-0.3C17.2,34.8,16.7,31.2,18.6,32.6z
			"/>
		<path class="st35" d="M18.6,30.5c1.1,0,1.1-0.8,2.2-1.9c1.8-1.7,4-2.9,6.4-3.5c1.4-0.3,2.8-0.2,4.2,0.3c1.4,0.4,2.6,1.2,3.6,2.2
			l0.3,0.3l0.3,0.3l0.3,0.3c0.3,0.3,0.6,0.7,0.8,1.1c0,0.1,0,0.1,0.1,0.2c0.1,0.1,0.1,0.1,0.2,0.1c0.6,0.8,0.9,1.8,0.8,2.8v2.2
			c-0.1,0.9-0.2,1.7-0.6,2.5l-0.8,2.5c0,0.3,0,0.3-0.3,0.6c0,1.1-0.2,2.3-0.6,3.3c-0.3,0.6-0.3,1.4-0.6,1.7l-1.1,1.1
			c0,0-0.8,0.6-1.4,1.1v-0.8c0.2-1.5,0.6-2.9,1.4-4.2c0.3-0.6,0.6-0.8,0.8-1.4v-0.8c-0.1-0.5-0.2-0.9-0.3-1.4
			c-0.6-0.8-1.9-0.6-2.5,0.3c-0.3,0.6-0.5,1.3-0.6,1.9c0,0.6-0.3,1.1-0.3,1.7v0.6c-0.6,0-0.8,0.3-1.4,0.3v-0.8
			c-0.3-1.7-0.6-3.1-0.8-4.7v-0.6c-0.6-2.8-3.6-3.9-8.6-3.9L16.4,34C16.1,33.5,15.3,30.5,18.6,30.5z"/>
		<path class="st36" d="M28.6,38.2v0.3c0.3,1.7,0.6,3.3,0.8,4.7V44c0.6,0,0.8-0.3,1.4-0.3v-0.8c-0.1-0.5,0-1,0.3-1.4
			c0.3-0.6,0.3-1.4,0.6-1.9c0.1-0.2,0.3-0.4,0.5-0.5c0.2-0.1,0.4-0.2,0.7-0.2c0.2,0,0.5,0,0.7,0.1c0.2,0.1,0.4,0.2,0.6,0.4
			c0.3,0.3,0.3,0.6,0.3,1.1v1.4c0,0.6-0.3,0.8-0.6,1.4c-0.9,1.2-1.4,2.7-1.4,4.2v0.6c0.5-0.3,1-0.7,1.4-1.1l1.1-1.1
			c0.3-0.6,0.3-1.1,0.6-1.7c0.3-1.1,0.6-2.2,0.8-3.1c0-0.3,0-0.3,0.3-0.6l0.8-2.5c0.3-0.8,0.3-1.7,0.6-2.5v-2.1
			c-0.3-0.8-0.6-1.9-0.8-2.8c0-0.1,0-0.1-0.1-0.2c-0.1-0.1-0.1-0.1-0.2-0.1c-0.8-0.8-1.1-1.4-1.1-1.7l-0.3-0.3l-0.3-0.3
			c0.3,0.3,0.3,0.6,0.6,0.6c0.4,1,0.4,2.2,0.2,3.2c-0.2,1.1-0.8,2.1-1.6,2.9c-0.7,0.5-1.4,1-2.2,1.4c-1.2,0.5-2.3,1.2-3.3,1.9
			C28.8,38,28.8,38.1,28.6,38.2c0,0,0,0.1,0,0.1V38.2z"/>
		<path class="st37" d="M36.1,98.9v2.5c1.6-0.4,3.1-1.1,4.4-1.9v-2.4c-1.4,0.8-2.9,1.5-4.4,1.9V98.9z"/>
		<path class="st28" d="M12.8,95c0.8,2.5,4.7,5,13.6,6.7c3.3,0.6,6.7,0.5,10-0.3v-2.5c-3.2,1-6.5,1-9.7,0.3
			c-8.9-1.7-12.8-4.2-13.6-6.7c-0.1-0.5-0.2-1.1-0.3-1.7C12.5,92.3,12.5,93.7,12.8,95z"/>
		<path class="st37" d="M35.3,82.8c0.3,0,0.6-0.3,0.8-0.3c1-0.3,2.1-0.7,3.1-1.1l-0.6-2.2c-0.8,0.4-1.6,0.6-2.5,0.8
			c-0.3,0-0.6,0.3-0.8,0.3V82.8z"/>
		<path class="st28" d="M13.4,77.3c1.4,2.2,5.6,4.2,13,5.5c3,0.5,6,0.4,8.9-0.3v-2.5c-2.9,0.7-5.9,0.8-8.9,0.3
			C18.9,79,15,77,13.4,74.8V77.3z"/>
		<path class="st37" d="M35.3,78.1c0.3,0,0.6-0.3,0.8-0.3c0.6-0.3,1.3-0.5,1.9-0.6v-0.6c-0.1-0.5-0.2-0.9-0.3-1.4v-0.3
			c-0.3,0.3-0.8,0.3-1.4,0.6c-0.6,0.3-0.6,0.3-0.8,0.3C35.3,76.6,35.2,77.4,35.3,78.1z"/>
		<path class="st28" d="M13.4,72.9c1.7,2.2,5.6,4.2,13,5.5c3,0.5,6.2,0.4,9.2-0.3v-2.5c-3,0.7-6.1,0.8-9.2,0.3
			c-7.2-1.4-11.4-3.3-13-5.5V72.9z"/>
	</g>
</g>
</svg>
