<?xml version="1.0" encoding="utf-8"?>
<!-- Generator: Adobe Illustrator 23.1.0, SVG Export Plug-In . SVG Version: 6.00 Build 0)  -->
<svg version="1.1" id="Layer_1" xmlns="http://www.w3.org/2000/svg" xmlns:xlink="http://www.w3.org/1999/xlink" x="0px" y="0px"
	 viewBox="0 0 231 165" style="enable-background:new 0 0 231 165;" xml:space="preserve">
<style type="text/css">
	.st0{fill:#A79D2D;}
	.st1{fill:#D4C931;}
	.st2{fill:#C2B92F;}
	.st3{fill:#E5C172;}
	.st4{clip-path:url(#SVGID_2_);}
	.st5{fill:#E9EEF0;}
	.st6{fill:#996932;}
	.st7{fill:#A87438;}
	.st8{fill:#1F1F1F;}
	.st9{fill:#825520;}
	.st10{fill:#42260B;}
	.st11{fill:#3D2003;}
	.st12{fill:#21AFDB;}
	.st13{fill:#EBEBEB;}
	.st14{fill:#E8B58F;}
	.st15{fill:#1C4059;}
	.st16{fill:#12344A;}
	.st17{fill:#32A6A0;}
	.st18{fill:#48C2C1;}
	.st19{fill:#1F4964;}
	.st20{fill:#133B54;}
	.st21{fill:#4FC2BE;}
	.st22{fill:#46B3B0;}
	.st23{fill:#E0AA82;}
	.st24{fill:#4DC2BF;}
	.st25{fill:#1EAAF1;}
	.st26{fill:#78D4C3;}
	.st27{fill:#F4FAFC;}
	.st28{fill:#20ABE2;}
	.st29{fill:#D98F6C;}
	.st30{fill:#51D6BE;}
	.st31{fill:#EAA685;}
	.st32{fill:#F0B88F;}
	.st33{fill:#DF9876;}
	.st34{fill:#A34512;}
	.st35{fill:#7D350E;}
	.st36{fill:#B8E0CA;}
</style>
<path class="st0" d="M169.8,111.5l7.7,4.4l-5.1,3L169.8,111.5z"/>
<path class="st1" d="M218.5,68.7L103.4,2.5l-8.1,14.6l21.6,64.1l88.1,50.7l21.6-39.3L218.5,68.7z"/>
<path class="st0" d="M185.3,66.6V69l-21.8-12.5V42.8l1.6,0.9v11.3L185.3,66.6z"/>
<path class="st2" d="M185.3,55.5v11.1l-20.2-11.6V43.7L185.3,55.5z"/>
<path class="st0" d="M215.7,86.5L190.2,72V58.3l1.6,0.9v11.1l22.7,13.2L215.7,86.5z"/>
<path class="st2" d="M214.5,83.5l-22.7-13.2V59.2l17.4,10L214.5,83.5z"/>
<path class="st0" d="M131.9,35.9v2.3l-25.5-14.6l6.5-9.7l0.5,0.2l-5.3,7.9L131.9,35.9z"/>
<path class="st2" d="M131.9,24.8v11.1L108.1,22l5.3-7.9L131.9,24.8z"/>
<path class="st0" d="M158.6,51.1v2.5l-21.8-12.5V27.5l1.6,0.9v11.1L158.6,51.1z"/>
<path class="st2" d="M158.6,40v11.1l-20.2-11.6V28.5L158.6,40z"/>
<path class="st3" d="M222.9,66.2L107.8,0l-4.4,2.5l115.1,66.2L222.9,66.2z"/>
<path class="st0" d="M196.4,119.9l-0.9,1.9L124.8,81l-14.4-44.7l2.6,1.4l13.5,41.7L196.4,119.9z"/>
<path class="st2" d="M211.3,94.4l-14.8,25.5l-70.1-40.5l-13.5-41.7L211.3,94.4z"/>
<path class="st0" d="M222.9,66.2l-4.4,2.5l8.1,23.8l4.4-2.3L222.9,66.2z"/>
<path class="st3" d="M59.1,38l36.2-20.8l4.4,2.3L63.5,40.5L59.1,38z"/>
<path class="st0" d="M99.7,19.4L63.5,40.5l50.1,28.7L99.7,19.4z"/>
<path class="st1" d="M161.2,101.8L46.1,35.4L38,50l21.6,64.1L148,165l21.3-39.3L161.2,101.8z"/>
<path class="st0" d="M128,99.5v2.5l-21.8-12.5V75.9l1.6,0.9v11.1L128,99.5z"/>
<path class="st2" d="M128,88.4v11.1l-20.2-11.6V76.8L128,88.4z"/>
<path class="st0" d="M158.6,119.6l-25.7-14.8V91.2l1.9,0.9v11.3l22.5,13L158.6,119.6z"/>
<path class="st2" d="M157.2,116.4l-22.5-13V92.1l17.2,10L157.2,116.4z"/>
<path class="st0" d="M74.7,68.7v2.5L49.1,56.5l6.7-9.7l0.5,0.2l-5.6,8.1L74.7,68.7z"/>
<path class="st2" d="M74.7,57.6v11.1L50.8,55.1l5.6-8.1L74.7,57.6z"/>
<path class="st0" d="M101.3,84.2v2.3L79.5,74.1V60.4l1.6,0.9v11.3L101.3,84.2z"/>
<path class="st2" d="M101.3,73.1v11.1L81.1,72.7V61.3L101.3,73.1z"/>
<path class="st0" d="M165.6,99.3l-4.4,2.5l8.1,23.8l4.4-2.5L165.6,99.3z"/>
<path class="st3" d="M165.6,99.3L50.5,33.1l-4.4,2.3l115.1,66.4L165.6,99.3z"/>
<path class="st0" d="M139.1,152.7l-0.9,1.9l-70.8-40.7L53.1,69.2l2.8,1.6l13.2,41.7L139.1,152.7z"/>
<path class="st2" d="M154,127.3l-14.8,25.5l-70.1-40.3L55.9,70.8L154,127.3z"/>
<path class="st0" d="M231,90.3l-61.7,35.4L148,165l61.5-35.4L231,90.3z"/>
<path class="st3" d="M172.3,118.9l49.9-28.7l4.4,2.3l-52.9,30.5L172.3,118.9z"/>
<g>
	<defs>
		<rect id="SVGID_1_" y="15" width="50" height="150"/>
	</defs>
	<clipPath id="SVGID_2_">
		<use xlink:href="#SVGID_1_"  style="overflow:visible;"/>
	</clipPath>
	<g class="st4">
		<path class="st5" d="M49.2,159.3c-1.1,6.7-11.9,7.8-24.4,2.8c-12.5-5-21.4-14.4-20.3-21.1c1.1-6.7,11.9-7.8,24.4-2.8
			C41.4,143.2,50.3,152.5,49.2,159.3z"/>
		<path class="st6" d="M37,137.2h-2.2c-1.1,0-3.6,0.6-3.6,1.9v2.2c0.1,1,0,2.1-0.3,3.1c0,1.4-1.1,2.5-1.9,3.9
			c-0.8,1.2-1.5,2.5-1.9,3.9c-0.5,0.9-0.8,2-0.8,3.1c0,1.3,0.3,2.7,0.8,3.9c0.2,0.3,0.5,0.6,0.9,0.8c0.3,0.2,0.7,0.3,1.1,0.3
			c0.4,0.2,0.9,0.3,1.4,0.3h0.8c1.5-0.4,2.7-1.3,3.6-2.5c0.6-0.6,0.8-1.1,1.4-1.7c0.5-0.8,0.9-1.6,1.1-2.5l0.6-1.7h0.3
			c0.3,0,1.1-1.4,1.1-1.7c0.3-0.6,0.6-1.3,0.8-1.9c0.3-0.6,0.6-0.8,0.6-1.4c0.2-0.9,0.3-1.8,0.3-2.8c0-0.8-0.3-1.4-0.3-2.2
			s0.3-1.1,0.3-1.9c0-0.8,0.6-1.9-0.3-2.5c-0.3-0.3-1.1-0.3-1.7-0.6c-0.6-0.3-1.1-0.3-1.7-0.6C37.2,137.2,37,137.2,37,137.2z"/>
		<path class="st7" d="M28.1,155c3.1,3.3,6.9-0.8,7.8-3.9c0.4-1.5,0.6-3.1,0.6-4.7c0-1.1,0.3-2.2,0.3-3.3c0-0.3-0.1-0.6-0.2-0.9
			c-0.1-0.3-0.4-0.5-0.6-0.7c-0.3-0.2-0.7-0.3-1.1-0.3c-0.6,0-1.1-0.3-1.7,0c-0.7,0.1-1.4,0.4-1.9,0.8h-0.3v0.3
			c0.2,1.9-0.2,3.9-1.1,5.5c-1.1,1.7-3.1,4.2-2.8,6.1C27.5,154.1,27.8,154.7,28.1,155z"/>
		<path class="st8" d="M35,150c0-0.8-0.8-1.1-1.4-1.7c-0.6-0.6-0.6-0.3-0.6-0.6c0-0.3-0.6-0.6-0.6-0.8c0.4-0.3,0.9-0.3,1.4-0.3h0.3
			c0.6,0,1.1-0.3,1.1-0.6c0-0.2,0-0.3,0-0.4s-0.1-0.3-0.2-0.4c-0.3-0.3-0.6-0.6-0.8-0.6h-0.3c-0.1,0-0.3-0.1-0.4-0.2
			c-0.1-0.1-0.2-0.2-0.2-0.4v-0.3c0.4-0.3,0.9-0.3,1.4-0.3H35c0.3,0,0.6,0,0.6-0.3c0-0.3,0.3-0.6,0.3-0.8c0-0.3-0.6-0.6-0.8-0.8
			l-0.3-0.3c-0.2-0.1-0.3-0.3-0.4-0.5c-0.1-0.2-0.1-0.4-0.1-0.6c0-0.3,0.3-0.6,0.8-0.6v-0.3c-0.3,0.3-0.8,0.6-0.8,0.8
			c0,0.3,0,0.5,0.1,0.8c0.1,0.2,0.3,0.5,0.5,0.6l0.3,0.3c0.3,0.3,0.6,0.6,0.6,0.8c0,0.1,0,0.1-0.1,0.2c-0.1,0.1-0.1,0.1-0.2,0.1
			h-0.8c-0.6,0-1.4,0-1.7,0.6c-0.3,0.6-0.3,0.3,0,0.6c0,0.1,0.1,0.3,0.2,0.4c0.1,0.1,0.2,0.2,0.4,0.2h0.3c0.3,0.3,0.6,0.3,0.8,0.6
			c0.2,0.1,0.2,0.3,0.3,0.6c0,0.3-0.6,0.3-1.1,0.3h-0.3c-0.5-0.1-1,0-1.4,0.3l-0.3,0.3v0.3c0,0.2,0.1,0.4,0.2,0.6
			c0.1,0.2,0.2,0.4,0.4,0.5c0.3,0.3,0.6,0.3,0.6,0.6c0.5,0,0.9,0.2,1.3,0.4C34.5,149.2,34.8,149.6,35,150z"/>
		<path class="st8" d="M31.1,148.6c0.8,0,1.7,0,2.5-0.3c0.2,0,0.4-0.1,0.6-0.3s0.2-0.4,0.3-0.6c0-0.6-0.3-0.8-0.8-1.1h-0.3l-0.3-0.3
			c-0.3,0-0.3-0.3-0.6-0.6v-0.8c0.3-0.3,0.6,0,1.1,0h0.3c0.2,0,0.3,0,0.4,0c0.1,0,0.3-0.1,0.4-0.2c0.1-0.2,0.2-0.4,0.2-0.6
			c0-0.2-0.1-0.4-0.2-0.6c-0.3-0.3-0.6-0.3-0.8-0.6h-0.3c-0.3-0.3-0.6-0.3-0.6-0.6v-0.3h0.3c0.7,0,1.3-0.1,1.9-0.3
			c0.1,0,0.1,0,0.2-0.1c0.1-0.1,0.1-0.1,0.1-0.2v-0.3c-0.1-1.1-0.6-2.2-1.4-3.1l-0.3,0.3c0.7,0.7,1.1,1.7,1.1,2.8v0.3h-0.3
			c-0.5,0.2-1.1,0.3-1.7,0.3h-0.6c-0.3,0.3-0.3,0.3-0.3,0.6c0,0.3,0.3,0.6,0.8,0.8h0.3c0.2,0,0.4,0.1,0.6,0.3c0.1,0,0.1,0.1,0.1,0.2
			c0,0.1,0.1,0.2,0.1,0.2s0,0.2-0.1,0.2c0,0.1-0.1,0.1-0.1,0.2c-0.3,0.3-0.3,0.3-0.6,0.3H33c-0.6,0-0.8,0-1.1,0.3
			c-0.2,0.3-0.3,0.7-0.3,1.1c0,0.3,0.3,0.3,0.6,0.6h0.6c0.3,0.3,0.6,0.6,0.6,0.8c0,0.3-0.3,0.3-0.6,0.6c-1,0.2-2,0.3-3.1,0.3v0.3
			C30.2,148.4,30.6,148.5,31.1,148.6z"/>
		<path class="st9" d="M8.3,143.6c-0.3,2.2,1.1,2.8,3.1,2.8c1.4,0.1,2.8-0.1,4.2-0.6c0.8-0.3,3.3-0.8,3.9-1.7
			c0.3-0.4,0.6-0.7,0.8-1.1l1.1-0.6v0.8c0.9-0.2,1.7-0.5,2.5-0.8c1.1-0.3,2.1-1,2.8-1.9c0.1-1,0.1-2,0-3.1c0.1-1.4,0.1-2.8,0-4.2
			c0.1-0.5,0-1-0.2-1.5s-0.5-0.9-0.9-1.3c-0.3-0.3-0.8-0.3-1.1-0.6c-0.9-0.2-1.8-0.3-2.8-0.3h-2.8c-0.8,0-1.7,0.8-2.2,1.4
			c-0.4,0.8-0.6,1.6-0.6,2.5c0,0.8,0,2.2-0.6,2.8c0,0.8-1.1,1.1-1.9,1.7c-0.7,0.4-1.5,0.8-2.2,1.1c-0.8,0.5-1.5,1.1-2,1.9
			C8.8,141.8,8.5,142.7,8.3,143.6z"/>
		<path class="st10" d="M26.1,155.2c-0.1,1.1,0.2,2.2,0.8,3.1c0.2,0.3,0.5,0.6,0.9,0.8c0.3,0.2,0.7,0.3,1.1,0.3
			c0.4,0.2,0.9,0.3,1.4,0.3h0.8c1.5-0.4,2.7-1.3,3.6-2.5c0.6-0.6,0.8-1.1,1.4-1.7c0.5-0.7,0.9-1.6,1.1-2.5l0.6-1.7h0.3
			c0.3,0,1.1-1.4,1.1-1.7c0.3-0.6,0.6-1.3,0.8-1.9c0.3-0.6,0.6-0.8,0.6-1.4c0.1-0.5,0.2-0.9,0.3-1.4c0.1,0.8,0,1.5-0.3,2.2
			c0,0.6-0.6,0.8-0.6,1.4c0,0.6-0.6,1.4-0.8,1.9c-0.3,0.6-0.8,1.7-1.1,1.7h-0.3l-0.6,1.7c-0.3,0.9-0.6,1.7-1.1,2.5
			c-0.4,0.6-0.8,1.2-1.4,1.7c-1,1.1-2.2,1.9-3.6,2.5h-0.8c-0.5,0.1-1,0-1.4-0.3c-0.6-0.3-1.7-0.6-1.9-1.1
			C26.4,157.9,26.1,156.6,26.1,155.2z"/>
		<path class="st11" d="M11.4,145.4c1.4,0.1,2.8-0.1,4.2-0.6c0.8-0.3,3.3-0.8,3.9-1.7c0.3-0.4,0.6-0.7,0.8-1.1l1.1-0.6v0.8
			c0.9-0.2,1.7-0.5,2.5-0.8c1.1-0.3,2.1-1,2.8-1.9v0.8c-0.7,1-1.7,1.6-2.8,1.9c-0.8,0.4-1.6,0.6-2.5,0.8v-0.8l-1.1,0.6
			c-0.3,0.3-0.6,0.7-0.8,1.1c-0.6,0.8-2.8,1.4-3.9,1.7c-1.3,0.4-2.8,0.6-4.2,0.6c-1.9,0-3.1-0.6-3.1-2.8h0
			C8.6,145,9.7,145.4,11.4,145.4z"/>
		<path class="st8" d="M14.5,139.1l-0.3-1.1v-0.3h0.3c0.6,0,1.1-0.1,1.7-0.3c0.3-0.1,0.5-0.3,0.6-0.6c0.1-0.2,0.2-0.5,0.2-0.8
			c0-0.3,0-0.3-0.3-0.6c-0.3-0.3-0.3-0.3-0.3-0.6c0-0.3,0.3-0.3,0.6-0.3c0.2,0,0.3,0,0.4,0c0.1,0,0.3-0.1,0.4-0.2
			c0.3-0.3,0.3-0.6,0.3-1.1s-0.3-0.6-0.6-0.8l-0.3-0.3c0,0,0-0.1,0-0.1c0,0,0-0.1,0.1-0.1c0,0,0.1,0,0.1-0.1c0,0,0.1,0,0.1,0
			l0.3-0.3h-0.3c0,0.1,0,0.1-0.1,0.2c-0.1,0.1-0.1,0.1-0.2,0.1c-0.2,0.1-0.2,0.3-0.3,0.6c0,0.3,0,0.3,0.3,0.6
			c0.3,0.3,0.3,0.6,0.6,0.8v0.8c-0.1,0.1-0.2,0.2-0.4,0.2c-0.1,0-0.3,0.1-0.4,0c-0.3-0.6-0.6-0.6-0.8-0.3c0,0.2,0,0.3,0,0.4
			s0.1,0.3,0.2,0.4l0.3,0.3c0,0.2-0.1,0.4-0.2,0.6c-0.1,0.2-0.2,0.4-0.4,0.5c-0.4,0.3-0.9,0.3-1.4,0.3h-0.3c-0.3,0-0.3,0.3,0,0.8
			V139.1z"/>
		<path class="st8" d="M15.3,138.3c0.3,0,0.6-0.3,0.8-0.3c0.3,0,0.3-0.3,0.3-0.6c0-0.2-0.1-0.4-0.3-0.6c0-0.3-0.3-0.6,0-0.6
			c0.3,0,0.3-0.3,0.6-0.3h0.8c0.3,0,0.6-0.3,0.8-0.6c0.1,0,0.1-0.1,0.2-0.2c0-0.1,0.1-0.2,0.1-0.2c0-0.1,0-0.2-0.1-0.2
			c0-0.1-0.1-0.1-0.2-0.2c0-0.1-0.1-0.3-0.2-0.4c-0.1-0.1-0.2-0.2-0.4-0.2l-0.3-0.3c-0.1-0.1-0.2-0.2-0.2-0.4c0-0.1-0.1-0.3,0-0.4
			c0-0.3,0.3-0.3,0.6-0.6h0.8c0.3,0,0.6-0.1,0.9-0.2c0.3-0.1,0.5-0.4,0.7-0.6l-0.3-0.3c-0.2,0.3-0.4,0.5-0.7,0.7
			c-0.3,0.1-0.6,0.2-1,0.2h-0.8c-0.3,0-0.6,0.3-0.8,0.6c0,0.4,0.1,0.8,0.3,1.1l0.3,0.3c0.3,0.3,0.3,0.3,0.3,0.6v0.8
			c0,0.3-0.3,0.3-0.6,0.6h-0.6c-0.3,0-0.6,0.3-0.8,0.3v0.8c0,0.3,0.3,0.3,0.3,0.6c0,0.3,0,0.3-0.3,0.6
			C15.9,138,15.6,138.3,15.3,138.3c-0.6-0.3-0.8-0.6-1.4-0.8l-0.3,0.3C14.1,138.1,14.7,138.3,15.3,138.3z"/>
		<path class="st12" d="M44.7,49.8c0.2,1.2,0.6,2.3,1.1,3.3c0,0.1,0,0.1,0.1,0.2c0.1,0.1,0.1,0.1,0.2,0.1c0.1,0,0.1,0,0.2-0.1
			c0.1-0.1,0.1-0.1,0.1-0.2c0.2-0.8,0.3-1.7,0.3-2.5c0-0.8-0.3-2.2-1.4-2.5h-0.6V49.8z"/>
		<path class="st13" d="M23.6,132.2C23.6,131.9,23.3,131.9,23.6,132.2L23.6,132.2z"/>
		<path class="st14" d="M2.8,80.9c0.7-0.6,1.4-1.2,2.2-1.7c0-0.3,0-0.3,0.3-0.6c0.6-0.8,1-1.6,1.4-2.5c0.8-1.7,1.4-3.3,2.2-5
			c1.1-2.5,3.1-9.2,3.1-9.2c4.7-1.4,5,4.7,4.2,6.1c-0.8,1.4-2.2,2.8-3.1,4.4c-0.8,1.1-1.4,2.5-2.2,3.9c-0.3,0.3-0.3,0.8-0.6,1.1
			C10,77.8,10,78.1,10,78.4c-0.3,0.8-0.6,1.4-0.8,2.2c-0.3,0.8,0,1.7-0.3,2.5c0,0.3,0,0.6-0.2,0.8c-0.2,0.3-0.4,0.4-0.7,0.5
			c-0.5,1.2-1.2,2.3-1.9,3.3c-0.6,0.8-0.3,0.8-2.2,0.8c-1.9,0-1.4-1.1-1.4-1.1l-0.6-0.3c-0.1,0-0.1-0.1-0.2-0.1
			c-0.1-0.1-0.1-0.1-0.1-0.2c0-0.1,0-0.2,0-0.2c0-0.1,0-0.2,0.1-0.2l1.4-3.6c0-0.2-0.1-0.4-0.3-0.6c-0.8,0.3-2.2,0.8-2.8,0.6
			C-0.2,82,2,81.6,2.8,80.9z"/>
		<path class="st15" d="M19.7,84.5c0.2-0.4,0.3-0.8,0.3-1.3c-0.1-0.5-0.2-0.9-0.6-1.2c0.3-0.3,0.3-0.6,0.3-1.1
			c0.4,0.1,0.8,0.3,1.1,0.6c1.8,1.3,3.2,3.1,3.9,5.3c0.3,0.3,0.3,0.8,0.6,1.1c1.1,2.8,0.3,6.1,0.3,9.2c-0.3,3.8,0,7.6,0.8,11.4
			c1.3,5.1,1.8,10.3,1.4,15.5c-0.3,4.2,0,11.7,0,11.7c-0.6,0.8-1.4,1.4-2.4,1.8c-0.9,0.4-1.9,0.5-2.9,0.5c-1.4,0.1-2.7-0.3-3.9-1.1
			c-0.6-0.2-1.1-0.7-1.4-1.2c-0.3-0.6-0.4-1.2-0.3-1.8c0.3-3.9,0-7.8,0-11.7c-0.6-3.3-0.8-6.7-1.4-9.7c-0.6-3.4-1-6.8-1.1-10.3
			c-0.3-2.8-1.7-12.5-0.8-16.4C15.6,85.9,18.6,86.4,19.7,84.5z"/>
		<path class="st16" d="M24.7,126.7c0.4-5.2,0-10.5-1.4-15.5c-0.7-3.7-1-7.6-0.8-11.4c0-2.8,0.8-6.4-0.3-9.2c0-0.6-0.3-0.8-0.3-1.4
			c-0.7-1.5-1.5-2.9-2.5-4.2l0.6-0.6c0.2-0.4,0.3-0.8,0.3-1.3c-0.1-0.5-0.2-0.9-0.6-1.2c0.3-0.3,0.3-0.6,0.3-1.1
			c0.4,0.1,0.8,0.3,1.1,0.6c1.8,1.3,3.2,3.2,3.9,5.3c0.3,0.3,0.3,0.8,0.6,1.1c1.1,2.8,0.3,6.1,0.3,9.2c-0.3,3.8,0,7.6,0.8,11.4
			c1.3,5.1,1.8,10.3,1.4,15.5c-0.3,4.2,0,11.7,0,11.7c-0.7,1-1.8,1.7-3.1,1.9C24.5,133.9,24.4,130.3,24.7,126.7z"/>
		<path class="st17" d="M20.8,38.4c-0.9-0.2-1.9-0.2-2.8-0.1c-0.9,0.2-1.8,0.6-2.5,1.2c-1.9,2.2-1.9,3.6-1.9,8c0,4.4,0.2,9,0.2,9
			L5.8,77.1c1.6,0.5,3,1.6,3.9,3.1c0.3,0.6,5.3-9.2,5.8-9.7C21.1,64.9,25.3,39.3,20.8,38.4z"/>
		<path class="st18" d="M13.9,43.7c0.2-1.4,0.9-2.8,2-3.7c0.7-0.6,1.6-1.1,2.5-1.3c0.9-0.2,1.9-0.1,2.8,0.2c0.8,0,1.1,1.1,1.4,2.5
			c-1.4,0.1-2.8,0.1-4.2,0c-0.7,0-1.4,0.2-2,0.6c-0.6,0.3-1.2,0.8-1.6,1.4C14.2,43.2,13.9,43.4,13.9,43.7z"/>
		<path class="st19" d="M28.3,122.2c-0.3-2.5-1.4-5.3-1.7-7.8c-0.6-3.3-1.1-8.6-1.4-11.9c0-2-0.2-3.9-0.6-5.8v-0.6
			c0-0.1,0-0.1-0.1-0.2c-0.1-0.1-0.1-0.1-0.2-0.1l-1.1-1.1c-0.9-0.8-1.6-1.9-1.9-3.1c-0.2-1.9-0.1-3.8,0.6-5.5c0-0.3,0-0.3-0.3-0.6
			c-0.3-0.3-0.6-0.6-0.8-0.6c-0.6-0.6-1.4-0.8-1.9-1.4l-2.8-1.9c-0.6-0.2-1.3-0.3-1.9-0.3c0-2.7,0.5-5.5,1.4-8c0,0-0.6,1.4,8.1,6.1
			c1.9,1.2,4.1,2.1,6.4,2.5c2.5,0.6,5.6-0.6,7.8,1.1c1,0.8,1.8,1.8,2.3,3c0.5,1.2,0.8,2.4,0.8,3.7c0.4,3.4,0.5,6.8,0.3,10.3
			c-0.6,6.6-0.8,13.3-0.6,20c0.6,6.4,0.7,12.8,0.3,19.1c-0.3,1.9,0.3,5.5-1.4,7.2c-1.1,1.1-2.6,1.7-4.2,1.7c-1.5,0.5-3,0.4-4.4-0.3
			c-1.4-1.1-1.1-3.9-1.4-5.5c-0.2-2.7-0.3-5.4-0.3-8C29.2,130.2,28.9,126.2,28.3,122.2z"/>
		<path class="st20" d="M37.5,141.4c0.3-6.4,0.2-12.8-0.3-19.1c-0.4-6.7-0.2-13.3,0.6-20v-5.5c0-1.2-0.2-2.4-0.6-3.6
			c-1.1,0.4-2.2,0.7-3.3,0.8c-1.3,0.3-2.6,0.3-3.9,0c-2.8-0.3-5.3-1.4-8.1-1.9c-2.6-0.3-5.1-1.3-7.2-2.8c-0.3-0.3-0.6-0.3-0.6-0.6
			c-0.6,0-0.6-0.3-0.6-0.6c-0.4-5.1,0.1-10.3,1.7-15.3c0,0-0.6,1.4,8.1,6.1c1.9,1.2,4.1,2.1,6.4,2.5c2.5,0.6,5.6-0.6,7.8,1.1
			c1,0.8,1.8,1.8,2.3,3c0.5,1.2,0.8,2.4,0.8,3.7c0.4,3.4,0.5,6.8,0.3,10.3c-0.6,6.6-0.8,13.3-0.6,20c0.6,6.4,0.7,12.8,0.3,19.1
			c-0.3,1.9,0.3,5.5-1.4,7.2c-0.7,0.6-1.6,1.1-2.5,1.4C37.4,145.4,37.7,143.3,37.5,141.4z"/>
		<path class="st21" d="M14.2,62.9c0.3,3.5,0.3,7,0,10.5c0,1.4-0.3,3.1-0.3,4.4c-0.2,1.3-0.3,2.6-0.3,3.9c0.3,1.1,0.6,1.9,0.8,3.1
			c0,0.3,0.3,0.8,0.3,1.1c0.4,0.9,1.1,1.7,1.9,2.2c1,0.5,2,0.9,3.1,1.1c5.9,2.2,12.4,2.2,18.3,0c0,0-1.7-15-0.6-16.9
			c1.1-1.9,7.2-10,7.5-14.4s1.1-8.6-3.6-12.2c-2.2-2-4.5-3.7-6.9-5.3c-1.7-1-3.5-2-5.3-2.8c-1.8-0.6-3.7-0.6-5.6,0
			c-2.7,0.4-5.1,1.6-7,3.6C13.9,43.7,13.4,51.1,14.2,62.9z"/>
		<path class="st22" d="M17,40c-0.7,0.7-1.4,1.4-1.9,2.2C14.4,43,13.9,44,13.6,45c-0.7,2.6-0.7,5.4-0.3,8c0.3,3.9,0,8,0,12.2v10.5
			c0,2.1-0.3,4.1-0.8,6.1c-0.1,0.9-0.1,1.9,0,2.8c0.1,1.1,0.6,2,1.4,2.8c1,0.6,2,1.2,3.1,1.7c0.3,0,2.5,0.6,2.5,0.8
			c-0.5-8.5-0.4-17,0.3-25.5c0.2-3.1,0.7-6.2,1.4-9.2c0.6-1.9,0.8-3.9,1.4-5.8c0.3-0.8,0.8-1.9,0.6-2.5c-0.3-0.6-0.6-0.6-0.8-0.6
			c-0.6-0.8-1-1.8-1.1-2.8c0-0.4-0.1-0.8-0.3-1.1c0-0.2,0-0.3,0-0.4c0-0.1-0.1-0.3-0.2-0.4c-0.1-0.3-0.3-0.5-0.6-0.6
			c-0.2-0.1-0.5-0.2-0.8-0.2C18.9,40,17.5,39.3,17,40z"/>
		<path class="st17" d="M25,40.9c-2.6-0.7-5.3-1.2-8.1-1.4c1.4-1.6,3.2-2.8,5.3-3.3c2.2-0.3,4.4,0,6.4,0.8c1.8,0.8,3.6,1.7,5.3,2.8
			c3.1,1.6,6.1,3.5,8.9,5.5c4.2,3.6,3.3,7.5,3.6,12.2c0,0.6-1.9,0.8-2.2,1.4c-0.9,2.6-2.1,5.1-3.6,7.5c-0.4,0.7-0.9,1.3-1.4,1.9
			c-0.3,0.3-0.3,1.1-0.3,1.7v3.6c0,1.4,0.3,3.1,0.3,4.4c0,0.8,0.3,1.4,0.3,2.2s-0.8,2.2-0.6,3.3c0.3,1.1,0.8,1.9,0.6,2.8
			c-0.3,0.8,0,1.7-0.6,1.9c-0.6,0.3-0.8,0.3-1.4,0.6c-0.4,0.2-0.9,0.3-1.4,0.3c0,0-0.3-6.9-0.3-7.2v-7.8c-0.3-3.3-0.6-6.7-0.6-10.3
			c-0.1-1.5-0.1-3,0-4.4c0-1.6,0.2-3.2,0.6-4.7c0.1-2.2,0.5-4.4,1.4-6.4c0.3-0.7,0.8-1.2,1.4-1.7c0.8-0.8,0.8-1.1,0-1.9
			c-0.7-0.7-1.5-1.3-2.5-1.7c-1.1-0.6-2.2-1-3.3-1.4c-0.3,0-0.6-0.3-0.8-0.3C29.6,41.6,27.3,41.4,25,40.9z"/>
		<path class="st14" d="M38.1,101.1c0.3-0.3,0.6-0.8,1.1-1.1c0-0.1,0-0.1,0.1-0.2c0.1-0.1,0.1-0.1,0.2-0.1c0.6-0.8,1.4-1.1,1.7-1.9
			c0.3-0.8,0.5-1.6,0.5-2.4c0.3-3.6-0.6-10.5,0.3-14.4c0.8-3.9,7.2-1.1,7.2-1.1c0,3.6-0.7,7.2-1.9,10.5c-1.9,6.4-2.5,7.2-2.5,9.7
			c0,0.8,0.3,1.4-0.3,2.2c-0.3,0.3-0.3,1.1-0.8,1.7c-0.3,1-0.6,1.9-1.1,2.8c-0.3,0.8,0,0.8-2.2,1.7s-1.7-0.6-1.7-0.6H38
			c-0.1,0-0.3-0.1-0.4-0.2c-0.1-0.1-0.2-0.2-0.2-0.4l0.8-3.9c0-0.3,0-0.3-0.3-0.6c-0.8,0.6-2.2,1.7-2.8,1.4
			C35.3,103.4,37.5,102,38.1,101.1z"/>
		<path class="st23" d="M49.2,79.8c0,3.6-0.7,7.2-1.9,10.5c-1.9,6.4-2.5,7.2-2.5,9.7v1.9c-0.3-1.2-0.5-2.4-0.6-3.6
			c0.5-3,1.1-6,1.9-8.9c0.7-3.4,0.9-6.8,0.6-10.3C47.5,79.2,48.4,79.4,49.2,79.8z"/>
		<path class="st24" d="M38.9,46.2c0,0,5.8-2.5,7.2,5.5s1.4,11.1,2.5,17.2c1.1,6.1,1.1,7.5,1.4,9.2c-0.4,4.3-1.1,8.6-2.2,12.8
			c-1.1,4.2-2.2,7.2-2.2,7.2c-0.2-0.5-0.5-1-0.9-1.4c-0.4-0.3-1-0.5-1.6-0.6c-1.9,0-2.2,0.6-2.2,0.6l0.3-19.4c0,0-6.7-18.6-5.8-23
			C36.1,49.8,36.7,47,38.9,46.2z"/>
		<path class="st17" d="M43.1,48.4c0.6,0.3,1.1,0.6,0.8,1.1c0,0.2-0.1,0.4-0.3,0.6c-0.2,0.2-0.4,0.2-0.6,0.3
			c-1.2,0.3-2.3,0.8-3.3,1.4c-0.8,0.9-1.5,1.9-1.9,3.1c-0.3,1.1-0.5,2.2-0.6,3.3c-0.1,1-0.1,2,0,3.1c0.4,2.5,1,4.9,1.9,7.2
			c0.8,2.8,1.7,5.8,2.5,8.6c0,0-0.3,13.9-0.6,13.9V77.3c-0.8-2.8-1.9-5.5-2.8-8.3c-0.8-2.3-1.4-4.6-1.9-6.9l-0.8-3.3
			c-0.1-1.2-0.1-2.4,0-3.6c0-1.7,0-4.4,1.4-5.5c0.9-0.6,1.9-1.1,2.9-1.2C40.9,48.1,42,48.1,43.1,48.4z"/>
		<path class="st17" d="M46.1,93.1c1-5.1,1.7-10.3,1.9-15.5c0-1.7-0.8-3.9-1.9-10.3s-1.7-7.5-3.1-15.5c-0.6-3.9-2.2-5.3-3.9-5.8
			c0.8-0.3,5.8-1.9,6.9,5.5c1.4,8.3,1.4,11.1,2.5,17.2c1.1,6.1,1.1,7.5,1.4,9.2c-0.4,4.3-1.1,8.6-2.2,12.8c-1.1,4.2-2.2,7.2-2.2,7.2
			c-0.2-0.4-0.5-0.8-0.8-1.1C45.4,95.6,45.9,94.4,46.1,93.1z"/>
		<path class="st25" d="M19.2,42c0.3-0.8,0.3-1.4,0.8-1.9l1.9-1.9l1.1-1.1c-2.7,0.3-5.1,1.6-6.9,3.6c-2.7,3.5-4,7.8-3.6,12.2
			c0.1,2.5,0.4,5,0.8,7.5v13.9c-0.5,3.7-0.7,7.4-0.6,11.1c0.8,2.5,4.7,5,13.6,6.7c3.2,0.6,6.5,0.6,9.7-0.3c1.6-0.4,3.1-1.1,4.4-1.9
			c0-2-0.2-4.1-0.6-6.1c-0.6-3.7-0.9-7.4-0.8-11.1V72l-0.3-1.5l-0.3-1.7c-0.2-0.4-0.4-0.9-0.6-1.4c-0.3-0.6-0.3-1.4-0.6-2.2
			c0-0.3-0.3-0.8-0.3-1.1c-0.9-3.7-0.7-7.5,0.6-11.1c0.1-0.6,0.4-1.2,0.8-1.7c0.9-1,2.1-1.7,3.5-2.1c1.3-0.4,2.7-0.4,4-0.1
			c-3.1-4-7.2-7.2-11.9-9.2c0,0.8,2.8,2.8,3.1,3.6c0.3,0.8-3.1,4.4-3.1,4.4c-0.9,0.8-1.8,1.6-2.8,2.2c-1,0.5-2,1-3.1,1.4
			c-0.3,0.3-0.8,0.3-1.1,0.6c-1.2,0.3-2.4,0.4-3.6,0.2c-1.2-0.2-2.3-0.6-3.4-1.3c-0.7-0.5-1.2-1.2-1.4-2c-0.3-0.8-0.4-1.6-0.2-2.4
			c-0.1-1,0-2.1,0.3-3.1C18.8,43,18.9,42.5,19.2,42z"/>
		<path class="st26" d="M46.7,97.8l1.1-4.4c-1.6,0.3-3.2,0.2-4.7-0.3c-0.9-0.4-1.7-1.1-2.2-1.9l-0.3,5.3c0.9,0.6,1.9,1.1,2.9,1.3
			C44.5,98,45.6,98,46.7,97.8z M10,80.6l2.2-3.3c-1.2-0.2-2.3-0.6-3.3-1.1c-0.5-0.3-1-0.7-1.4-1.2c-0.4-0.5-0.7-1-0.8-1.6l-1.9,4.2
			C4.7,77.8,5.9,80.3,10,80.6z"/>
		<path class="st27" d="M18.9,41.5c0-0.3,0.3-0.3,0.3-0.6c0-0.3,0.6-1.4,1.1-1.7c0.6-0.3,1.4-0.6,1.4,0c0,0.6-0.3,0.6-0.3,0.8
			s-0.8,0.8-1.1,1.4C20,42.1,20,42.8,20,43.4c-0.3,1.3-0.3,2.6,0,3.9c0.3,1.1,1.1,1.7,2.2,2.2c0.6,0.3,1.4,0.6,1.9,0.8
			c1.7,0.3,3.4,0.2,5-0.3c1.1-0.3,2.1-0.8,3.1-1.4c1-0.6,2-1.3,2.8-2.2c0.9-0.9,1.5-2.1,1.7-3.3c0-0.4-0.1-0.7-0.2-1.1
			c-0.1-0.3-0.4-0.6-0.6-0.9l-0.3-0.3v-0.3c0-0.3-0.3-0.6-0.3-0.8s1.1,0.3,1.1,0.6c0.6,0.3,1.7,0.8,1.7,1.7c0.2,1.3,0,2.7-0.5,3.9
			c-0.5,1.2-1.4,2.3-2.6,3c-0.4,0.5-0.9,0.8-1.4,1.1c-0.6,0.5-1.2,0.8-1.9,1.1c-1.6,1-3.5,1.5-5.4,1.6c-1.9,0-3.8-0.4-5.5-1.3
			c-0.6-0.3-1.1-0.8-1.4-1.4c-0.5-1.2-0.9-2.4-1.1-3.6C18,44.8,18.2,43.1,18.9,41.5z"/>
		<path class="st25" d="M38.9,49.8l-1.1,1.1c-0.6,1.1-1,2.2-1.4,3.3c-0.4,1.8-0.7,3.7-0.8,5.5v5.5c0.3,0,0.6-0.3,0.8-0.3
			c0.3,0,0.8-0.3,1.4-0.6v0.4c0-0.6-0.3-0.8-0.3-1.4c0-0.6-0.3-1.7-0.6-2.5c-0.3-1.8-0.2-3.6,0.3-5.3c0.2-0.9,0.4-1.7,0.8-2.5
			c0-0.3,0.3-0.6,0.3-0.8s0.3-0.3,0.3-0.6c0-0.3,0.8-1.1,1.1-1.7l1.1-1.1c0.6-0.3,0.8-0.3,1.4-0.6c1.4-0.2,2.8-0.1,4.2,0.3v-0.3
			c0-0.1-0.1-0.3-0.2-0.4C46.1,48.1,46,48,45.8,48c-1-0.3-2.1-0.5-3.2-0.3c-1.1,0.1-2.1,0.5-3,1.1C39.5,49.2,39.2,49.5,38.9,49.8z
			 M35.3,72.8c-0.1,3.6,0.1,7.2,0.6,10.8c0.2,1.7,0.3,3.5,0.3,5.3c1.6-0.4,3.1-1.1,4.4-1.9c0-1.3-0.2-2.6-0.6-3.9
			c-0.5-3.9-0.8-7.8-0.8-11.7v-0.3c-1,0.5-2,0.8-3.1,1.1C35.8,72.6,35.6,72.8,35.3,72.8z"/>
		<path class="st28" d="M36.1,70.1c0.9-0.2,1.7-0.5,2.5-0.8v-0.6c-0.2-0.5-0.4-0.9-0.6-1.4c-0.6,0.3-1.3,0.5-1.9,0.6
			c-0.3,0-0.6,0.3-0.8,0.3v2.4c0.2,0,0.3,0,0.5-0.1C35.9,70.3,36,70.2,36.1,70.1z"/>
		<path class="st29" d="M33.9,40.9c0.3,0.8,0.3,1.1-0.3,1.7l-1.1,1.1c-0.6,0.6-1.1,0.8-1.7,1.4c-0.5,0.5-1.1,0.8-1.7,1.1
			c0.7-1.7,0.9-3.5,0.6-5.3c0-1.1-0.3-2.5-0.3-3.6v-0.1c0.2,0,0.3,0,0.4,0c0.1,0,0.3,0.1,0.4,0.2c0.8,0.2,1.6,0.7,2.2,1.3
			C33.2,39.4,33.6,40.1,33.9,40.9z"/>
		<path class="st30" d="M26.4,48.3c-1.7,0-3.4-0.5-4.7-1.7c-1.1-1.1-0.6-3.6-0.3-5c0.6-2.5,3.9-1.7,3.9-1.7H27
			c1.1,0,2.5-0.3,3.6-0.3h1.1c0.6,0,0.8-0.6,1.1-0.8c0.3-0.3,0.8,0,1.4,0c0.4,0.2,0.8,0.4,1.1,0.8c0.3,0.3,0.5,0.7,0.6,1.2
			c0.6,1.7-0.8,3.3-2.2,4.4c-1.4,1.5-3.3,2.4-5.3,2.8C27.7,48.2,27.1,48.3,26.4,48.3z"/>
		<path class="st31" d="M32.8,35.7v0.6c0,1,0,2.1,0.3,3.1c0,0.3,0.3,1.1,0,1.4c-0.3,0.3-0.6,0.6-0.8,0.6c-1.3,1-2.7,1.9-4.2,2.5
			c-3.9,1.4-5,0.6-5,0.6l-0.6-8l0.8-0.3c0.8-0.3,1.4-0.6,2.2-0.8c1.2-0.5,2.5-0.9,3.9-1.1h1.9c0.2,0,0.3,0,0.4,0
			c0.1,0,0.3,0.1,0.4,0.2c0.2,0.1,0.3,0.3,0.4,0.5c0.1,0.2,0.1,0.4,0.2,0.6C32.5,35.1,32.5,35.4,32.8,35.7z"/>
		<path class="st31" d="M30.3,37.3c-0.9-0.3-1.8-0.5-2.8-0.6c-0.9,0-1.9,0-2.8,0.3c-0.6,0.3-0.3,1.1-0.8,1.4
			c-0.6,0.3-1.1,0.3-1.7,0.6c-0.6,0.3-0.3,1.7,0,2.2v3.6c0.3,1.1,1.4,1.1,2.2,1.4c1.1,0.2,2.2,0.3,3.3,0.3c0.7-0.2,1.4-0.4,1.9-0.8
			c1.5-0.9,2.8-2,3.9-3.3c0.3-0.3,0-0.3,0-0.8c0-1-0.3-2-0.8-2.8C32,38.2,31.2,37.7,30.3,37.3z"/>
		<path class="st29" d="M32.5,34c0.6,0.2,1.1,0.6,1.4,1.1c0.3,0.6-0.3,1.7-0.3,2.2c0,0.9,0.1,1.9,0.3,2.8c0,0.6,0.3,1.1,0.3,1.9
			c0,0.4-0.2,0.8-0.4,1.1c-0.2,0.3-0.4,0.6-0.8,0.9c-0.8,0.6-1.4,1.1-2.2,1.7c-0.8,0.6-1.7,0.6-2.2,1.1c0.6-0.3,1.1-0.8,1.4-1.4
			c0.2-0.4,0.3-0.9,0.3-1.4c0-0.6,0.3-1.4-0.3-1.7c-0.3-0.2-0.7-0.3-1.1-0.3c-0.3,0-0.3,0.3-0.6,0.3c-1.8,0.3-3.7,0.5-5.6,0.6
			c-0.3,0-0.6,0-0.6-0.3s0-0.3,0.3-0.6c0.3-0.3,0.8-0.3,1.1-0.6c1.1-0.7,2.2-1.4,3.3-1.9c0.6-0.3,1.4-0.6,1.9-0.8
			c0.6-0.3,0.6-0.6,0.6-0.8v-1.4c0-0.6,0.3-0.8,0.3-1.4l0.3-1.4C30.9,33.7,31.7,33.8,32.5,34z"/>
		<path class="st32" d="M17,26.1v-0.3c0-0.6,0.1-1.2,0.4-1.8c0.2-0.6,0.6-1.1,1-1.5c0.5-0.8,1.1-1.4,1.9-1.9
			c0.8-0.5,1.6-0.8,2.5-0.9c1.8,0,3.6,0.3,5.2,1c1.6,0.7,3.1,1.8,4.3,3.1c0.3,0.3,0.3,0.6,0.6,0.6s0.3,0.6,0.3,0.8
			c1.7,3.9,6.4,4.7-1.7,13.3l-0.3,0.3c-0.1,0-0.1,0-0.2,0.1c-0.1,0.1-0.1,0.1-0.1,0.2l-0.3,0.3c-0.4,0.3-0.9,0.6-1.4,0.8
			c-1.3,1.1-2.8,1.8-4.4,2.2C22,43,19.5,42.2,19.2,40c-0.6-4.2-1.7-8-2.2-11.9V26.1z"/>
		<path class="st33" d="M18.6,22.6c0.8,0.6,1.1,0.3,1.1-0.6H20c1.3-0.5,2.7-0.8,4.2-0.8c1.1,0,2.2,0,3.3,0.3
			c1.7,0.3,3.4,1.1,4.7,2.2c0.3,0.3,0.3,0.6,0.6,0.6c0.3,0,0.3,0.6,0.3,0.8c1.7,3.9,6.4,4.7-1.7,13.3l-0.3,0.3c-0.1,0-0.1,0-0.2,0.1
			c-0.1,0.1-0.1,0.1-0.1,0.2l-0.3,0.3c-0.4,0.3-0.9,0.6-1.4,0.8c0.2-1.1,0.3-2.2,0.3-3.3v-1.4c0-0.6-0.3-0.8-0.6-1.4
			c-0.2-0.1-0.3-0.3-0.4-0.5c-0.1-0.2-0.1-0.4-0.2-0.6v-0.8c-0.3-1.1,0-2.5-0.3-3.6c-0.3-0.6-0.3-1.4-0.8-1.9
			c-0.3-0.4-0.7-0.7-1.1-1c-0.4-0.2-0.9-0.4-1.4-0.4h-3.1c-0.8,0-1.7-0.3-2.2-0.3c0,0-1.9,0-1.9-0.3C17.2,24.8,16.7,21.2,18.6,22.6z
			"/>
		<path class="st34" d="M18.6,20.5c1.1,0,1.1-0.8,2.2-1.9c1.8-1.7,4-2.9,6.4-3.5c1.4-0.3,2.8-0.2,4.2,0.3c1.4,0.4,2.6,1.2,3.6,2.2
			l0.3,0.3l0.3,0.3l0.3,0.3c0.3,0.3,0.6,0.7,0.8,1.1c0,0.1,0,0.1,0.1,0.2c0.1,0.1,0.1,0.1,0.2,0.1c0.6,0.8,0.9,1.8,0.8,2.8v2.2
			c-0.1,0.9-0.2,1.7-0.6,2.5l-0.8,2.5c0,0.3,0,0.3-0.3,0.6c0,1.1-0.2,2.3-0.6,3.3c-0.3,0.6-0.3,1.4-0.6,1.7l-1.1,1.1
			c0,0-0.8,0.6-1.4,1.1v-0.8c0.2-1.5,0.6-2.9,1.4-4.2c0.3-0.6,0.6-0.8,0.8-1.4v-0.8c-0.1-0.5-0.2-0.9-0.3-1.4
			c-0.6-0.8-1.9-0.6-2.5,0.3c-0.3,0.6-0.5,1.3-0.6,1.9c0,0.6-0.3,1.1-0.3,1.7v0.6c-0.6,0-0.8,0.3-1.4,0.3v-0.8
			c-0.3-1.7-0.6-3.1-0.8-4.7v-0.6c-0.6-2.8-3.6-3.9-8.6-3.9L16.4,24C16.1,23.5,15.3,20.5,18.6,20.5z"/>
		<path class="st35" d="M28.6,28.2v0.3c0.3,1.7,0.6,3.3,0.8,4.7V34c0.6,0,0.8-0.3,1.4-0.3v-0.8c-0.1-0.5,0-1,0.3-1.4
			c0.3-0.6,0.3-1.4,0.6-1.9c0.1-0.2,0.3-0.4,0.5-0.5c0.2-0.1,0.4-0.2,0.7-0.2c0.2,0,0.5,0,0.7,0.1c0.2,0.1,0.4,0.2,0.6,0.4
			c0.3,0.3,0.3,0.6,0.3,1.1v1.4c0,0.6-0.3,0.8-0.6,1.4c-0.9,1.2-1.4,2.7-1.4,4.2v0.6c0.5-0.3,1-0.7,1.4-1.1l1.1-1.1
			c0.3-0.6,0.3-1.1,0.6-1.7c0.3-1.1,0.6-2.2,0.8-3.1c0-0.3,0-0.3,0.3-0.6l0.8-2.5c0.3-0.8,0.3-1.7,0.6-2.5v-2.1
			c-0.3-0.8-0.6-1.9-0.8-2.8c0-0.1,0-0.1-0.1-0.2c-0.1-0.1-0.1-0.1-0.2-0.1c-0.8-0.8-1.1-1.4-1.1-1.7l-0.3-0.3l-0.3-0.3
			c0.3,0.3,0.3,0.6,0.6,0.6c0.4,1,0.4,2.2,0.2,3.2s-0.8,2.1-1.6,2.9c-0.7,0.5-1.4,1-2.2,1.4c-1.2,0.5-2.3,1.2-3.3,1.9
			C28.8,28,28.8,28.1,28.6,28.2c0,0,0,0.1,0,0.1V28.2z"/>
		<path class="st36" d="M36.1,88.9v2.5c1.6-0.4,3.1-1.1,4.4-1.9v-2.4c-1.4,0.8-2.9,1.5-4.4,1.9V88.9z"/>
		<path class="st27" d="M12.8,85c0.8,2.5,4.7,5,13.6,6.7c3.3,0.6,6.7,0.5,10-0.3v-2.5c-3.2,1-6.5,1-9.7,0.3
			c-8.9-1.7-12.8-4.2-13.6-6.7c-0.1-0.5-0.2-1.1-0.3-1.7C12.5,82.3,12.5,83.7,12.8,85z"/>
		<path class="st36" d="M35.3,72.8c0.3,0,0.6-0.3,0.8-0.3c1-0.3,2.1-0.7,3.1-1.1l-0.6-2.2c-0.8,0.4-1.6,0.6-2.5,0.8
			c-0.3,0-0.6,0.3-0.8,0.3V72.8z"/>
		<path class="st27" d="M13.4,67.3c1.4,2.2,5.6,4.2,13,5.5c3,0.5,6,0.4,8.9-0.3v-2.5c-2.9,0.7-5.9,0.8-8.9,0.3
			C18.9,69,15,67,13.4,64.8V67.3z"/>
		<path class="st36" d="M35.3,68.1c0.3,0,0.6-0.3,0.8-0.3c0.6-0.3,1.3-0.5,1.9-0.6v-0.6c-0.1-0.5-0.2-0.9-0.3-1.4v-0.3
			c-0.3,0.3-0.8,0.3-1.4,0.6c-0.6,0.3-0.6,0.3-0.8,0.3C35.3,66.6,35.2,67.4,35.3,68.1z"/>
		<path class="st27" d="M13.4,62.9c1.7,2.2,5.6,4.2,13,5.5c3,0.5,6.2,0.4,9.2-0.3v-2.5c-3,0.7-6.1,0.8-9.2,0.3
			c-7.2-1.4-11.4-3.3-13-5.5V62.9z"/>
	</g>
</g>
</svg>
