<?xml version="1.0" encoding="utf-8"?>
<!-- Generator: Adobe Illustrator 23.1.0, SVG Export Plug-In . SVG Version: 6.00 Build 0)  -->
<svg version="1.1" id="Layer_1" xmlns="http://www.w3.org/2000/svg" xmlns:xlink="http://www.w3.org/1999/xlink" x="0px" y="0px"
	 viewBox="0 0 215 151" style="enable-background:new 0 0 215 151;" xml:space="preserve">
<style type="text/css">
	.st0{clip-path:url(#SVGID_2_);}
	.st1{fill:#A79D2D;}
	.st2{fill:#D4C931;}
	.st3{fill:#C2B92F;}
	.st4{fill:#E5C172;}
	.st5{clip-path:url(#SVGID_4_);}
	.st6{fill:#E9EEF0;}
	.st7{fill:#996932;}
	.st8{fill:#A87438;}
	.st9{fill:#1F1F1F;}
	.st10{fill:#825520;}
	.st11{fill:#42260B;}
	.st12{fill:#3D2003;}
	.st13{fill:#21AFDB;}
	.st14{fill:#EBEBEB;}
	.st15{fill:#E8B58F;}
	.st16{fill:#1C4059;}
	.st17{fill:#12344A;}
	.st18{fill:#32A6A0;}
	.st19{fill:#48C2C1;}
	.st20{fill:#1F4964;}
	.st21{fill:#133B54;}
	.st22{fill:#4FC2BE;}
	.st23{fill:#46B3B0;}
	.st24{fill:#E0AA82;}
	.st25{fill:#4DC2BF;}
	.st26{fill:#1EAAF1;}
	.st27{fill:#78D4C3;}
	.st28{fill:#F4FAFC;}
	.st29{fill:#20ABE2;}
	.st30{fill:#D98F6C;}
	.st31{fill:#51D6BE;}
	.st32{fill:#EAA685;}
	.st33{fill:#F0B88F;}
	.st34{fill:#DF9876;}
	.st35{fill:#A34512;}
	.st36{fill:#7D350E;}
	.st37{fill:#B8E0CA;}
</style>
<g>
	<defs>
		<rect id="SVGID_1_" x="38" width="177" height="151"/>
	</defs>
	<clipPath id="SVGID_2_">
		<use xlink:href="#SVGID_1_"  style="overflow:visible;"/>
	</clipPath>
	<g class="st0">
		<path class="st1" d="M158.8,102.1l7,4l-4.7,2.8L158.8,102.1z"/>
		<path class="st2" d="M203.5,62.9L98,2.3l-7.4,13.3l19.8,58.7l80.8,46.4l19.8-36L203.5,62.9z"/>
		<path class="st1" d="M173.1,61v2.1l-20-11.4V39.2l1.5,0.8v10.4L173.1,61z"/>
		<path class="st3" d="M173.1,50.8V61l-18.5-10.6V40L173.1,50.8z"/>
		<path class="st1" d="M201,79.2l-23.4-13.3V53.4l1.5,0.8v10.2l20.8,12.1L201,79.2z"/>
		<path class="st3" d="M199.9,76.5L179,64.4V54.2l16,9.1L199.9,76.5z"/>
		<path class="st1" d="M124.2,32.8v2.1l-23.4-13.3l6-8.9l0.4,0.2l-4.9,7.2L124.2,32.8z"/>
		<path class="st3" d="M124.2,22.7v10.2l-21.9-12.7l4.9-7.2L124.2,22.7z"/>
		<path class="st1" d="M148.6,46.8v2.3l-20-11.4V25.2l1.5,0.8v10.2L148.6,46.8z"/>
		<path class="st3" d="M148.6,36.6v10.2l-18.5-10.6V26L148.6,36.6z"/>
		<path class="st4" d="M207.6,60.6L102,0l-4,2.3l105.5,60.6L207.6,60.6z"/>
		<path class="st1" d="M183.3,109.7l-0.9,1.7l-64.9-37.3l-13.2-40.9l2.3,1.3l12.3,38.1L183.3,109.7z"/>
		<path class="st3" d="M196.9,86.4l-13.6,23.3l-64.2-37.1l-12.3-38.1L196.9,86.4z"/>
		<path class="st1" d="M207.6,60.6l-4,2.3l7.4,21.8l4-2.1L207.6,60.6z"/>
		<path class="st4" d="M57.4,34.7l33.2-19.1l4,2.1L61.4,37.1L57.4,34.7z"/>
		<path class="st1" d="M94.6,17.8L61.4,37.1l46,26.3L94.6,17.8z"/>
		<path class="st2" d="M151,93.2L45.4,32.4L38,45.7l19.8,58.7l81.1,46.6l19.6-36L151,93.2z"/>
		<path class="st1" d="M120.5,91.1v2.3l-20-11.4V69.5l1.5,0.8v10.2L120.5,91.1z"/>
		<path class="st3" d="M120.5,80.9v10.2L102,80.5V70.3L120.5,80.9z"/>
		<path class="st1" d="M148.6,109.5L125,95.9V83.4l1.7,0.8v10.4l20.6,11.9L148.6,109.5z"/>
		<path class="st3" d="M147.3,106.5l-20.6-11.9V84.3l15.7,9.1L147.3,106.5z"/>
		<path class="st1" d="M71.6,62.9v2.3L48.2,51.7l6.2-8.9l0.4,0.2l-5.1,7.4L71.6,62.9z"/>
		<path class="st3" d="M71.6,52.7v10.2L49.7,50.4l5.1-7.4L71.6,52.7z"/>
		<path class="st1" d="M96.1,77.1v2.1l-20-11.4V55.3l1.5,0.8v10.4L96.1,77.1z"/>
		<path class="st3" d="M96.1,66.9v10.2L77.6,66.5V56.1L96.1,66.9z"/>
		<path class="st1" d="M155,90.9l-4,2.3l7.4,21.8l4-2.3L155,90.9z"/>
		<path class="st4" d="M155,90.9L49.5,30.3l-4,2.1L151,93.2L155,90.9z"/>
		<path class="st1" d="M130.8,139.8l-0.9,1.7L65,104.2L51.8,63.3l2.6,1.5l12.1,38.1L130.8,139.8z"/>
		<path class="st3" d="M144.4,116.5l-13.6,23.3l-64.2-36.8L54.4,64.8L144.4,116.5z"/>
		<path class="st1" d="M215,82.6L158.4,115l-19.6,36l56.4-32.4L215,82.6z"/>
		<path class="st4" d="M161.2,108.9l45.7-26.3l4,2.1l-48.5,28L161.2,108.9z"/>
	</g>
</g>
<g>
	<defs>
		<rect id="SVGID_3_" y="1" width="50" height="150"/>
	</defs>
	<clipPath id="SVGID_4_">
		<use xlink:href="#SVGID_3_"  style="overflow:visible;"/>
	</clipPath>
	<g class="st5">
		<path class="st6" d="M49.2,145.3c-1.1,6.7-11.9,7.8-24.4,2.8c-12.5-5-21.4-14.4-20.3-21.1c1.1-6.7,11.9-7.8,24.4-2.8
			C41.4,129.2,50.3,138.5,49.2,145.3z"/>
		<path class="st7" d="M37,123.2h-2.2c-1.1,0-3.6,0.6-3.6,1.9v2.2c0.1,1,0,2.1-0.3,3.1c0,1.4-1.1,2.5-1.9,3.9
			c-0.8,1.2-1.5,2.5-1.9,3.9c-0.5,0.9-0.8,2-0.8,3.1c0,1.3,0.3,2.7,0.8,3.9c0.2,0.3,0.5,0.6,0.9,0.8c0.3,0.2,0.7,0.3,1.1,0.3
			c0.4,0.2,0.9,0.3,1.4,0.3h0.8c1.5-0.4,2.7-1.3,3.6-2.5c0.6-0.6,0.8-1.1,1.4-1.7c0.5-0.7,0.9-1.6,1.1-2.5l0.6-1.7h0.3
			c0.3,0,1.1-1.4,1.1-1.7c0.3-0.6,0.6-1.3,0.8-1.9c0.3-0.6,0.6-0.8,0.6-1.4c0.2-0.9,0.3-1.8,0.3-2.8c0-0.8-0.3-1.4-0.3-2.2
			s0.3-1.1,0.3-1.9s0.6-1.9-0.3-2.5c-0.3-0.3-1.1-0.3-1.7-0.6c-0.6-0.3-1.1-0.3-1.7-0.6C37.2,123.2,37,123.2,37,123.2z"/>
		<path class="st8" d="M28.1,141c3.1,3.3,6.9-0.8,7.8-3.9c0.4-1.5,0.6-3.1,0.6-4.7c0-1.1,0.3-2.2,0.3-3.3c0-0.3-0.1-0.6-0.2-0.9
			c-0.1-0.3-0.4-0.5-0.6-0.7c-0.3-0.2-0.7-0.3-1.1-0.3c-0.6,0-1.1-0.3-1.7,0c-0.7,0.1-1.4,0.4-1.9,0.8h-0.3v0.3
			c0.2,1.9-0.2,3.9-1.1,5.5c-1.1,1.7-3.1,4.2-2.8,6.1C27.5,140.1,27.8,140.7,28.1,141z"/>
		<path class="st9" d="M35,136c0-0.8-0.8-1.1-1.4-1.7c-0.6-0.6-0.6-0.3-0.6-0.6c0-0.3-0.6-0.6-0.6-0.8c0.4-0.3,0.9-0.3,1.4-0.3h0.3
			c0.6,0,1.1-0.3,1.1-0.6c0-0.2,0-0.3,0-0.4s-0.1-0.3-0.2-0.4c-0.3-0.3-0.6-0.6-0.8-0.6h-0.3c-0.1,0-0.3-0.1-0.4-0.2
			c-0.1-0.1-0.2-0.2-0.2-0.4v-0.3c0.4-0.3,0.9-0.3,1.4-0.3H35c0.3,0,0.6,0,0.6-0.3s0.3-0.6,0.3-0.8c0-0.3-0.6-0.6-0.8-0.8l-0.3-0.3
			c-0.2-0.1-0.3-0.3-0.4-0.5c-0.1-0.2-0.1-0.4-0.1-0.6c0-0.3,0.3-0.6,0.8-0.6v-0.3c-0.3,0.3-0.8,0.6-0.8,0.8c0,0.3,0,0.5,0.1,0.8
			c0.1,0.2,0.3,0.5,0.5,0.6l0.3,0.3c0.3,0.3,0.6,0.6,0.6,0.8c0,0.1,0,0.1-0.1,0.2c-0.1,0.1-0.1,0.1-0.2,0.1h-0.8
			c-0.6,0-1.4,0-1.7,0.6c-0.3,0.6-0.3,0.3,0,0.6c0,0.1,0.1,0.3,0.2,0.4c0.1,0.1,0.2,0.2,0.4,0.2h0.3c0.3,0.3,0.6,0.3,0.8,0.6
			c0.2,0.1,0.2,0.3,0.3,0.6c0,0.3-0.6,0.3-1.1,0.3h-0.3c-0.5-0.1-1,0-1.4,0.3l-0.3,0.3v0.3c0,0.2,0.1,0.4,0.2,0.6
			c0.1,0.2,0.2,0.4,0.4,0.5c0.3,0.3,0.6,0.3,0.6,0.6c0.5,0,0.9,0.2,1.3,0.4C34.5,135.2,34.8,135.6,35,136z"/>
		<path class="st9" d="M31.1,134.6c0.8,0,1.7,0,2.5-0.3c0.2,0,0.4-0.1,0.6-0.3c0.2-0.2,0.2-0.4,0.3-0.6c0-0.6-0.3-0.8-0.8-1.1h-0.3
			l-0.3-0.3c-0.3,0-0.3-0.3-0.6-0.6v-0.8c0.3-0.3,0.6,0,1.1,0h0.3c0.2,0,0.3,0,0.4,0c0.1,0,0.3-0.1,0.4-0.2c0.1-0.2,0.2-0.4,0.2-0.6
			c0-0.2-0.1-0.4-0.2-0.6c-0.3-0.3-0.6-0.3-0.8-0.6h-0.3c-0.3-0.3-0.6-0.3-0.6-0.6v-0.3h0.3c0.7,0,1.3-0.1,1.9-0.3
			c0.1,0,0.1,0,0.2-0.1c0.1-0.1,0.1-0.1,0.1-0.2v-0.3c-0.1-1.1-0.6-2.2-1.4-3.1l-0.3,0.3c0.7,0.7,1.1,1.7,1.1,2.8v0.3h-0.3
			c-0.5,0.2-1.1,0.3-1.7,0.3h-0.6c-0.3,0.3-0.3,0.3-0.3,0.6c0,0.3,0.3,0.6,0.8,0.8h0.3c0.2,0,0.4,0.1,0.6,0.3c0.1,0,0.1,0.1,0.2,0.2
			c0,0.1,0.1,0.2,0.1,0.2s0,0.2-0.1,0.2c0,0.1-0.1,0.1-0.2,0.2c-0.3,0.3-0.3,0.3-0.6,0.3H33c-0.6,0-0.8,0-1.1,0.3
			c-0.2,0.3-0.3,0.7-0.3,1.1c0,0.3,0.3,0.3,0.6,0.6h0.6c0.3,0.3,0.6,0.6,0.6,0.8c0,0.3-0.3,0.3-0.6,0.6c-1,0.2-2,0.3-3.1,0.3v0.3
			C30.2,134.4,30.6,134.5,31.1,134.6z"/>
		<path class="st10" d="M8.3,129.6c-0.3,2.2,1.1,2.8,3.1,2.8c1.4,0.1,2.8-0.1,4.2-0.6c0.8-0.3,3.3-0.8,3.9-1.7
			c0.3-0.4,0.6-0.7,0.8-1.1l1.1-0.6v0.8c0.9-0.2,1.7-0.5,2.5-0.8c1.1-0.3,2.1-1,2.8-1.9c0.1-1,0.1-2,0-3.1c0.1-1.4,0.1-2.8,0-4.2
			c0.1-0.5,0-1-0.2-1.5c-0.2-0.5-0.5-0.9-0.9-1.3c-0.3-0.3-0.8-0.3-1.1-0.6c-0.9-0.2-1.8-0.3-2.8-0.3h-2.8c-0.8,0-1.7,0.8-2.2,1.4
			c-0.4,0.8-0.6,1.6-0.6,2.5c0,0.8,0,2.2-0.6,2.8c0,0.8-1.1,1.1-1.9,1.7c-0.7,0.4-1.5,0.8-2.2,1.1c-0.8,0.5-1.5,1.1-2,1.9
			C8.8,127.8,8.5,128.7,8.3,129.6z"/>
		<path class="st11" d="M26.1,141.2c-0.1,1.1,0.2,2.2,0.8,3.1c0.2,0.3,0.5,0.6,0.9,0.8c0.3,0.2,0.7,0.3,1.1,0.3
			c0.4,0.2,0.9,0.3,1.4,0.3h0.8c1.5-0.4,2.7-1.3,3.6-2.5c0.6-0.6,0.8-1.1,1.4-1.7c0.5-0.7,0.9-1.6,1.1-2.5l0.6-1.7h0.3
			c0.3,0,1.1-1.4,1.1-1.7c0.3-0.6,0.6-1.3,0.8-1.9c0.3-0.6,0.6-0.8,0.6-1.4c0.1-0.5,0.2-0.9,0.3-1.4c0.1,0.8,0,1.5-0.3,2.2
			c0,0.6-0.6,0.8-0.6,1.4c0,0.6-0.6,1.4-0.8,1.9c-0.3,0.6-0.8,1.7-1.1,1.7h-0.3l-0.6,1.7c-0.3,0.9-0.6,1.7-1.1,2.5
			c-0.4,0.6-0.8,1.2-1.4,1.7c-1,1.1-2.2,1.9-3.6,2.5h-0.8c-0.5,0.1-1,0-1.4-0.3c-0.6-0.3-1.7-0.6-1.9-1.1
			C26.4,143.9,26.1,142.6,26.1,141.2z"/>
		<path class="st12" d="M11.4,131.4c1.4,0.1,2.8-0.1,4.2-0.6c0.8-0.3,3.3-0.8,3.9-1.7c0.3-0.4,0.6-0.7,0.8-1.1l1.1-0.6v0.8
			c0.9-0.2,1.7-0.5,2.5-0.8c1.1-0.3,2.1-1,2.8-1.9v0.8c-0.7,1-1.7,1.6-2.8,1.9c-0.8,0.4-1.6,0.6-2.5,0.8v-0.8l-1.1,0.6
			c-0.3,0.3-0.6,0.7-0.8,1.1c-0.6,0.8-2.8,1.4-3.9,1.7c-1.3,0.4-2.8,0.6-4.2,0.6c-1.9,0-3.1-0.6-3.1-2.8h0
			C8.6,131,9.7,131.4,11.4,131.4z"/>
		<path class="st9" d="M14.5,125.1l-0.3-1.1v-0.3h0.3c0.6,0,1.1-0.1,1.7-0.3c0.3-0.1,0.5-0.3,0.6-0.6c0.1-0.2,0.2-0.5,0.2-0.8
			c0-0.3,0-0.3-0.3-0.6c-0.3-0.3-0.3-0.3-0.3-0.6c0-0.3,0.3-0.3,0.6-0.3c0.2,0,0.3,0,0.4,0c0.1,0,0.3-0.1,0.4-0.2
			c0.3-0.3,0.3-0.6,0.3-1.1s-0.3-0.6-0.6-0.8l-0.3-0.3c0,0,0-0.1,0-0.1c0,0,0-0.1,0.1-0.1c0,0,0.1,0,0.1-0.1c0,0,0.1,0,0.1,0
			l0.3-0.3h-0.3c0,0.1,0,0.1-0.1,0.2c-0.1,0.1-0.1,0.1-0.2,0.1c-0.2,0.1-0.2,0.3-0.3,0.6c0,0.3,0,0.3,0.3,0.6
			c0.3,0.3,0.3,0.6,0.6,0.8v0.8c-0.1,0.1-0.2,0.2-0.4,0.2c-0.1,0-0.3,0.1-0.4,0c-0.3-0.6-0.6-0.6-0.8-0.3c0,0.2,0,0.3,0,0.4
			s0.1,0.3,0.2,0.4l0.3,0.3c0,0.2-0.1,0.4-0.2,0.6c-0.1,0.2-0.2,0.4-0.4,0.5c-0.4,0.3-0.9,0.3-1.4,0.3h-0.3c-0.3,0-0.3,0.3,0,0.8
			V125.1z"/>
		<path class="st9" d="M15.3,124.3c0.3,0,0.6-0.3,0.8-0.3c0.3,0,0.3-0.3,0.3-0.6c0-0.2-0.1-0.4-0.3-0.6c0-0.3-0.3-0.6,0-0.6
			c0.3,0,0.3-0.3,0.6-0.3h0.8c0.3,0,0.6-0.3,0.8-0.6c0.1,0,0.1-0.1,0.2-0.2c0-0.1,0.1-0.2,0.1-0.2s0-0.2-0.1-0.2
			c0-0.1-0.1-0.1-0.2-0.2c0-0.1-0.1-0.3-0.2-0.4c-0.1-0.1-0.2-0.2-0.4-0.2l-0.3-0.3c-0.1-0.1-0.2-0.2-0.2-0.4c0-0.1-0.1-0.3,0-0.4
			c0-0.3,0.3-0.3,0.6-0.6h0.8c0.3,0,0.6-0.1,0.9-0.2c0.3-0.1,0.5-0.4,0.7-0.6l-0.3-0.3c-0.2,0.3-0.4,0.5-0.7,0.7
			c-0.3,0.1-0.6,0.2-1,0.2h-0.8c-0.3,0-0.6,0.3-0.8,0.6c0,0.4,0.1,0.8,0.3,1.1l0.3,0.3c0.3,0.3,0.3,0.3,0.3,0.6v0.8
			c0,0.3-0.3,0.3-0.6,0.6h-0.6c-0.3,0-0.6,0.3-0.8,0.3v0.8c0,0.3,0.3,0.3,0.3,0.6c0,0.3,0,0.3-0.3,0.6
			C15.9,124,15.6,124.3,15.3,124.3c-0.6-0.3-0.8-0.6-1.4-0.8l-0.3,0.3C14.1,124.1,14.7,124.3,15.3,124.3z"/>
		<path class="st13" d="M44.7,35.8c0.2,1.2,0.6,2.3,1.1,3.3c0,0.1,0,0.1,0.1,0.2c0.1,0.1,0.1,0.1,0.2,0.1c0.1,0,0.1,0,0.2-0.1
			c0.1-0.1,0.1-0.1,0.1-0.2c0.2-0.8,0.3-1.7,0.3-2.5c0-0.8-0.3-2.2-1.4-2.5h-0.6V35.8z"/>
		<path class="st14" d="M23.6,118.2C23.6,117.9,23.3,117.9,23.6,118.2L23.6,118.2z"/>
		<path class="st15" d="M2.8,66.9c0.7-0.6,1.4-1.2,2.2-1.7c0-0.3,0-0.3,0.3-0.6c0.6-0.8,1-1.6,1.4-2.5c0.8-1.7,1.4-3.3,2.2-5
			c1.1-2.5,3.1-9.2,3.1-9.2c4.7-1.4,5,4.7,4.2,6.1c-0.8,1.4-2.2,2.8-3.1,4.4c-0.8,1.1-1.4,2.5-2.2,3.9c-0.3,0.3-0.3,0.8-0.6,1.1
			C10,63.8,10,64.1,10,64.4c-0.3,0.8-0.6,1.4-0.8,2.2c-0.3,0.8,0,1.7-0.3,2.5c0,0.3,0,0.6-0.2,0.8c-0.2,0.3-0.4,0.4-0.7,0.5
			c-0.5,1.2-1.2,2.3-1.9,3.3c-0.6,0.8-0.3,0.8-2.2,0.8c-1.9,0-1.4-1.1-1.4-1.1l-0.6-0.3c-0.1,0-0.1-0.1-0.2-0.1
			c-0.1-0.1-0.1-0.1-0.1-0.2c0-0.1,0-0.2,0-0.2c0-0.1,0-0.2,0.1-0.2l1.4-3.6c0-0.2-0.1-0.4-0.3-0.6c-0.8,0.3-2.2,0.8-2.8,0.6
			C-0.2,68,2,67.6,2.8,66.9z"/>
		<path class="st16" d="M19.7,70.5c0.2-0.4,0.3-0.8,0.3-1.3c-0.1-0.5-0.2-0.9-0.6-1.2c0.3-0.3,0.3-0.6,0.3-1.1
			c0.4,0.1,0.8,0.3,1.1,0.6c1.8,1.3,3.2,3.1,3.9,5.3c0.3,0.3,0.3,0.8,0.6,1.1c1.1,2.8,0.3,6.1,0.3,9.2c-0.3,3.8,0,7.6,0.8,11.4
			c1.3,5.1,1.8,10.3,1.4,15.5c-0.3,4.2,0,11.7,0,11.7c-0.6,0.8-1.4,1.4-2.4,1.8c-0.9,0.4-1.9,0.5-2.9,0.5c-1.4,0.1-2.7-0.3-3.9-1.1
			c-0.6-0.2-1.1-0.7-1.4-1.2s-0.4-1.2-0.3-1.8c0.3-3.9,0-7.8,0-11.7c-0.6-3.3-0.8-6.7-1.4-9.7c-0.6-3.4-1-6.8-1.1-10.3
			c-0.3-2.8-1.7-12.5-0.8-16.4C15.6,71.9,18.6,72.4,19.7,70.5z"/>
		<path class="st17" d="M24.7,112.7c0.4-5.2,0-10.5-1.4-15.5c-0.7-3.7-1-7.6-0.8-11.4c0-2.8,0.8-6.4-0.3-9.2c0-0.6-0.3-0.8-0.3-1.4
			c-0.7-1.5-1.5-2.9-2.5-4.2l0.6-0.6c0.2-0.4,0.3-0.8,0.3-1.3c-0.1-0.5-0.2-0.9-0.6-1.2c0.3-0.3,0.3-0.6,0.3-1.1
			c0.4,0.1,0.8,0.3,1.1,0.6c1.8,1.3,3.2,3.2,3.9,5.3c0.3,0.3,0.3,0.8,0.6,1.1c1.1,2.8,0.3,6.1,0.3,9.2c-0.3,3.8,0,7.6,0.8,11.4
			c1.3,5.1,1.8,10.3,1.4,15.5c-0.3,4.2,0,11.7,0,11.7c-0.7,1-1.8,1.7-3.1,1.9C24.5,119.9,24.4,116.3,24.7,112.7z"/>
		<path class="st18" d="M20.8,24.4c-0.9-0.2-1.9-0.2-2.8-0.1c-0.9,0.2-1.8,0.6-2.5,1.2c-1.9,2.2-1.9,3.6-1.9,8s0.2,9,0.2,9L5.8,63.1
			c1.6,0.5,3,1.6,3.9,3.1c0.3,0.6,5.3-9.2,5.8-9.7C21.1,50.9,25.3,25.3,20.8,24.4z"/>
		<path class="st19" d="M13.9,29.7c0.2-1.4,0.9-2.8,2-3.7c0.7-0.6,1.6-1.1,2.5-1.3c0.9-0.2,1.9-0.1,2.8,0.2c0.8,0,1.1,1.1,1.4,2.5
			c-1.4,0.1-2.8,0.1-4.2,0c-0.7,0-1.4,0.2-2,0.6c-0.6,0.3-1.2,0.8-1.6,1.4C14.2,29.2,13.9,29.4,13.9,29.7z"/>
		<path class="st20" d="M28.3,108.2c-0.3-2.5-1.4-5.3-1.7-7.8c-0.6-3.3-1.1-8.6-1.4-11.9c0-2-0.2-3.9-0.6-5.8v-0.6
			c0-0.1,0-0.1-0.1-0.2c-0.1-0.1-0.1-0.1-0.2-0.1l-1.1-1.1c-0.9-0.8-1.6-1.9-1.9-3.1c-0.2-1.9-0.1-3.8,0.6-5.5c0-0.3,0-0.3-0.3-0.6
			c-0.3-0.3-0.6-0.6-0.8-0.6c-0.6-0.6-1.4-0.8-1.9-1.4l-2.8-1.9c-0.6-0.2-1.3-0.3-1.9-0.3c0-2.7,0.5-5.5,1.4-8c0,0-0.6,1.4,8.1,6.1
			c1.9,1.2,4.1,2.1,6.4,2.5c2.5,0.6,5.6-0.6,7.8,1.1c1,0.8,1.8,1.8,2.3,3c0.5,1.2,0.8,2.4,0.8,3.7c0.4,3.4,0.5,6.8,0.3,10.3
			c-0.6,6.6-0.8,13.3-0.6,20c0.6,6.4,0.7,12.8,0.3,19.1c-0.3,1.9,0.3,5.5-1.4,7.2c-1.1,1.1-2.6,1.7-4.2,1.7c-1.5,0.5-3,0.4-4.4-0.3
			c-1.4-1.1-1.1-3.9-1.4-5.5c-0.2-2.7-0.3-5.4-0.3-8C29.2,116.2,28.9,112.2,28.3,108.2z"/>
		<path class="st21" d="M37.5,127.4c0.3-6.4,0.2-12.8-0.3-19.1c-0.4-6.7-0.2-13.3,0.6-20v-5.5c0-1.2-0.2-2.4-0.6-3.6
			c-1.1,0.4-2.2,0.7-3.3,0.8c-1.3,0.3-2.6,0.3-3.9,0c-2.8-0.3-5.3-1.4-8.1-1.9c-2.6-0.3-5.1-1.3-7.2-2.8c-0.3-0.3-0.6-0.3-0.6-0.6
			c-0.6,0-0.6-0.3-0.6-0.6c-0.4-5.1,0.1-10.3,1.7-15.3c0,0-0.6,1.4,8.1,6.1c1.9,1.2,4.1,2.1,6.4,2.5c2.5,0.6,5.6-0.6,7.8,1.1
			c1,0.8,1.8,1.8,2.3,3c0.5,1.2,0.8,2.4,0.8,3.7c0.4,3.4,0.5,6.8,0.3,10.3c-0.6,6.6-0.8,13.3-0.6,20c0.6,6.4,0.7,12.8,0.3,19.1
			c-0.3,1.9,0.3,5.5-1.4,7.2c-0.7,0.6-1.6,1.1-2.5,1.4C37.4,131.4,37.7,129.3,37.5,127.4z"/>
		<path class="st22" d="M14.2,48.9c0.3,3.5,0.3,7,0,10.5c0,1.4-0.3,3.1-0.3,4.4c-0.2,1.3-0.3,2.6-0.3,3.9c0.3,1.1,0.6,1.9,0.8,3.1
			c0,0.3,0.3,0.8,0.3,1.1c0.4,0.9,1.1,1.7,1.9,2.2c1,0.5,2,0.9,3.1,1.1c5.9,2.2,12.4,2.2,18.3,0c0,0-1.7-15-0.6-16.9
			c1.1-1.9,7.2-10,7.5-14.4s1.1-8.6-3.6-12.2c-2.2-2-4.5-3.7-6.9-5.3c-1.7-1-3.5-2-5.3-2.8c-1.8-0.6-3.7-0.6-5.6,0
			c-2.7,0.4-5.1,1.6-7,3.6C13.9,29.7,13.4,37.1,14.2,48.9z"/>
		<path class="st23" d="M17,26c-0.7,0.7-1.4,1.4-1.9,2.2C14.4,29,13.9,30,13.6,31c-0.7,2.6-0.7,5.4-0.3,8c0.3,3.9,0,8,0,12.2v10.5
			c0,2.1-0.3,4.1-0.8,6.1c-0.1,0.9-0.1,1.9,0,2.8c0.1,1.1,0.6,2,1.4,2.8c1,0.6,2,1.2,3.1,1.7c0.3,0,2.5,0.6,2.5,0.8
			c-0.5-8.5-0.4-17,0.3-25.5c0.2-3.1,0.7-6.2,1.4-9.2c0.6-1.9,0.8-3.9,1.4-5.8c0.3-0.8,0.8-1.9,0.6-2.5c-0.3-0.6-0.6-0.6-0.8-0.6
			c-0.6-0.8-1-1.8-1.1-2.8c0-0.4-0.1-0.8-0.3-1.1c0-0.2,0-0.3,0-0.4c0-0.1-0.1-0.3-0.2-0.4c-0.1-0.3-0.3-0.5-0.6-0.6
			c-0.2-0.1-0.5-0.2-0.8-0.2C18.9,26,17.5,25.3,17,26z"/>
		<path class="st18" d="M25,26.9c-2.6-0.7-5.3-1.2-8.1-1.4c1.4-1.6,3.2-2.8,5.3-3.3c2.2-0.3,4.4,0,6.4,0.8c1.8,0.8,3.6,1.7,5.3,2.8
			c3.1,1.6,6.1,3.5,8.9,5.5c4.2,3.6,3.3,7.5,3.6,12.2c0,0.6-1.9,0.8-2.2,1.4c-0.9,2.6-2.1,5.1-3.6,7.5c-0.4,0.7-0.9,1.3-1.4,1.9
			c-0.3,0.3-0.3,1.1-0.3,1.7v3.6c0,1.4,0.3,3.1,0.3,4.4c0,0.8,0.3,1.4,0.3,2.2s-0.8,2.2-0.6,3.3c0.3,1.1,0.8,1.9,0.6,2.8
			c-0.3,0.8,0,1.7-0.6,1.9c-0.6,0.3-0.8,0.3-1.4,0.6c-0.4,0.2-0.9,0.3-1.4,0.3c0,0-0.3-6.9-0.3-7.2v-7.8c-0.3-3.3-0.6-6.7-0.6-10.3
			c-0.1-1.5-0.1-3,0-4.4c0-1.6,0.2-3.2,0.6-4.7c0.1-2.2,0.5-4.4,1.4-6.4c0.3-0.7,0.8-1.2,1.4-1.7c0.8-0.8,0.8-1.1,0-1.9
			c-0.7-0.7-1.5-1.3-2.5-1.7c-1.1-0.6-2.2-1-3.3-1.4c-0.3,0-0.6-0.3-0.8-0.3C29.6,27.6,27.3,27.4,25,26.9z"/>
		<path class="st15" d="M38.1,87.1c0.3-0.3,0.6-0.8,1.1-1.1c0-0.1,0-0.1,0.1-0.2c0.1-0.1,0.1-0.1,0.2-0.1c0.6-0.8,1.4-1.1,1.7-1.9
			c0.3-0.8,0.5-1.6,0.5-2.4c0.3-3.6-0.6-10.5,0.3-14.4c0.8-3.9,7.2-1.1,7.2-1.1c0,3.6-0.7,7.2-1.9,10.5c-1.9,6.4-2.5,7.2-2.5,9.7
			c0,0.8,0.3,1.4-0.3,2.2c-0.3,0.3-0.3,1.1-0.8,1.7c-0.3,1-0.6,1.9-1.1,2.8c-0.3,0.8,0,0.8-2.2,1.7c-2.2,0.8-1.7-0.6-1.7-0.6H38
			c-0.1,0-0.3-0.1-0.4-0.2c-0.1-0.1-0.2-0.2-0.2-0.4l0.8-3.9c0-0.3,0-0.3-0.3-0.6c-0.8,0.6-2.2,1.7-2.8,1.4
			C35.3,89.4,37.5,88,38.1,87.1z"/>
		<path class="st24" d="M49.2,65.8c0,3.6-0.7,7.2-1.9,10.5c-1.9,6.4-2.5,7.2-2.5,9.7V88c-0.3-1.2-0.5-2.4-0.6-3.6
			c0.5-3,1.1-6,1.9-8.9c0.7-3.4,0.9-6.8,0.6-10.3C47.5,65.2,48.4,65.4,49.2,65.8z"/>
		<path class="st25" d="M38.9,32.2c0,0,5.8-2.5,7.2,5.5c1.4,8,1.4,11.1,2.5,17.2s1.1,7.5,1.4,9.2c-0.4,4.3-1.1,8.6-2.2,12.8
			c-1.1,4.2-2.2,7.2-2.2,7.2c-0.2-0.5-0.5-1-0.9-1.4c-0.4-0.3-1-0.5-1.6-0.6c-1.9,0-2.2,0.6-2.2,0.6l0.3-19.4c0,0-6.7-18.6-5.8-23
			C36.1,35.8,36.7,33,38.9,32.2z"/>
		<path class="st18" d="M43.1,34.4c0.6,0.3,1.1,0.6,0.8,1.1c0,0.2-0.1,0.4-0.3,0.6c-0.2,0.2-0.4,0.2-0.6,0.3
			c-1.2,0.3-2.3,0.8-3.3,1.4c-0.8,0.9-1.5,1.9-1.9,3.1c-0.3,1.1-0.5,2.2-0.6,3.3c-0.1,1-0.1,2,0,3.1c0.4,2.5,1,4.9,1.9,7.2
			c0.8,2.8,1.7,5.8,2.5,8.6c0,0-0.3,13.9-0.6,13.9V63.3c-0.8-2.8-1.9-5.5-2.8-8.3c-0.8-2.3-1.4-4.6-1.9-6.9l-0.8-3.3
			c-0.1-1.2-0.1-2.4,0-3.6c0-1.7,0-4.4,1.4-5.5c0.9-0.6,1.9-1.1,2.9-1.2C40.9,34.1,42,34.1,43.1,34.4z"/>
		<path class="st18" d="M46.1,79.1c1-5.1,1.7-10.3,1.9-15.5c0-1.7-0.8-3.9-1.9-10.3s-1.7-7.5-3.1-15.5c-0.6-3.9-2.2-5.3-3.9-5.8
			c0.8-0.3,5.8-1.9,6.9,5.5c1.4,8.3,1.4,11.1,2.5,17.2s1.1,7.5,1.4,9.2c-0.4,4.3-1.1,8.6-2.2,12.8c-1.1,4.2-2.2,7.2-2.2,7.2
			c-0.2-0.4-0.5-0.8-0.8-1.1C45.4,81.6,45.9,80.4,46.1,79.1z"/>
		<path class="st26" d="M19.2,28c0.3-0.8,0.3-1.4,0.8-1.9l1.9-1.9l1.1-1.1c-2.7,0.3-5.1,1.6-6.9,3.6c-2.7,3.5-4,7.8-3.6,12.2
			c0.1,2.5,0.4,5,0.8,7.5v13.9c-0.5,3.7-0.7,7.4-0.6,11.1c0.8,2.5,4.7,5,13.6,6.7c3.2,0.6,6.5,0.6,9.7-0.3c1.6-0.4,3.1-1.1,4.4-1.9
			c0-2-0.2-4.1-0.6-6.1c-0.6-3.7-0.9-7.4-0.8-11.1V58l-0.3-1.5l-0.3-1.7c-0.2-0.5-0.4-0.9-0.6-1.4c-0.3-0.6-0.3-1.4-0.6-2.2
			c0-0.3-0.3-0.8-0.3-1.1c-0.9-3.7-0.7-7.5,0.6-11.1c0.1-0.6,0.4-1.2,0.8-1.7c0.9-1,2.1-1.7,3.5-2.1c1.3-0.4,2.7-0.4,4-0.1
			c-3.1-4-7.2-7.2-11.9-9.2c0,0.8,2.8,2.8,3.1,3.6c0.3,0.8-3.1,4.4-3.1,4.4c-0.9,0.8-1.8,1.6-2.8,2.2c-1,0.5-2,1-3.1,1.4
			c-0.3,0.3-0.8,0.3-1.1,0.6c-1.2,0.3-2.4,0.4-3.6,0.2c-1.2-0.2-2.3-0.6-3.4-1.3c-0.7-0.5-1.2-1.2-1.4-2c-0.3-0.8-0.4-1.6-0.2-2.5
			c-0.1-1,0-2.1,0.3-3.1C18.8,29,18.9,28.5,19.2,28z"/>
		<path class="st27" d="M46.7,83.8l1.1-4.4c-1.6,0.3-3.2,0.2-4.7-0.3c-0.9-0.4-1.7-1.1-2.2-1.9l-0.3,5.3c0.9,0.6,1.9,1.1,2.9,1.3
			C44.5,84,45.6,84,46.7,83.8z M10,66.6l2.2-3.3c-1.2-0.2-2.3-0.6-3.3-1.1c-0.5-0.3-1-0.7-1.4-1.2c-0.4-0.5-0.7-1-0.8-1.6l-1.9,4.2
			C4.7,63.8,5.9,66.3,10,66.6z"/>
		<path class="st28" d="M18.9,27.5c0-0.3,0.3-0.3,0.3-0.6c0-0.3,0.6-1.4,1.1-1.7c0.6-0.3,1.4-0.6,1.4,0s-0.3,0.6-0.3,0.8
			c0,0.3-0.8,0.8-1.1,1.4C20,28.1,20,28.8,20,29.4c-0.3,1.3-0.3,2.6,0,3.9c0.3,1.1,1.1,1.7,2.2,2.2c0.6,0.3,1.4,0.6,1.9,0.8
			c1.7,0.3,3.4,0.2,5-0.3c1.1-0.3,2.1-0.8,3.1-1.4c1-0.6,2-1.3,2.8-2.2c0.9-0.9,1.5-2.1,1.7-3.3c0-0.4-0.1-0.7-0.2-1.1
			c-0.1-0.3-0.4-0.6-0.6-0.9l-0.3-0.3v-0.3c0-0.3-0.3-0.6-0.3-0.8c0-0.3,1.1,0.3,1.1,0.6c0.6,0.3,1.7,0.8,1.7,1.7
			c0.2,1.3,0,2.7-0.5,3.9c-0.5,1.2-1.4,2.3-2.6,3c-0.4,0.5-0.9,0.8-1.4,1.1c-0.6,0.5-1.2,0.8-1.9,1.1c-1.6,1-3.5,1.5-5.4,1.6
			c-1.9,0-3.8-0.4-5.5-1.3c-0.6-0.3-1.1-0.8-1.4-1.4c-0.5-1.2-0.9-2.4-1.1-3.6C18,30.8,18.2,29.1,18.9,27.5z"/>
		<path class="st26" d="M38.9,35.8l-1.1,1.1c-0.6,1.1-1,2.2-1.4,3.3c-0.4,1.8-0.7,3.7-0.8,5.5v5.5c0.3,0,0.6-0.3,0.8-0.3
			c0.3,0,0.8-0.3,1.4-0.6v0.4c0-0.6-0.3-0.8-0.3-1.4c0-0.6-0.3-1.7-0.6-2.5c-0.3-1.8-0.2-3.6,0.3-5.3c0.2-0.9,0.4-1.7,0.8-2.5
			c0-0.3,0.3-0.6,0.3-0.8c0-0.3,0.3-0.3,0.3-0.6c0-0.3,0.8-1.1,1.1-1.7l1.1-1.1c0.6-0.3,0.8-0.3,1.4-0.6c1.4-0.2,2.8-0.1,4.2,0.3
			v-0.3c0-0.1-0.1-0.3-0.2-0.4C46.1,34.1,46,34,45.8,34c-1-0.3-2.1-0.5-3.2-0.3c-1.1,0.1-2.1,0.5-3,1.1
			C39.5,35.2,39.2,35.5,38.9,35.8z M35.3,58.8c-0.1,3.6,0.1,7.2,0.6,10.8c0.2,1.7,0.3,3.5,0.3,5.3c1.6-0.4,3.1-1.1,4.4-1.9
			c0-1.3-0.2-2.6-0.6-3.9c-0.5-3.9-0.8-7.8-0.8-11.7v-0.3c-1,0.5-2,0.8-3.1,1.1C35.8,58.6,35.6,58.8,35.3,58.8z"/>
		<path class="st29" d="M36.1,56.1c0.9-0.2,1.7-0.5,2.5-0.8v-0.6c-0.2-0.5-0.4-0.9-0.6-1.4c-0.6,0.3-1.3,0.5-1.9,0.6
			c-0.3,0-0.6,0.3-0.8,0.3v2.4c0.2,0,0.3,0,0.5-0.1C35.9,56.3,36,56.2,36.1,56.1z"/>
		<path class="st30" d="M33.9,26.9c0.3,0.8,0.3,1.1-0.3,1.7l-1.1,1.1c-0.6,0.6-1.1,0.8-1.7,1.4c-0.5,0.5-1.1,0.8-1.7,1.1
			c0.7-1.7,0.9-3.5,0.6-5.3c0-1.1-0.3-2.5-0.3-3.6v-0.1c0.2,0,0.3,0,0.4,0c0.1,0,0.3,0.1,0.4,0.2c0.8,0.2,1.6,0.7,2.2,1.3
			C33.2,25.4,33.6,26.1,33.9,26.9z"/>
		<path class="st31" d="M26.4,34.3c-1.7,0-3.4-0.5-4.7-1.7c-1.1-1.1-0.6-3.6-0.3-5c0.6-2.5,3.9-1.7,3.9-1.7H27
			c1.1,0,2.5-0.3,3.6-0.3h1.1c0.6,0,0.8-0.6,1.1-0.8c0.3-0.3,0.8,0,1.4,0c0.4,0.2,0.8,0.4,1.1,0.8c0.3,0.3,0.5,0.7,0.6,1.2
			c0.6,1.7-0.8,3.3-2.2,4.4c-1.4,1.5-3.3,2.4-5.3,2.8C27.7,34.2,27.1,34.3,26.4,34.3z"/>
		<path class="st32" d="M32.8,21.7v0.6c0,1,0,2.1,0.3,3.1c0,0.3,0.3,1.1,0,1.4c-0.3,0.3-0.6,0.6-0.8,0.6c-1.3,1-2.7,1.9-4.2,2.5
			c-3.9,1.4-5,0.6-5,0.6l-0.6-8l0.8-0.3c0.8-0.3,1.4-0.6,2.2-0.8c1.2-0.5,2.5-0.9,3.9-1.1h1.9c0.2,0,0.3,0,0.4,0
			c0.1,0,0.3,0.1,0.4,0.2c0.2,0.1,0.3,0.3,0.4,0.5c0.1,0.2,0.1,0.4,0.2,0.6C32.5,21.1,32.5,21.4,32.8,21.7z"/>
		<path class="st32" d="M30.3,23.3c-0.9-0.3-1.8-0.5-2.8-0.6c-0.9,0-1.9,0-2.8,0.3c-0.6,0.3-0.3,1.1-0.8,1.4
			c-0.6,0.3-1.1,0.3-1.7,0.6c-0.6,0.3-0.3,1.7,0,2.2v3.6c0.3,1.1,1.4,1.1,2.2,1.4c1.1,0.2,2.2,0.3,3.3,0.3c0.7-0.2,1.4-0.4,1.9-0.8
			c1.5-0.9,2.8-2,3.9-3.3c0.3-0.3,0-0.3,0-0.8c0-1-0.3-2-0.8-2.8C32,24.2,31.2,23.7,30.3,23.3z"/>
		<path class="st30" d="M32.5,20c0.6,0.2,1.1,0.6,1.4,1.1c0.3,0.6-0.3,1.7-0.3,2.2c0,0.9,0.1,1.9,0.3,2.8c0,0.6,0.3,1.1,0.3,1.9
			c0,0.4-0.2,0.8-0.4,1.1c-0.2,0.3-0.4,0.6-0.8,0.9c-0.8,0.6-1.4,1.1-2.2,1.7c-0.8,0.6-1.7,0.6-2.2,1.1c0.6-0.3,1.1-0.8,1.4-1.4
			c0.2-0.4,0.3-0.9,0.3-1.4c0-0.6,0.3-1.4-0.3-1.7c-0.3-0.2-0.7-0.3-1.1-0.3c-0.3,0-0.3,0.3-0.6,0.3c-1.8,0.3-3.7,0.5-5.6,0.6
			c-0.3,0-0.6,0-0.6-0.3c0-0.3,0-0.3,0.3-0.6c0.3-0.3,0.8-0.3,1.1-0.6c1.1-0.7,2.2-1.4,3.3-1.9c0.6-0.3,1.4-0.6,1.9-0.8
			c0.6-0.3,0.6-0.6,0.6-0.8v-1.4c0-0.6,0.3-0.8,0.3-1.4l0.3-1.4C30.9,19.7,31.7,19.8,32.5,20z"/>
		<path class="st33" d="M17,12.1v-0.3c0-0.6,0.1-1.2,0.4-1.8c0.2-0.6,0.6-1.1,1-1.5c0.5-0.8,1.1-1.4,1.9-1.9
			c0.8-0.5,1.6-0.8,2.5-0.9c1.8,0,3.6,0.3,5.2,1c1.6,0.7,3.1,1.8,4.3,3.1c0.3,0.3,0.3,0.6,0.6,0.6s0.3,0.6,0.3,0.8
			c1.7,3.9,6.4,4.7-1.7,13.3l-0.3,0.3c-0.1,0-0.1,0-0.2,0.1c-0.1,0.1-0.1,0.1-0.1,0.2l-0.3,0.3c-0.4,0.3-0.9,0.6-1.4,0.8
			c-1.3,1.1-2.8,1.8-4.4,2.2C22,29,19.5,28.2,19.2,26c-0.6-4.2-1.7-8-2.2-11.9V12.1z"/>
		<path class="st34" d="M18.6,8.6c0.8,0.6,1.1,0.3,1.1-0.6H20c1.3-0.5,2.7-0.8,4.2-0.8c1.1,0,2.2,0,3.3,0.3c1.7,0.3,3.4,1.1,4.7,2.2
			c0.3,0.3,0.3,0.6,0.6,0.6c0.3,0,0.3,0.6,0.3,0.8c1.7,3.9,6.4,4.7-1.7,13.3l-0.3,0.3c-0.1,0-0.1,0-0.2,0.1
			c-0.1,0.1-0.1,0.1-0.1,0.2l-0.3,0.3c-0.4,0.3-0.9,0.6-1.4,0.8c0.2-1.1,0.3-2.2,0.3-3.3v-1.4c0-0.6-0.3-0.8-0.6-1.4
			c-0.2-0.1-0.3-0.3-0.4-0.5c-0.1-0.2-0.1-0.4-0.2-0.6v-0.8c-0.3-1.1,0-2.5-0.3-3.6c-0.3-0.6-0.3-1.4-0.8-1.9
			c-0.3-0.4-0.7-0.7-1.1-1c-0.4-0.2-0.9-0.4-1.4-0.4h-3.1c-0.8,0-1.7-0.3-2.2-0.3c0,0-1.9,0-1.9-0.3C17.2,10.8,16.7,7.2,18.6,8.6z"
			/>
		<path class="st35" d="M18.6,6.5c1.1,0,1.1-0.8,2.2-1.9c1.8-1.7,4-2.9,6.4-3.5c1.4-0.3,2.8-0.2,4.2,0.3C32.8,1.9,34,2.6,35,3.6
			l0.3,0.3l0.3,0.3l0.3,0.3c0.3,0.3,0.6,0.7,0.8,1.1c0,0.1,0,0.1,0.1,0.2c0.1,0.1,0.1,0.1,0.2,0.1c0.6,0.8,0.9,1.8,0.8,2.8v2.2
			c-0.1,0.9-0.2,1.7-0.6,2.5l-0.8,2.5c0,0.3,0,0.3-0.3,0.6c0,1.1-0.2,2.3-0.6,3.3c-0.3,0.6-0.3,1.4-0.6,1.7l-1.1,1.1
			c0,0-0.8,0.6-1.4,1.1v-0.8c0.2-1.5,0.6-2.9,1.4-4.2c0.3-0.6,0.6-0.8,0.8-1.4v-0.8c-0.1-0.5-0.2-0.9-0.3-1.4
			c-0.6-0.8-1.9-0.6-2.5,0.3c-0.3,0.6-0.5,1.3-0.6,1.9c0,0.6-0.3,1.1-0.3,1.7v0.6c-0.6,0-0.8,0.3-1.4,0.3v-0.8
			c-0.3-1.7-0.6-3.1-0.8-4.7v-0.6c-0.6-2.8-3.6-3.9-8.6-3.9L16.4,10C16.1,9.5,15.3,6.5,18.6,6.5z"/>
		<path class="st36" d="M28.6,14.2v0.3c0.3,1.7,0.6,3.3,0.8,4.7V20c0.6,0,0.8-0.3,1.4-0.3v-0.8c-0.1-0.5,0-1,0.3-1.4
			c0.3-0.6,0.3-1.4,0.6-1.9c0.1-0.2,0.3-0.4,0.5-0.5c0.2-0.1,0.4-0.2,0.7-0.2c0.2,0,0.5,0,0.7,0.1s0.4,0.2,0.6,0.4
			c0.3,0.3,0.3,0.6,0.3,1.1v1.4c0,0.6-0.3,0.8-0.6,1.4c-0.9,1.2-1.4,2.7-1.4,4.2v0.6c0.5-0.3,1-0.7,1.4-1.1l1.1-1.1
			c0.3-0.6,0.3-1.1,0.6-1.7c0.3-1.1,0.6-2.2,0.8-3.1c0-0.3,0-0.3,0.3-0.6l0.8-2.5c0.3-0.8,0.3-1.7,0.6-2.5V9.3
			c-0.3-0.8-0.6-1.9-0.8-2.8c0-0.1,0-0.1-0.1-0.2C37.1,6.3,37,6.3,37,6.3c-0.8-0.8-1.1-1.4-1.1-1.7l-0.3-0.3l-0.3-0.3
			c0.3,0.3,0.3,0.6,0.6,0.6c0.4,1,0.4,2.2,0.2,3.2c-0.2,1.1-0.8,2.1-1.6,2.9c-0.7,0.5-1.4,1-2.2,1.4c-1.2,0.5-2.3,1.2-3.3,1.9
			C28.8,14,28.8,14.1,28.6,14.2c0,0,0,0.1,0,0.1V14.2z"/>
		<path class="st37" d="M36.1,74.9v2.5c1.6-0.4,3.1-1.1,4.4-1.9v-2.4c-1.4,0.8-2.9,1.5-4.4,1.9V74.9z"/>
		<path class="st28" d="M12.8,71c0.8,2.5,4.7,5,13.6,6.7c3.3,0.6,6.7,0.5,10-0.3v-2.5c-3.2,1-6.5,1-9.7,0.3
			c-8.9-1.7-12.8-4.2-13.6-6.7c-0.1-0.5-0.2-1.1-0.3-1.7C12.5,68.3,12.5,69.7,12.8,71z"/>
		<path class="st37" d="M35.3,58.8c0.3,0,0.6-0.3,0.8-0.3c1-0.3,2.1-0.7,3.1-1.1l-0.6-2.2c-0.8,0.4-1.6,0.6-2.5,0.8
			c-0.3,0-0.6,0.3-0.8,0.3V58.8z"/>
		<path class="st28" d="M13.4,53.3c1.4,2.2,5.6,4.2,13,5.5c3,0.5,6,0.4,8.9-0.3v-2.5c-2.9,0.7-5.9,0.8-8.9,0.3
			C18.9,55,15,53,13.4,50.8V53.3z"/>
		<path class="st37" d="M35.3,54.1c0.3,0,0.6-0.3,0.8-0.3c0.6-0.3,1.3-0.5,1.9-0.6v-0.6c-0.1-0.5-0.2-0.9-0.3-1.4v-0.3
			c-0.3,0.3-0.8,0.3-1.4,0.6c-0.6,0.3-0.6,0.3-0.8,0.3C35.3,52.6,35.2,53.4,35.3,54.1z"/>
		<path class="st28" d="M13.4,48.9c1.7,2.2,5.6,4.2,13,5.5c3,0.5,6.2,0.4,9.2-0.3v-2.5c-3,0.7-6.1,0.8-9.2,0.3
			c-7.2-1.4-11.4-3.3-13-5.5V48.9z"/>
	</g>
</g>
</svg>
